<svg width="58" height="48" viewBox="0 0 58 48" fill="none" xmlns="http://www.w3.org/2000/svg"  >
<path d="M57.8664 8.92925L51.5536 41.8875C51.2244 43.6067 50.3035 45.1578 48.9495 46.2735C47.5954 47.3893 45.8931 47.9998 44.1356 48H7.55154C6.43991 47.9997 5.34205 47.7551 4.3363 47.2836C3.33055 46.8121 2.44168 46.1253 1.73315 45.2723C1.02463 44.4193 0.5139 43.4211 0.237399 42.3489C-0.0391014 41.2767 -0.0745543 40.1569 0.133579 39.0695L6.44647 6.11121C6.77586 4.39214 7.69698 2.84127 9.05112 1.72577C10.4053 0.610264 12.1077 -3.423e-05 13.8651 1.43995e-09H50.4485C51.5601 0.000295695 52.658 0.244921 53.6637 0.716422C54.6695 1.18792 55.5583 1.87468 56.2668 2.72768C56.9754 3.58068 57.4861 4.5789 57.7626 5.65111C58.0391 6.72332 58.0746 7.84309 57.8664 8.93051" fill="#F7F7F7"/>
<path d="M19 20.5H30.5" stroke="#1F1E1D" stroke-width="1.5" stroke-miterlimit="10" stroke-linecap="round" stroke-linejoin="round"/>
<path d="M23 28.5H25" stroke="#1F1E1D" stroke-width="1.5" stroke-miterlimit="10" stroke-linecap="round" stroke-linejoin="round"/>
<path d="M27.5 28.5H31.5" stroke="#1F1E1D" stroke-width="1.5" stroke-miterlimit="10" stroke-linecap="round" stroke-linejoin="round"/>
<path d="M39 23.03V28.11C39 31.62 38.11 32.5 34.56 32.5H23.44C19.89 32.5 19 31.62 19 28.11V19.89C19 16.38 19.89 15.5 23.44 15.5H30.5" stroke="#1F1E1D" stroke-width="1.5" stroke-linecap="round" stroke-linejoin="round"/>
<path d="M33.5 18L35 19.5L39 15.5" stroke="#1F1E1D" stroke-width="1.5" stroke-linecap="round" stroke-linejoin="round"/>
        </svg>
