<svg width="20" height="23" viewBox="0 0 20 23" fill="none" xmlns="http://www.w3.org/2000/svg">
    <path d="M19.3729 16.68C18.8554 17.8294 18.606 18.3431 17.9404 19.3575C17.0085 20.775 15.6941 22.545 14.0704 22.5562C12.6248 22.5694 12.2517 21.6131 10.2885 21.63C8.32728 21.6394 7.91853 22.575 6.47103 22.56C4.8454 22.545 3.60228 20.9512 2.6704 19.5356C0.0641507 15.5662 -0.211474 10.9125 1.39915 8.43748C2.53915 6.68248 4.34103 5.65123 6.03415 5.65123C7.75915 5.65123 8.8429 6.59811 10.2679 6.59811C11.6517 6.59811 12.4935 5.64936 14.4885 5.64936C15.996 5.64936 17.5898 6.47061 18.7298 7.88811C15.0023 9.93186 15.6079 15.255 19.3729 16.68ZM12.9735 4.06498C13.6992 3.13311 14.2504 1.81873 14.0498 0.47998C12.8667 0.560605 11.4829 1.31623 10.6748 2.29498C9.94165 3.18748 9.33415 4.51123 9.5704 5.79186C10.8623 5.83311 12.1992 5.06248 12.9735 4.06498Z" fill="white"/>
</svg>
