<svg width="85" height="48" viewBox="0 0 85 48" fill="none" xmlns="http://www.w3.org/2000/svg">
    <g clip-path="url(#clip0_2_6)">
        <mask id="path-1-inside-1_2_6" fill="white">
            <path d="M77.8856 8.92925L71.9535 41.8875C71.6443 43.6067 70.7789 45.1578 69.5065 46.2735C68.2342 47.3893 66.6345 47.9998 64.983 48H-6.50401C-7.54858 47.9997 -8.58021 47.7551 -9.52529 47.2836C-10.4704 46.8121 -11.3056 46.1253 -11.9714 45.2723C-12.6372 44.4193 -13.1171 43.4211 -13.3769 42.3489C-13.6367 41.2767 -13.6701 40.1569 -13.4745 39.0695L-7.54242 6.11121C-7.2329 4.39214 -6.36735 2.84127 -5.09489 1.72577C-3.82244 0.610264 -2.22274 -3.423e-05 -0.571353 1.43995e-09H70.9151C71.9597 0.000295695 72.9913 0.244921 73.9364 0.716422C74.8815 1.18792 75.7167 1.87468 76.3825 2.72768C77.0483 3.58068 77.5282 4.5789 77.788 5.65111C78.0478 6.72332 78.0812 7.84309 77.8856 8.93051"/>
        </mask>
        <path d="M71.9535 41.8875L70.4773 41.6218L70.4772 41.622L71.9535 41.8875ZM64.983 48L64.983 49.5L64.9832 49.5L64.983 48ZM-6.50401 48L-6.50444 49.5H-6.50401V48ZM-13.4745 39.0695L-14.9508 38.8038L-14.9508 38.804L-13.4745 39.0695ZM-7.54242 6.11121L-9.01868 5.84541L-9.0187 5.8455L-7.54242 6.11121ZM-0.571353 1.43995e-09L-0.571385 1.5H-0.571353V1.43995e-09ZM70.9151 1.43995e-09L70.9155 -1.5H70.9151V1.43995e-09ZM76.4093 8.66354L70.4773 41.6218L73.4298 42.1532L79.3619 9.19496L76.4093 8.66354ZM70.4772 41.622C70.226 43.0185 69.5258 44.2616 68.5176 45.1458L70.4955 47.4013C72.032 46.054 73.0625 44.195 73.4298 42.1531L70.4772 41.622ZM68.5176 45.1458C67.5113 46.0281 66.2608 46.4999 64.9829 46.5L64.9832 49.5C67.0083 49.4998 68.957 48.7505 70.4955 47.4013L68.5176 45.1458ZM64.983 46.5H-6.50401V49.5H64.983V46.5ZM-6.50359 46.5C-7.31322 46.4998 -8.11602 46.3104 -8.85565 45.9414L-10.1949 48.6258C-9.0444 49.1998 -7.78394 49.4996 -6.50444 49.5L-6.50359 46.5ZM-8.85565 45.9414C-9.59568 45.5721 -10.2572 45.0306 -10.7889 44.3494L-13.1539 46.1953C-12.354 47.22 -11.3451 48.052 -10.1949 48.6258L-8.85565 45.9414ZM-10.7889 44.3494C-11.3209 43.6679 -11.7085 42.8647 -11.9191 41.9956L-14.8347 42.7022C-14.5257 43.9775 -13.9535 45.1707 -13.1539 46.1953L-10.7889 44.3494ZM-11.9191 41.9956C-12.1297 41.1265 -12.1569 40.2174 -11.9982 39.335L-14.9508 38.804C-15.1832 40.0964 -15.1438 41.4269 -14.8347 42.7022L-11.9191 41.9956ZM-11.9982 39.3352L-6.06614 6.37692L-9.0187 5.8455L-14.9508 38.8038L-11.9982 39.3352ZM-6.06616 6.37702C-5.81472 4.98057 -5.11437 3.73763 -4.10608 2.85371L-6.08371 0.597828C-7.62033 1.94491 -8.65107 3.8037 -9.01868 5.84541L-6.06616 6.37702ZM-4.10608 2.85371C-3.09979 1.97154 -1.84919 1.49997 -0.571385 1.5L-0.571322 -1.5C-2.59629 -1.50004 -4.54509 -0.751007 -6.08371 0.597828L-4.10608 2.85371ZM-0.571353 1.5H70.9151V-1.5H-0.571353V1.5ZM70.9147 1.5C71.7243 1.50023 72.5272 1.68965 73.2668 2.05865L74.6061 -0.625809C73.4555 -1.19981 72.1951 -1.49964 70.9155 -1.5L70.9147 1.5ZM73.2668 2.05865C74.0068 2.42785 74.6683 2.96937 75.2 3.65061L77.565 1.80475C76.7651 0.779981 75.7562 -0.0520015 74.6061 -0.625809L73.2668 2.05865ZM75.2 3.65061C75.732 4.3321 76.1196 5.13528 76.3302 6.00437L79.2458 5.29785C78.9368 4.02251 78.3646 2.82926 77.565 1.80475L75.2 3.65061ZM76.3302 6.00437C76.5408 6.87355 76.568 7.78256 76.4093 8.66499L79.3619 9.19603C79.5943 7.90361 79.5549 6.57309 79.2458 5.29785L76.3302 6.00437Z" fill="white" fill-opacity="0.24" mask="url(#path-1-inside-1_2_6)"/>
        <path d="M38.57 17.9299L32.5 23.9999L38.57 30.0699" stroke="white" stroke-width="1.5" stroke-miterlimit="10" stroke-linecap="round" stroke-linejoin="round"/>
        <path d="M50.83 24H34" stroke="white" stroke-width="1.5" stroke-miterlimit="10" stroke-linecap="round" stroke-linejoin="round"/>
    </g>
    <defs>
        <clipPath id="clip0_2_6">
            <rect width="85" height="48" fill="white"/>
        </clipPath>
    </defs>
</svg>
