<svg width="163" height="56" viewBox="0 0 163 56" fill="none" xmlns="http://www.w3.org/2000/svg">
    <mask id="path-1-inside-1_2_559" fill="white" opacity="1">
        <path d="M162.845 10.4175L155.512 48.8688C155.129 50.8745 154.06 52.6841 152.487 53.9858C150.914 55.2875 148.936 55.9998 146.895 56H8.77199C7.4807 55.9997 6.20541 55.7143 5.03712 55.1642C3.86882 54.6141 2.8363 53.8129 2.01326 52.8177C1.19022 51.8225 0.596954 50.658 0.275766 49.407C-0.0454215 48.1561 -0.0866031 46.8497 0.155167 45.5811L7.48832 7.12975C7.87095 5.12416 8.94093 3.31482 10.5139 2.0134C12.0869 0.711975 14.0645 -3.9935e-05 16.1059 1.67994e-09H154.228C155.519 0.000344978 156.795 0.285741 157.963 0.835826C159.131 1.38591 160.164 2.18712 160.987 3.18229C161.81 4.17746 162.403 5.34205 162.724 6.59296C163.045 7.84387 163.087 9.15027 162.845 10.4189"/>
    </mask>
    <path  opacity="1" d="M155.512 48.8688L154.529 48.6814L154.529 48.6815L155.512 48.8688ZM146.895 56V57H146.895L146.895 56ZM8.77199 56L8.77172 57H8.77199V56ZM0.155167 45.5811L-0.827128 45.3937L-0.827154 45.3939L0.155167 45.5811ZM7.48832 7.12975L6.50604 6.94235L6.50602 6.94241L7.48832 7.12975ZM16.1059 1.67994e-09L16.1059 1H16.1059V1.67994e-09ZM154.228 1.67994e-09L154.228 -1H154.228V1.67994e-09ZM161.863 10.2301L154.529 48.6814L156.494 49.0561L163.827 10.6048L161.863 10.2301ZM154.529 48.6815C154.191 50.4587 153.243 52.0621 151.849 53.2154L153.124 54.7562C154.876 53.3061 156.068 51.2903 156.494 49.056L154.529 48.6815ZM151.849 53.2154C150.456 54.3687 148.704 54.9998 146.895 55L146.895 57C149.169 56.9998 151.372 56.2063 153.124 54.7562L151.849 53.2154ZM146.895 55H8.77199V57H146.895V55ZM8.77225 55C7.62816 54.9997 6.49824 54.7468 5.4631 54.2594L4.61113 56.0689C5.91259 56.6817 7.33325 56.9996 8.77172 57L8.77225 55ZM5.4631 54.2594C4.42796 53.7721 3.51311 53.0622 2.78386 52.1804L1.24266 53.455C2.15948 54.5636 3.30967 55.4561 4.61113 56.0689L5.4631 54.2594ZM2.78386 52.1804C2.05462 51.2986 1.52894 50.2667 1.24435 49.1583L-0.692815 49.6557C-0.335035 51.0492 0.325827 52.3465 1.24266 53.455L2.78386 52.1804ZM1.24435 49.1583C0.959753 48.0499 0.923264 46.8924 1.13749 45.7683L-0.827154 45.3939C-1.09647 46.8071 -1.0506 48.2623 -0.692815 49.6557L1.24435 49.1583ZM1.13746 45.7684L8.47062 7.31708L6.50602 6.94241L-0.827128 45.3937L1.13746 45.7684ZM8.4706 7.31715C8.80963 5.5401 9.75768 3.93696 11.1514 2.78388L9.87647 1.24291C8.12418 2.69267 6.93227 4.70822 6.50604 6.94235L8.4706 7.31715ZM11.1514 2.78388C12.5451 1.6308 14.2972 0.999965 16.1059 1L16.1059 -1C13.8317 -1.00004 11.6288 -0.206851 9.87647 1.24291L11.1514 2.78388ZM16.1059 1H154.228V-1H16.1059V1ZM154.228 1C155.372 1.00031 156.502 1.25317 157.537 1.74056L158.389 -0.0689044C157.087 -0.681688 155.667 -0.999616 154.228 -1L154.228 1ZM157.537 1.74056C158.572 2.22794 159.487 2.93784 160.216 3.81961L161.757 2.54497C160.841 1.43641 159.69 0.543879 158.389 -0.0689044L157.537 1.74056ZM160.216 3.81961C160.945 4.70136 161.471 5.73325 161.756 6.84165L163.693 6.34426C163.335 4.95084 162.674 3.65355 161.757 2.54497L160.216 3.81961ZM161.756 6.84165C162.04 7.95005 162.077 9.10761 161.863 10.2317L163.827 10.6061C164.096 9.19292 164.051 7.73769 163.693 6.34426L161.756 6.84165Z" fill="white" fill-opacity="0.5" mask="url(#path-1-inside-1_2_559)"/>
</svg>
