<svg width="87" height="48" viewBox="0 0 87 48" fill="none" xmlns="http://www.w3.org/2000/svg">
    <g  >
        <mask id="path-1-inside-1_1_16" fill="red">
            <path d="M86.8671 8.92925L80.5861 41.8875C80.2587 43.6067 79.3424 45.1578 77.9952 46.2735C76.648 47.3893 74.9542 47.9998 73.2056 48L-2.4866 48C-3.59262 47.9997 -4.68493 47.7551 -5.6856 47.2836C-6.68628 46.8121 -7.57065 46.1253 -8.2756 45.2723C-8.98055 44.4193 -9.4887 43.4211 -9.7638 42.3489C-10.0389 41.2767 -10.0742 40.1569 -9.8671 39.0695L-3.58609 6.11121C-3.25836 4.39214 -2.3419 2.84127 -0.994593 1.72577C0.352712 0.610264 2.04651 -3.423e-05 3.79504 1.47292e-09L79.4866 1.65387e-09C80.5926 0.000295696 81.6849 0.244921 82.6856 0.716422C83.6863 1.18792 84.5706 1.87468 85.2756 2.72768C85.9805 3.58068 86.4887 4.5789 86.7638 5.65111C87.0389 6.72332 87.0742 7.84309 86.8671 8.93051"/>
        </mask>
        <path d="M80.5861 41.8875L79.1126 41.6067L79.1126 41.6069L80.5861 41.8875ZM73.2056 48L73.2056 49.5L73.2057 49.5L73.2056 48ZM-2.4866 48L-2.487 49.5H-2.4866L-2.4866 48ZM-9.8671 39.0695L-11.3406 38.7887L-11.3406 38.7889L-9.8671 39.0695ZM-3.58609 6.11121L-5.05955 5.83031L-5.05957 5.8304L-3.58609 6.11121ZM3.79504 1.47292e-09L3.79501 1.5H3.79504L3.79504 1.47292e-09ZM79.4866 1.65387e-09L79.487 -1.5L79.4866 -1.5L79.4866 1.65387e-09ZM85.3936 8.64844L79.1126 41.6067L82.0596 42.1683L88.3406 9.21006L85.3936 8.64844ZM79.1126 41.6069C78.8504 42.9835 78.1167 44.2252 77.0384 45.1183L78.9519 47.4288C80.568 46.0904 81.6669 44.23 82.0596 42.1682L79.1126 41.6069ZM77.0384 45.1183C75.9601 46.0113 74.6046 46.4999 73.2054 46.5L73.2057 49.5C75.3038 49.4998 77.3358 48.7672 78.9519 47.4288L77.0384 45.1183ZM73.2056 46.5L-2.4866 46.5L-2.4866 49.5L73.2056 49.5L73.2056 46.5ZM-2.4862 46.5C-3.37126 46.4998 -4.24539 46.304 -5.04625 45.9267L-6.32496 48.6405C-5.12447 49.2061 -3.81397 49.4996 -2.487 49.5L-2.4862 46.5ZM-5.04625 45.9267C-5.84711 45.5493 -6.55501 44.9996 -7.11935 44.3168L-9.43184 46.2279C-8.58629 47.251 -7.52544 48.0748 -6.32496 48.6405L-5.04625 45.9267ZM-7.11935 44.3168C-7.6837 43.6339 -8.09057 42.8347 -8.31086 41.9761L-11.2167 42.7217C-10.8868 44.0075 -10.2774 45.2048 -9.43184 46.2279L-7.11935 44.3168ZM-8.31086 41.9761C-8.53115 41.1175 -8.5594 40.2209 -8.39358 39.3501L-11.3406 38.7889C-11.589 40.093 -11.5467 41.4358 -11.2167 42.7217L-8.31086 41.9761ZM-8.39361 39.3503L-2.11261 6.39202L-5.05957 5.8304L-11.3406 38.7887L-8.39361 39.3503ZM-2.11263 6.39212C-1.8502 5.01559 -1.11641 3.77403 -0.0379905 2.88115L-1.95119 0.570383C-3.56739 1.90851 -4.66652 3.76868 -5.05955 5.83031L-2.11263 6.39212ZM-0.0379905 2.88115C1.04039 1.9883 2.39589 1.49997 3.79501 1.5L3.79507 -1.5C1.69712 -1.50004 -0.334968 -0.767775 -1.95119 0.570383L-0.0379905 2.88115ZM3.79504 1.5L79.4866 1.5L79.4866 -1.5L3.79504 -1.5L3.79504 1.5ZM79.4862 1.5C80.3713 1.50024 81.2454 1.69599 82.0463 2.07334L83.325 -0.640494C82.1245 -1.20615 80.814 -1.49965 79.487 -1.5L79.4862 1.5ZM82.0463 2.07334C82.8471 2.45069 83.555 3.00036 84.1193 3.68324L86.4318 1.77212C85.5863 0.748994 84.5255 -0.0748398 83.325 -0.640494L82.0463 2.07334ZM84.1193 3.68324C84.6837 4.36611 85.0906 5.16533 85.3109 6.0239L88.2167 5.27832C87.8868 3.99247 87.2774 2.79525 86.4318 1.77212L84.1193 3.68324ZM85.3109 6.0239C85.5311 6.88247 85.5594 7.77915 85.3936 8.6499L88.3406 9.21112C88.589 7.90703 88.5466 6.56416 88.2167 5.27832L85.3109 6.0239Z" fill="white" mask="url(#path-1-inside-1_1_16)"/>
    </g>
    <path d="M44.57 17.9299L38.5 23.9999L44.57 30.0699" stroke="white" stroke-width="1.5" stroke-miterlimit="10" stroke-linecap="round" stroke-linejoin="round"/>
    <path d="M55.5 24L38.67 24" stroke="white" stroke-width="1.5" stroke-miterlimit="10" stroke-linecap="round" stroke-linejoin="round"/>
</svg>
