<svg width="96" height="80" viewBox="0 0 96 80" fill="none" xmlns="http://www.w3.org/2000/svg">
    <path d="M95.7768 14.8821L85.2285 69.8125C84.6786 72.6779 83.1397 75.263 80.8772 77.1226C78.6147 78.9822 75.7702 79.9997 72.8336 80H12.618C10.7606 79.9995 8.92616 79.5918 7.24562 78.806C5.56509 78.0201 4.07986 76.8755 2.89597 75.4539C1.71207 74.0322 0.858687 72.3685 0.396675 70.5815C-0.0653363 68.7945 -0.124574 66.9282 0.2232 65.1158L10.7716 10.1854C11.3219 7.32023 12.8611 4.73545 15.1237 2.87628C17.3864 1.01711 20.231 -5.705e-05 23.1675 2.39991e-09H83.382C85.2394 0.000492826 87.0739 0.408202 88.7544 1.19404C90.435 1.97987 91.9201 3.12446 93.104 4.54613C94.2879 5.9678 95.1413 7.63149 95.6033 9.41851C96.0653 11.2055 96.1246 13.0718 95.7768 14.8842" fill="#F7F7F7"/>
    <g clip-path="url(#clip0_3_19)">
        <path d="M65.0004 39.4998C65.0004 39.6449 65.0004 39.7823 65.0004 39.9274C65.0004 40.0725 65.0004 40.0725 65.0004 40.1413V39.6602C65.0041 39.6068 65.0041 39.5532 65.0004 39.4998V39.4998Z" fill="#EF4E4E"/>
        <path d="M65.0004 40.3857V40.7446C65.0004 40.5613 65.0004 40.3704 65.0004 40.1795C65.0079 40.2177 65.0004 40.2864 65.0004 40.3857Z" fill="#EF4E4E"/>
        <path d="M56.6624 18.3766C56.9567 18.5599 57.2359 18.7508 57.5151 18.9494C57.2433 18.7402 56.9585 18.5488 56.6624 18.3766V18.3766Z" fill="#EF4E4E"/>
        <path d="M51.2522 14.9401L51.388 15.1234C51.3654 15.07 51.3126 15.0089 51.2522 14.9401Z" fill="#EF4E4E"/>
        <path d="M35.2101 18.1476C35.5339 18.3836 35.8437 18.6386 36.1382 18.9112C36.2174 18.9865 36.3062 19.0507 36.4023 19.1021C36.3245 19.053 36.2512 18.9968 36.1835 18.9341C35.8785 18.6482 35.5531 18.3853 35.2101 18.1476V18.1476Z" fill="#EF4E4E"/>
        <path d="M57.9905 19.3236C58.3512 19.6043 58.8041 19.7354 59.2569 19.69C59.7098 19.6445 60.1284 19.4261 60.4277 19.0792C62.0878 17.1395 64.4118 16.8493 65.8606 18.4148C64.3967 16.8875 62.0878 17.17 60.4353 19.0945C60.1303 19.4416 59.7073 19.6597 59.2506 19.7054C58.7934 19.7427 58.3389 19.6066 57.9754 19.3236L57.5679 18.9952C57.7188 19.1021 57.8622 19.2091 57.9905 19.3236Z" fill="#EF4E4E"/>
        <path d="M30.4487 42.081C30.4487 41.9206 30.4487 41.7603 30.4487 41.5999C30.4487 41.4395 30.4487 41.0959 30.4865 40.8362C30.6676 38.4918 30.8185 36.5978 30.8487 36.0404C30.8562 35.9923 30.8562 35.9433 30.8487 35.8953C31.2112 32.816 31.8889 29.7832 32.8709 26.8458C33.0261 26.4005 33.0099 25.9125 32.8257 25.4788C32.6367 25.047 32.2908 24.7052 31.8598 24.5242C29.1509 23.4169 27.8002 20.6524 30.2526 18.0941C30.764 17.537 31.454 17.1815 32.2 17.0906C32.946 16.9997 33.6998 17.1794 34.3272 17.5977L34.5611 17.7275L34.7347 17.8345L34.961 17.9796L35.1799 18.1323C35.5037 18.3684 35.8136 18.6234 36.108 18.8959C36.1872 18.9713 36.276 19.0355 36.3721 19.0869C36.4348 19.1359 36.5032 19.1769 36.5758 19.2091L36.8399 19.316C36.9195 19.3357 37.0001 19.351 37.0814 19.3618C37.447 19.4102 37.8185 19.3435 38.1453 19.1709L42.7633 16.6889C42.7842 16.678 42.8023 16.6624 42.8161 16.6431C42.8204 16.623 42.8204 16.6022 42.8161 16.582C42.8197 16.5695 42.8197 16.5563 42.8161 16.5438C42.2649 16.3783 41.7518 16.1031 41.307 15.7344C40.9448 15.3907 40.8693 14.9707 41.6541 14.5048C42.3248 14.2539 43.0494 14.1882 43.7536 14.3143C44.4577 14.4405 45.116 14.754 45.6608 15.2227V15.2227H45.7061V15.1845C45.7061 15.1845 45.7061 15.1845 45.7061 15.1387C45.7096 15.1262 45.7096 15.113 45.7061 15.1005V15.0623C45.6816 15.0321 45.6614 14.9987 45.6457 14.963C45.6238 14.9381 45.606 14.9097 45.5929 14.8791C45.027 13.9856 44.5214 12.588 46.2117 12.0993C47.9019 11.6105 49.6223 13.1761 50.6183 14.3445C50.7925 14.5338 50.9562 14.7326 51.1088 14.9401L51.2446 15.1234C51.2899 15.1234 51.4257 15.1234 51.4257 15.0241C51.4257 14.3979 51.4257 13.1837 52.4217 13.2982C52.7618 13.3126 53.0931 13.4113 53.3865 13.5858C53.68 13.7602 53.9265 14.005 54.1044 14.2987C54.1372 14.3427 54.1674 14.3886 54.195 14.4361C54.5799 15.1069 54.8359 15.8454 54.9495 16.6126C55.0167 16.9341 55.1533 17.2366 55.3495 17.4984C55.5498 17.7653 55.8079 17.9822 56.104 18.1323C56.244 18.2063 56.38 18.2879 56.5115 18.3767C56.8058 18.5599 57.085 18.7509 57.3641 18.9494L57.4245 18.9952L57.832 19.3236C58.1955 19.6066 58.65 19.7427 59.1072 19.7055C59.5639 19.6597 59.9869 19.4416 60.2919 19.0945C61.9368 17.1701 64.2533 16.8875 65.7172 18.4149C65.8078 18.5141 65.8908 18.6134 65.9738 18.7203C66.0696 18.8499 66.1577 18.985 66.2379 19.1251L66.3661 19.3618C66.4793 19.5892 66.5776 19.8239 66.6604 20.0644C66.7101 20.2066 66.7505 20.352 66.7812 20.4997C66.8844 20.9626 66.8635 21.4451 66.7208 21.8972C66.6691 22.0629 66.5982 22.2218 66.5095 22.3707C66.4487 22.4796 66.3806 22.5842 66.3058 22.6838C65.654 23.4714 64.8436 24.1092 63.9289 24.5547C63.5501 24.7796 63.2636 25.1346 63.1215 25.5552C63.0555 25.736 63.0223 25.9275 63.0234 26.1203C63.0194 26.1609 63.0194 26.2018 63.0234 26.2425C63.0293 26.4491 63.0702 26.6531 63.1442 26.8458C63.7781 29.0686 64.2373 31.3387 64.5175 33.6348C64.7613 35.5797 64.8697 37.5395 64.8419 39.4998C64.8419 39.6449 64.8419 39.7824 64.8419 39.9275C64.8419 40.0725 64.8419 40.0725 64.8419 40.1413C64.8419 40.21 64.8419 40.2788 64.8419 40.3475V41.4853C64.6759 44.0131 64.4948 46.5179 64.3892 49.0457C64.2835 51.5734 64.1703 53.6277 64.0119 55.85L63.9515 55.8882C63.5894 60.432 63.0309 64.2886 62.1783 65.4723C59.6278 69.0768 57.6509 68.0764 55.9531 66.9996C54.9344 66.3428 54.859 64.5406 54.9571 63.2194C54.9789 62.7944 54.8354 62.3777 54.5572 62.0586C54.2827 61.7356 53.8968 61.5307 53.4782 61.4859L48.0453 60.7222L40.3261 59.6607C40.2457 59.6532 40.1649 59.6532 40.0846 59.6607C39.7068 59.6568 39.3381 59.7777 39.0344 60.0051C38.7307 60.2325 38.5086 60.554 38.4019 60.9208C37.9416 62.6314 36.6965 65.2431 33.3991 65.2431C28.4869 65.2431 29.4527 55.0176 29.6263 51.5734C29.8753 49.7788 30.1771 45.6703 30.4487 42.081ZM49.0036 29.8088C49.0271 29.8355 49.045 29.8666 49.0564 29.9004V29.9539C49.1629 30.5215 49.381 31.0617 49.6978 31.5424C50.0134 32.017 50.4154 32.4265 50.8824 32.7489C51.3392 33.0638 51.8516 33.2868 52.3916 33.4057C52.9468 33.5203 53.5191 33.5203 54.0742 33.4057C54.6289 33.2915 55.1558 33.0674 55.6246 32.7463C56.0934 32.4252 56.4948 32.0134 56.8058 31.5347C57.1236 31.0574 57.3419 30.5195 57.4472 29.9539C57.5604 29.3895 57.5604 28.8077 57.4472 28.2433V28.1669C57.41 27.9651 57.333 27.7729 57.2208 27.6018C57.1076 27.4338 56.9642 27.2887 56.7982 27.1742C56.6286 27.0617 56.439 26.9838 56.2398 26.945C55.8441 26.8726 55.436 26.9574 55.1004 27.1818C54.933 27.2952 54.7915 27.4437 54.6854 27.6171C54.4625 27.959 54.3787 28.3749 54.4515 28.7778V28.8695C54.512 29.0486 54.5352 29.2384 54.5195 29.427C54.4974 29.6151 54.4384 29.7969 54.3459 29.9616C54.254 30.1269 54.1279 30.2702 53.9761 30.3816C53.8241 30.4892 53.6522 30.5645 53.4706 30.603C53.2889 30.6413 53.1014 30.6413 52.9198 30.603C52.7387 30.5579 52.5689 30.4746 52.4217 30.3587C52.272 30.2431 52.1506 30.0942 52.0671 29.9234C51.9819 29.7549 51.9331 29.5701 51.9237 29.3812V29.2284C51.8856 29.0292 51.8086 28.8397 51.6973 28.6709C51.5869 28.4986 51.4431 28.3505 51.2748 28.2356C51.1052 28.1232 50.9155 28.0453 50.7164 28.0066C50.5195 27.9684 50.3172 27.9684 50.1203 28.0066C49.732 28.1034 49.3915 28.3394 49.162 28.6709C48.9714 29.0172 48.915 29.4228 49.0036 29.8088ZM38.8924 30.9925C39.1323 31.52 39.4733 31.9942 39.8955 32.3874C40.3178 32.7807 40.8129 33.0853 41.3523 33.2835C41.8795 33.4834 42.4409 33.5741 43.0034 33.5505C43.5659 33.5269 44.118 33.3894 44.627 33.146C45.1471 32.9034 45.6148 32.5592 46.0032 32.1333C46.3917 31.7074 46.6933 31.2082 46.8907 30.6641C46.8831 30.6341 46.8831 30.6025 46.8907 30.5725C47.0195 30.1864 46.9952 29.7647 46.8229 29.3964C46.6481 29.039 46.342 28.7649 45.9702 28.6327C45.7888 28.5545 45.5939 28.513 45.3967 28.5106C45.2019 28.5128 45.0095 28.5543 44.8308 28.6327C44.6511 28.7171 44.4896 28.8365 44.3554 28.9841C44.2251 29.1347 44.1228 29.3081 44.0536 29.4957V29.5873C44.0143 29.772 43.9372 29.9463 43.8272 30.099C43.7154 30.2509 43.5742 30.3782 43.4122 30.4732C43.2504 30.5656 43.0703 30.6203 42.885 30.6335C42.6996 30.6467 42.5138 30.6181 42.3407 30.5496C42.1627 30.4912 42.0019 30.3889 41.8729 30.2518C41.7398 30.1192 41.6365 29.9592 41.5701 29.7826C41.5037 29.606 41.4757 29.417 41.4881 29.2284C41.4974 29.0395 41.5463 28.8546 41.6314 28.6862V28.5946C41.7001 28.4064 41.7314 28.2063 41.7236 28.0058C41.7159 27.8053 41.6692 27.6084 41.5862 27.4262C41.4228 27.0572 41.1217 26.7689 40.7486 26.6243C40.5621 26.5512 40.3627 26.5175 40.1629 26.5254C39.963 26.5333 39.7669 26.5826 39.5865 26.6701C39.2357 26.8539 38.9663 27.1647 38.832 27.5407C38.8246 27.5734 38.8246 27.6073 38.832 27.64C38.6291 28.1834 38.5367 28.7626 38.5603 29.343C38.5669 29.9091 38.6796 30.4689 38.8924 30.9925V30.9925Z" fill="#EF4E4E"/>
    </g>
    <defs>
        <clipPath id="clip0_3_19">
            <rect width="38" height="56" fill="white" transform="translate(29 12)"/>
        </clipPath>
    </defs>
</svg>
