<svg width="211" height="48" viewBox="0 0 211 48" fill="none" xmlns="http://www.w3.org/2000/svg">
    <mask id="path-1-inside-1_2_1655" fill="white">
        <path d="M210.867 8.92925L204.586 41.8875C204.259 43.6067 203.342 45.1578 201.995 46.2735C200.648 47.3893 198.954 47.9998 197.206 48H-13.4866C-14.5926 47.9997 -15.6849 47.7551 -16.6856 47.2836C-17.6863 46.8121 -18.5706 46.1253 -19.2756 45.2723C-19.9805 44.4193 -20.4887 43.4211 -20.7638 42.3489C-21.0389 41.2767 -21.0742 40.1569 -20.8671 39.0695L-14.5861 6.11121C-14.2584 4.39214 -13.3419 2.84127 -11.9946 1.72577C-10.6473 0.610264 -8.95349 -3.423e-05 -7.20496 1.43995e-09H203.487C204.593 0.000295695 205.685 0.244921 206.686 0.716422C207.686 1.18792 208.571 1.87468 209.276 2.72768C209.981 3.58068 210.489 4.5789 210.764 5.65111C211.039 6.72332 211.074 7.84309 210.867 8.93051"/>
    </mask>
    <path d="M204.586 41.8875L203.113 41.6067L203.113 41.6069L204.586 41.8875ZM197.206 48V49.5H197.206L197.206 48ZM-13.4866 48L-13.487 49.5H-13.4866V48ZM-20.8671 39.0695L-22.3406 38.7887L-22.3406 38.7889L-20.8671 39.0695ZM-14.5861 6.11121L-16.0596 5.83031L-16.0596 5.8304L-14.5861 6.11121ZM-7.20496 1.43995e-09L-7.20499 1.5H-7.20496V1.43995e-09ZM203.487 1.43995e-09L203.487 -1.5H203.487V1.43995e-09ZM209.394 8.64844L203.113 41.6067L206.06 42.1683L212.341 9.21006L209.394 8.64844ZM203.113 41.6069C202.85 42.9835 202.117 44.2252 201.038 45.1183L202.952 47.4288C204.568 46.0904 205.667 44.23 206.06 42.1682L203.113 41.6069ZM201.038 45.1183C199.96 46.0113 198.605 46.4999 197.205 46.5L197.206 49.5C199.304 49.4998 201.336 48.7672 202.952 47.4288L201.038 45.1183ZM197.206 46.5H-13.4866V49.5H197.206V46.5ZM-13.4862 46.5C-14.3713 46.4998 -15.2454 46.304 -16.0462 45.9267L-17.325 48.6405C-16.1245 49.2062 -14.814 49.4996 -13.487 49.5L-13.4862 46.5ZM-16.0462 45.9267C-16.8471 45.5493 -17.555 44.9996 -18.1194 44.3168L-20.4318 46.2279C-19.5863 47.251 -18.5254 48.0748 -17.325 48.6405L-16.0462 45.9267ZM-18.1194 44.3168C-18.6837 43.6339 -19.0906 42.8347 -19.3109 41.9761L-22.2167 42.7217C-21.8868 44.0075 -21.2774 45.2048 -20.4318 46.2279L-18.1194 44.3168ZM-19.3109 41.9761C-19.5312 41.1175 -19.5594 40.2209 -19.3936 39.3501L-22.3406 38.7889C-22.589 40.093 -22.5467 41.4358 -22.2167 42.7217L-19.3109 41.9761ZM-19.3936 39.3503L-13.1126 6.39202L-16.0596 5.8304L-22.3406 38.7887L-19.3936 39.3503ZM-13.1126 6.39212C-12.8502 5.01559 -12.1164 3.77403 -11.038 2.88115L-12.9512 0.570383C-14.5674 1.90851 -15.6665 3.76868 -16.0596 5.83031L-13.1126 6.39212ZM-11.038 2.88115C-9.95961 1.9883 -8.60411 1.49997 -7.20499 1.5L-7.20493 -1.5C-9.30288 -1.50004 -11.335 -0.767775 -12.9512 0.570383L-11.038 2.88115ZM-7.20496 1.5H203.487V-1.5H-7.20496V1.5ZM203.486 1.5C204.371 1.50024 205.245 1.69599 206.046 2.07334L207.325 -0.640494C206.124 -1.20615 204.814 -1.49965 203.487 -1.5L203.486 1.5ZM206.046 2.07334C206.847 2.45069 207.555 3.00036 208.119 3.68324L210.432 1.77212C209.586 0.748994 208.525 -0.0748398 207.325 -0.640494L206.046 2.07334ZM208.119 3.68324C208.684 4.36611 209.091 5.16533 209.311 6.0239L212.217 5.27832C211.887 3.99247 211.277 2.79525 210.432 1.77212L208.119 3.68324ZM209.311 6.0239C209.531 6.88247 209.559 7.77915 209.394 8.6499L212.341 9.21112C212.589 7.90703 212.547 6.56416 212.217 5.27832L209.311 6.0239Z" fill="#DEDEDE" mask="url(#path-1-inside-1_2_1655)"/>
</svg>
