<svg width='50' height='56' viewBox="0 0 50 56" fill="none"
        xmlns="http://www.w3.org/2000/svg">
<mask id="path-1-inside-1_2_1799" fill="white">
<path
        d="M49.8427 10.4175L42.4105 48.8688C42.023 50.8745 40.9388 52.6841 39.3447 53.9858C37.7505 55.2875 35.7463 55.9998 33.6772 56H8.89053C7.58179 55.9997 6.28927 55.7143 5.10518 55.1642C3.9211 54.6141 2.87463 53.8129 2.04047 52.8177C1.20631 51.8225 0.60502 50.658 0.279492 49.407C-0.0460358 48.1561 -0.0877731 46.8497 0.157265 45.5811L7.58951 7.12975C7.97731 5.12416 9.06175 3.31482 10.656 2.0134C12.2503 0.711975 14.2545 -3.9935e-05 16.3235 1.67994e-09H41.1095C42.4182 0.000344978 43.7108 0.285741 44.8948 0.835826C46.0789 1.38591 47.1254 2.18712 47.9595 3.18229C48.7937 4.17746 49.395 5.34205 49.7205 6.59296C50.046 7.84387 50.0878 9.15027 49.8427 10.4189"/>
</mask>
<path
d="M42.4105 48.8688L41.4287 48.679L41.4287 48.6791L42.4105 48.8688ZM33.6772 56V57H33.6773L33.6772 56ZM8.89053 56L8.89026 57H8.89053V56ZM0.157265 45.5811L-0.824563 45.3913L-0.824589 45.3914L0.157265 45.5811ZM7.58951 7.12975L6.6077 6.9399L6.60768 6.93997L7.58951 7.12975ZM16.3235 1.67994e-09L16.3235 1H16.3235V1.67994e-09ZM41.1095 1.67994e-09L41.1097 -1H41.1095V1.67994e-09ZM48.8609 10.2277L41.4287 48.679L43.3923 49.0586L50.8246 10.6072L48.8609 10.2277ZM41.4287 48.6791C41.086 50.4531 40.1265 52.0564 38.7122 53.2112L39.9772 54.7604C41.7511 53.3118 42.9601 51.2959 43.3924 49.0585L41.4287 48.6791ZM38.7122 53.2112C37.2976 54.3663 35.5171 54.9998 33.6771 55L33.6773 57C35.9755 56.9998 38.2035 56.2087 39.9772 54.7604L38.7122 53.2112ZM33.6772 55H8.89053V57H33.6772V55ZM8.89079 55C7.72715 54.9997 6.57835 54.7459 5.5265 54.2573L4.68386 56.0711C6.00019 56.6826 7.43644 56.9996 8.89026 57L8.89079 55ZM5.5265 54.2573C4.47469 53.7686 3.54624 53.0574 2.80684 52.1753L1.27409 53.4601C2.20301 54.5683 3.3675 55.4596 4.68386 56.0711L5.5265 54.2573ZM2.80684 52.1753C2.06749 51.2933 1.53527 50.2619 1.24726 49.1552L-0.688275 49.6589C-0.325227 51.054 0.345123 52.3518 1.27409 53.4601L2.80684 52.1753ZM1.24726 49.1552C0.959262 48.0485 0.922363 46.8929 1.13912 45.7707L-0.824589 45.3914C-1.09791 46.8065 -1.05133 48.2638 -0.688275 49.6589L1.24726 49.1552ZM1.13909 45.7708L8.57134 7.31953L6.60768 6.93997L-0.824563 45.3913L1.13909 45.7708ZM8.57133 7.31959C8.91432 5.54571 9.87398 3.94266 11.2884 2.78806L10.0236 1.23873C8.24953 2.68697 7.0403 4.70261 6.6077 6.9399L8.57133 7.31959ZM11.2884 2.78806C12.7031 1.63323 14.4836 0.999964 16.3235 1L16.3235 -1C14.0254 -1.00004 11.7975 -0.20928 10.0236 1.23873L11.2884 2.78806ZM16.3235 1H41.1095V-1H16.3235V1ZM41.1092 1C42.2729 1.00031 43.4217 1.25409 44.4735 1.74274L45.3162 -0.0710866C43.9998 -0.682605 42.5636 -0.999617 41.1097 -1L41.1092 1ZM44.4735 1.74274C45.5253 2.23137 46.4538 2.94256 47.1932 3.82468L48.7259 2.5399C47.797 1.43169 46.6325 0.54045 45.3162 -0.0710866L44.4735 1.74274ZM47.1932 3.82468C47.9325 4.70674 48.4647 5.73807 48.7527 6.8448L50.6883 6.34111C50.3252 4.94602 49.6549 3.64817 48.7259 2.5399L47.1932 3.82468ZM48.7527 6.8448C49.0407 7.9515 49.0776 9.10706 48.8609 10.2293L50.8246 10.6086C51.0979 9.19348 51.0513 7.73624 50.6883 6.34111L48.7527 6.8448Z"
fill="#FE7B01" mask="url(#path-1-inside-1_2_1799)"/>
        </svg>
