<svg width="344" height="202" viewBox="0 0 344 202" fill="none" xmlns="http://www.w3.org/2000/svg">
    <rect x="2" y="10" width="342" height="192" rx="24" fill="white"/>
    <line y1="-0.5" x2="12.0011" y2="-0.5" transform="matrix(-0.174166 0.984716 -0.984899 -0.173132 57.2535 166)" stroke="#FE7B01"/>
    <ellipse cx="137.917" cy="171.5" rx="2.50769" ry="2.5" fill="#FE7B01"/>
    <ellipse cx="36.6062" cy="171.5" rx="2.50769" ry="2.5" fill="#FE7B01"/>
    <ellipse cx="67.7015" cy="171.5" rx="2.50769" ry="2.5" fill="#FE7B01"/>
    <ellipse cx="154.969" cy="119.5" rx="2.50769" ry="2.5" fill="#FE7B01"/>
    <ellipse cx="214.151" cy="119.5" rx="2.50769" ry="2.5" fill="#FE7B01"/>
    <ellipse cx="95.7877" cy="119.5" rx="2.50769" ry="2.5" fill="#FE7B01"/>
    <ellipse cx="36.6062" cy="119.5" rx="2.50769" ry="2.5" fill="#FE7B01"/>
    <ellipse cx="147.948" cy="171.5" rx="2.50769" ry="2.5" fill="#FE7B01"/>
    <ellipse cx="46.6369" cy="171.5" rx="2.50769" ry="2.5" fill="#FE7B01"/>
    <ellipse cx="77.7323" cy="171.5" rx="2.50769" ry="2.5" fill="#FE7B01"/>
    <ellipse cx="165" cy="119.5" rx="2.50769" ry="2.5" fill="#FE7B01"/>
    <ellipse cx="224.182" cy="119.5" rx="2.50769" ry="2.5" fill="#FE7B01"/>
    <ellipse cx="105.818" cy="119.5" rx="2.50769" ry="2.5" fill="#FE7B01"/>
    <ellipse cx="46.6369" cy="119.5" rx="2.50769" ry="2.5" fill="#FE7B01"/>
    <ellipse cx="157.978" cy="171.5" rx="2.50769" ry="2.5" fill="#FE7B01"/>
    <ellipse cx="175.031" cy="119.5" rx="2.50769" ry="2.5" fill="#FE7B01"/>
    <ellipse cx="234.212" cy="119.5" rx="2.50769" ry="2.5" fill="#FE7B01"/>
    <ellipse cx="115.849" cy="119.5" rx="2.50769" ry="2.5" fill="#FE7B01"/>
    <ellipse cx="56.6677" cy="119.5" rx="2.50769" ry="2.5" fill="#FE7B01"/>
    <ellipse cx="185.062" cy="119.5" rx="2.50769" ry="2.5" fill="#FE7B01"/>
    <ellipse cx="244.243" cy="119.5" rx="2.50769" ry="2.5" fill="#FE7B01"/>
    <ellipse cx="125.88" cy="119.5" rx="2.50769" ry="2.5" fill="#FE7B01"/>
    <ellipse cx="66.6985" cy="119.5" rx="2.50769" ry="2.5" fill="#FE7B01"/>
    <path d="M34.5185 147.06L38.2705 157H39.3625L43.1145 147.06H41.8125L38.8305 155.236H38.8165L35.8345 147.06H34.5185ZM46.468 157.084C47.574 157.084 48.414 156.58 48.904 155.768H48.918V157H50.01V150.182H48.876V151.386L48.848 151.4C48.358 150.574 47.476 150.098 46.468 150.098C44.536 150.098 43.15 151.624 43.15 153.64C43.15 155.712 44.592 157.084 46.468 157.084ZM46.636 156.048C45.236 156.048 44.298 155.012 44.298 153.64C44.298 152.128 45.348 151.134 46.636 151.134C47.98 151.134 48.918 152.24 48.918 153.64C48.918 155.082 47.896 156.048 46.636 156.048ZM52.1312 146.696V157H53.2652V146.696H52.1312ZM56.1369 148.936C56.5989 148.936 56.9629 148.572 56.9629 148.124C56.9629 147.676 56.5989 147.312 56.1369 147.312C55.6749 147.312 55.3109 147.676 55.3109 148.124C55.3109 148.572 55.6749 148.936 56.1369 148.936ZM55.5629 150.182V157H56.6969V150.182H55.5629ZM61.8085 157.084C62.9145 157.084 63.7825 156.566 64.2725 155.74H64.2865V157H65.3785V146.696H64.2445V151.4H64.2305C63.7125 150.574 62.8305 150.098 61.7945 150.098C59.8765 150.098 58.4625 151.624 58.4625 153.64C58.4625 155.712 59.9185 157.084 61.8085 157.084ZM61.9625 156.048C60.5765 156.048 59.6245 155.012 59.6245 153.64C59.6245 152.128 60.6745 151.134 61.9765 151.134C63.3485 151.134 64.2865 152.24 64.2865 153.64C64.2865 155.082 63.2505 156.048 61.9625 156.048ZM73.2289 157.084C74.0409 157.084 74.5029 156.888 74.8809 156.664L74.5869 155.67C74.2509 155.852 73.8309 156.02 73.4249 156.02C72.7809 156.02 72.5989 155.628 72.5989 154.802V151.162H74.8529V150.182H72.5989V147.732L71.4649 147.858V150.182H70.5829V151.162H71.4649V154.97C71.4649 156.342 72.0249 157.084 73.2289 157.084ZM76.3695 146.696V157H77.5035V153.57C77.5035 152.03 78.3435 151.134 79.7015 151.134C80.6955 151.134 81.3815 151.694 81.3815 153.234V157H82.5155V152.912C82.5155 150.966 81.5075 150.098 80.0375 150.098C78.9455 150.098 78.0495 150.56 77.5175 151.372H77.5035V146.696H76.3695ZM84.5043 150.182V157H85.6383V153.71C85.6383 152.338 86.4083 151.344 87.7103 151.344C87.8223 151.344 87.9903 151.358 88.1583 151.372V150.112C88.0603 150.098 87.9763 150.098 87.8783 150.098C86.9403 150.098 86.1563 150.602 85.6663 151.428H85.6383V150.182H84.5043ZM91.8478 157.084C92.7438 157.084 93.5838 156.636 94.1018 155.824H94.1158V157H95.2498V150.182H94.1158V153.486C94.1158 155.11 93.1778 156.048 92.0858 156.048C91.0078 156.048 90.4198 155.46 90.4198 153.92V150.182H89.2858V154.242C89.2858 156.188 90.2798 157.084 91.8478 157.084Z" fill="#1F1E1D"/>
    <path d="M139.157 157.07C140.907 157.07 142.167 156.272 143.035 155.194L142.125 154.424C141.425 155.306 140.445 155.922 139.157 155.922C137.057 155.922 135.475 154.438 135.475 152.058C135.475 149.776 136.889 148.124 139.143 148.124C140.263 148.124 141.285 148.6 142.111 149.622L143.021 148.866C141.971 147.578 140.571 146.962 139.143 146.962C135.965 146.962 134.201 149.244 134.201 152.058C134.201 155.306 136.469 157.07 139.157 157.07ZM143.954 147.06L147.706 157H148.798L152.55 147.06H151.248L148.266 155.236H148.252L145.27 147.06H143.954ZM153.333 147.06L157.085 157H158.177L161.929 147.06H160.627L157.645 155.236H157.631L154.649 147.06H153.333Z" fill="#1F1E1D"/>
    <mask id="mask0_2_99" style="mask-type:alpha" maskUnits="userSpaceOnUse" x="0" y="0" width="325" height="192">
        <rect width="325" height="192" rx="24" fill="#FE7B01"/>
    </mask>
    <g mask="url(#mask0_2_99)">
        <path d="M254.141 193.068C254.141 193.068 261.044 157.103 301.712 145.481C285.437 156.674 266.749 165.758 261.062 193.086L254.141 193.068Z" stroke="#FE7B01" stroke-miterlimit="10"/>
        <path d="M303.265 157.121C300.964 155.013 304.257 144.865 306.52 150.014C308.784 155.162 303.265 157.121 303.265 157.121ZM303.265 157.121C263.644 166.895 261.062 193.086 261.062 193.086C261.062 193.086 265.795 173.63 280.667 173.63M280.667 173.63C295.539 173.63 290.414 193.869 284.072 190.418C280.667 188.254 282.744 184.71 283.211 182.154C283.679 179.599 284.614 173.63 280.667 173.63Z" stroke="#FE7B01" stroke-miterlimit="10"/>
        <path d="M285.411 174.637L282 173.5L282.075 173.625C283.008 175.179 283.5 176.957 283.5 178.769C283.5 179.587 283.4 180.401 283.201 181.194L282.5 184L282.227 185.914C282.08 186.94 282.291 187.985 282.824 188.873L283.077 189.294C283.353 189.755 283.755 190.128 284.236 190.368C285.032 190.766 285.968 190.766 286.764 190.368C287.245 190.128 287.647 189.755 287.923 189.294L288.589 188.184C288.862 187.73 289.085 187.246 289.252 186.743L289.487 186.04C289.827 185.02 290 183.952 290 182.877V181.61C290 180.874 289.897 180.141 289.695 179.432L289.564 178.975C289.197 177.69 288.44 176.552 287.396 175.717C286.803 175.243 286.131 174.877 285.411 174.637Z" fill="#FE7B01"/>
        <path d="M303.564 157.662C303.564 157.662 304.668 163.743 308.185 161.281C311.702 158.819 303.564 157.662 303.564 157.662Z" stroke="#FE7B01" stroke-miterlimit="10"/>
        <path d="M297.877 159.416C297.877 159.416 298.775 164.322 301.618 162.326C304.462 160.33 297.877 159.416 297.877 159.416Z" stroke="#FE7B01" stroke-miterlimit="10"/>
        <path d="M295.802 158.707C295.802 158.707 299.749 155.666 296.681 154.062C293.613 152.458 295.802 158.707 295.802 158.707Z" stroke="#FE7B01" stroke-miterlimit="10"/>
        <path d="M283.287 177.492C283.287 177.492 270.361 177.025 269.5 193.403" stroke="#FE7B01" stroke-miterlimit="10"/>
        <path d="M56.02 38.3613H51.7943C50.2931 38.3613 49.0762 39.5654 49.0762 41.0508V51.1329C49.0762 52.6182 50.2931 53.8223 51.7943 53.8223H56.02C57.5212 53.8223 58.7382 52.6182 58.7382 51.1329V41.0508C58.7382 39.5654 57.5212 38.3613 56.02 38.3613Z" stroke="#FE7B01" stroke-miterlimit="10"/>
        <path d="M75.8944 55.3668C75.1853 55.6603 74.4237 55.8095 73.6551 55.8055H72.9279C71.4132 55.8055 69.9606 55.2102 68.8896 54.1504C67.8185 53.0907 67.2168 51.6534 67.2168 50.1546V42.0249C67.2168 40.5262 67.8185 39.0889 68.8896 38.0291C69.9606 36.9694 71.4132 36.374 72.9279 36.374H73.6551C74.397 36.379 75.1307 36.5281 75.8146 36.8128" stroke="#FE7B01" stroke-miterlimit="10"/>
        <path d="M32.2714 36.6987C32.8819 36.4831 33.5254 36.3733 34.1736 36.374H34.9008C35.6508 36.374 36.3935 36.5202 37.0864 36.8042C37.7793 37.0881 38.4089 37.5044 38.9392 38.0291C39.4695 38.5539 39.8902 39.1768 40.1773 39.8624C40.4643 40.548 40.612 41.2828 40.612 42.0249V50.1678C40.612 50.9099 40.4643 51.6447 40.1773 52.3303C39.8902 53.0159 39.4695 53.6389 38.9392 54.1636C38.4089 54.6883 37.7793 55.1046 37.0864 55.3886C36.3935 55.6726 35.6508 55.8187 34.9008 55.8187H34.1736C33.4906 55.8189 32.8131 55.6971 32.1738 55.459" stroke="#FE7B01" stroke-miterlimit="10"/>
        <path d="M40.4863 40.9238H49.0753" stroke="#FE7B01" stroke-miterlimit="10"/>
        <path d="M40.4863 51.1553H49.0753" stroke="#FE7B01" stroke-miterlimit="10"/>
        <path d="M58.6172 40.9238H67.2017" stroke="#FE7B01" stroke-miterlimit="10"/>
        <path d="M58.6172 51.1553H67.2017" stroke="#FE7B01" stroke-miterlimit="10"/>
        <path d="M53.918 32.1357V38.4009" stroke="#FE7B01" stroke-miterlimit="10"/>
        <path d="M53.918 53.7041V59.9253" stroke="#FE7B01" stroke-miterlimit="10"/>
        <path d="M71.5225 32.2197H36.4794C34.1285 32.2197 32.2227 34.1054 32.2227 36.4316V55.5691C32.2227 57.8953 34.1285 59.781 36.4794 59.781H71.5225C73.8734 59.781 75.7792 57.8953 75.7792 55.5691V36.4316C75.7792 34.1054 73.8734 32.2197 71.5225 32.2197Z" stroke="#FE7B01" stroke-miterlimit="10"/>
        <path d="M292.27 34.8199C292.27 34.8199 297.57 35.7599 297.27 29.1299C298.04 32.7599 297.769 34.1299 302.859 34.3999C298.409 35.4899 297.27 35.5799 297.27 40.3999C296.72 37.1199 297.34 34.8199 292.27 34.8199Z" stroke="#FE7B01" stroke-linecap="round" stroke-linejoin="round"/>
        <path d="M83 43.6025C83 43.6025 92.509 45.354 91.9708 33C93.3523 39.764 92.8678 42.3168 102 42.8199C94.016 44.8509 91.9708 45.0186 91.9708 54C90.984 47.8882 92.0963 43.6025 83 43.6025Z" stroke="#FE7B01" stroke-linecap="round" stroke-linejoin="round"/>
        <path d="M100.573 34C100.573 34 101.824 27.4938 93 27.8621C97.8314 26.9169 99.6548 27.2484 100.014 21C101.465 26.4627 101.585 27.8621 108 27.8621C103.634 28.5373 100.573 27.7762 100.573 34Z" stroke="#FE7B01" stroke-linecap="round" stroke-linejoin="round"/>
        <path d="M287.81 37.9L289.49 28.59L298.22 26.31L289.31 25.4L287.77 17L286.18 25.59L279 27.31L286.36 28.63L287.81 37.9Z" fill="#FE7B01"/>
        <path d="M23.0411 59L21.9048 65.6818L16 67.3182L22.0265 67.9713L23.0682 74L24.1436 67.8349L29 66.6005L24.0219 65.6531L23.0411 59Z" fill="#FE7B01"/>
        <path d="M253.832 166.973C237.871 137.596 214.094 137.315 214.094 137.315C214.094 137.315 216.957 128.38 211.747 128.17C206.536 127.959 214.094 137.315 214.094 137.315" stroke="#FE7B01" stroke-miterlimit="10"/>
        <path d="M250.687 191.906C250.687 191.906 252.906 152.215 226.5 169.5" stroke="#FE7B01" stroke-miterlimit="10"/>
        <path d="M260 178C260 178 254.019 156.237 235.922 162.879C217.825 169.522 223.833 187.181 231.368 178.27C234.994 173.682 238.748 169.919 243.5 166.5" stroke="#FE7B01" stroke-miterlimit="10"/>
        <path d="M255.193 168.587C255.193 168.587 254.442 150.834 242.377 140.706C251.179 144.94 260.355 156.478 263.5 172.5" stroke="#FE7B01" stroke-miterlimit="10"/>
        <path d="M220.431 138.648C220.431 138.648 221.135 146.25 216.206 145.946C211.277 145.642 216.934 138.765 220.431 138.648Z" stroke="#FE7B01" stroke-miterlimit="10"/>
        <path d="M222.308 138.344C222.308 138.344 215.994 134.017 219.374 130.438C222.754 126.86 224.468 135.561 222.308 138.344Z" stroke="#FE7B01" stroke-miterlimit="10"/>
        <path d="M234.139 143.935C234.139 143.935 229.656 137.736 234.139 135.514C238.622 133.292 237.097 142.063 234.139 143.935Z" stroke="#FE7B01" stroke-miterlimit="10"/>
        <path d="M230.661 143.106C230.661 143.106 229.135 150.59 224.488 148.883C219.84 147.176 227.258 142.217 230.661 143.106Z" stroke="#FE7B01" stroke-miterlimit="10"/>
        <path d="M214.012 137.216C214.012 137.216 211.665 144.514 207.299 142.362C202.933 140.21 210.702 136 214.012 137.216Z" stroke="#FE7B01" stroke-miterlimit="10"/>
        <path d="M233 166L226.5 169L224.5 173L224 176L224.5 179L226 180.5H228L231 179L236 173L243 167L242.5 166L238.5 165L233 166Z" fill="#FE7B01"/>
    </g>
</svg>
