<svg width="103" height="56" viewBox="0 0 103 56" fill="none" xmlns="http://www.w3.org/2000/svg">
    <path d="M102.845 10.4175L95.5117 48.8688C95.1294 50.8745 94.0596 52.6841 92.4868 53.9858C90.9139 55.2875 88.9364 55.9998 86.8949 56H8.77199C7.4807 55.9997 6.20541 55.7143 5.03712 55.1642C3.86882 54.6141 2.8363 53.8129 2.01326 52.8177C1.19022 51.8225 0.596954 50.658 0.275766 49.407C-0.0454215 48.1561 -0.0866031 46.8497 0.155167 45.5811L7.48832 7.12975C7.87095 5.12416 8.94093 3.31482 10.5139 2.0134C12.0869 0.711975 14.0645 -3.9935e-05 16.1059 1.67994e-09H94.228C95.5193 0.000344978 96.7946 0.285741 97.9629 0.835826C99.1312 1.38591 100.164 2.18712 100.987 3.18229C101.81 4.17746 102.403 5.34205 102.724 6.59296C103.045 7.84387 103.087 9.15027 102.845 10.4189" fill="white"/>
</svg>
