<svg width="76" height="48" viewBox="0 0 76 48" fill="none" xmlns="http://www.w3.org/2000/svg">
    <g clip-path="url(#clip0_1_9)">
        <path d="M75.8671 8.92925L69.5861 41.8875C69.2587 43.6067 68.3424 45.1578 66.9952 46.2735C65.648 47.3893 63.9542 47.9998 62.2056 48H-13.4866C-14.5926 47.9997 -15.6849 47.7551 -16.6856 47.2836C-17.6863 46.8121 -18.5706 46.1253 -19.2756 45.2723C-19.9805 44.4193 -20.4887 43.4211 -20.7638 42.3489C-21.0389 41.2767 -21.0742 40.1569 -20.8671 39.0695L-14.5861 6.11121C-14.2584 4.39214 -13.3419 2.84127 -11.9946 1.72577C-10.6473 0.610264 -8.9535 -3.423e-05 -7.20497 1.43995e-09H68.4866C69.5926 0.000295695 70.685 0.244921 71.6856 0.716422C72.6863 1.18792 73.5706 1.87468 74.2756 2.72768C74.9805 3.58068 75.4887 4.5789 75.7638 5.65111C76.0389 6.72332 76.0742 7.84309 75.8671 8.93051" fill="#FE7B01"/>
        <path d="M30.1049 32.9916C29.4908 32.9916 28.8904 32.8075 28.3797 32.4627C27.8691 32.1179 27.4711 31.6278 27.2362 31.0544C27.0012 30.481 26.9398 29.8501 27.0598 29.2415C27.1797 28.6328 27.4756 28.0738 27.91 27.6351C28.3444 27.1964 28.8978 26.8977 29.5002 26.7768C30.1026 26.656 30.7269 26.7183 31.2943 26.9561C31.8616 27.1938 32.3464 27.5962 32.6873 28.1124C33.0283 28.6285 33.2101 29.2353 33.2098 29.8559C33.2089 30.6875 32.8815 31.4849 32.2993 32.0728C31.7172 32.6607 30.928 32.9911 30.1049 32.9916ZM30.1049 28.0701C29.7554 28.0701 29.4137 28.1748 29.123 28.371C28.8324 28.5672 28.6059 28.8462 28.4721 29.1725C28.3384 29.4988 28.3034 29.8578 28.3716 30.2043C28.4398 30.5507 28.6081 30.8689 28.8552 31.1186C29.1024 31.3684 29.4173 31.5385 29.7601 31.6074C30.103 31.6763 30.4583 31.6409 30.7812 31.5057C31.1042 31.3706 31.3802 31.1417 31.5744 30.848C31.7686 30.5543 31.8722 30.2091 31.8722 29.8559C31.8704 29.3834 31.6835 28.9309 31.3522 28.5975C31.021 28.264 30.5725 28.0768 30.1049 28.0768V28.0701Z" fill="white"/>
        <path d="M46.8967 32.9916C46.2824 32.9919 45.6819 32.8082 45.171 32.4635C44.6602 32.1189 44.262 31.629 44.0267 31.0556C43.7915 30.4822 43.7299 29.8513 43.8497 29.2425C43.9694 28.6338 44.2652 28.0746 44.6995 27.6357C45.1338 27.1968 45.6872 26.898 46.2897 26.777C46.8921 26.656 47.5165 26.7182 48.084 26.9559C48.6514 27.1936 49.1363 27.596 49.4773 28.1122C49.8184 28.6284 50.0002 29.2352 49.9999 29.8559C49.999 30.6872 49.6718 31.4843 49.09 32.0722C48.5082 32.66 47.7194 32.9907 46.8967 32.9916ZM46.8967 28.0701C46.547 28.0697 46.2052 28.1742 45.9143 28.3702C45.6235 28.5662 45.3967 28.845 45.2627 29.1713C45.1287 29.4976 45.0934 29.8567 45.1614 30.2032C45.2294 30.5497 45.3976 30.8681 45.6447 31.118C45.8918 31.3679 46.2067 31.5382 46.5496 31.6072C46.8924 31.6763 47.2479 31.641 47.5709 31.5059C47.894 31.3708 48.1701 31.1419 48.3643 30.8482C48.5586 30.5545 48.6623 30.2091 48.6623 29.8559C48.6605 29.3837 48.4738 28.9315 48.1429 28.5981C47.812 28.2647 47.3639 28.0773 46.8967 28.0768V28.0701Z" fill="white"/>
        <path d="M46.369 26.0882C45.9233 26.1495 45.4925 26.2932 45.0983 26.5123L41.3145 16.5442C41.2933 16.4875 41.2556 16.4387 41.2063 16.4043C41.157 16.3699 41.0986 16.3515 41.0387 16.3516H37.6528C37.4829 16.3542 37.3181 16.2935 37.1898 16.1809C37.0615 16.0684 36.9787 15.912 36.9573 15.7417C36.9482 15.6476 36.9587 15.5526 36.9882 15.4628C37.0177 15.3731 37.0655 15.2906 37.1286 15.2206C37.1916 15.1507 37.2684 15.095 37.3541 15.057C37.4398 15.019 37.5324 14.9996 37.626 15H41.7024C41.8379 14.9999 41.9702 15.0413 42.0819 15.1188C42.1935 15.1964 42.2793 15.3063 42.3277 15.4342L46.369 26.0882Z" fill="white"/>
        <path d="M43.1253 29.8628C43.1249 30.0894 43.1451 30.3156 43.1855 30.5386H33.8223C33.9025 30.0917 33.9025 29.6339 33.8223 29.187H43.1855C43.1451 29.4099 43.1249 29.6361 43.1253 29.8628Z" fill="white"/>
    </g>
    <defs>
        <clipPath id="clip0_1_9">
            <rect width="76" height="48" fill="white"/>
        </clipPath>
    </defs>
</svg>
