<svg width="76" height="48" viewBox="0 0 76 48" fill="none" xmlns="http://www.w3.org/2000/svg">
    <path d="M75.8671 8.92925L69.5861 41.8875C69.2587 43.6067 68.3424 45.1578 66.9952 46.2735C65.648 47.3893 63.9542 47.9998 62.2056 48H-13.4866C-14.5926 47.9997 -15.6849 47.7551 -16.6856 47.2836C-17.6863 46.8121 -18.5706 46.1253 -19.2756 45.2723C-19.9805 44.4193 -20.4887 43.4211 -20.7638 42.3489C-21.0389 41.2767 -21.0742 40.1569 -20.8671 39.0695L-14.5861 6.11121C-14.2584 4.39214 -13.3419 2.84127 -11.9946 1.72577C-10.6473 0.610264 -8.95349 -3.423e-05 -7.20496 1.43995e-09H68.4866C69.5926 0.000295695 70.685 0.244921 71.6856 0.716422C72.6863 1.18792 73.5706 1.87468 74.2756 2.72768C74.9805 3.58068 75.4887 4.5789 75.7638 5.65111C76.0389 6.72332 76.0742 7.84309 75.8671 8.93051" fill="white"/>
</svg>
