<svg width="346" height="273" viewBox="0 0 346 273" fill="none" xmlns="http://www.w3.org/2000/svg">
    <g clip-path="url(#clip0_1436_204)">
        <path d="M231.907 201.824C231.907 201 231.663 200.195 231.207 199.511C230.75 198.826 230.1 198.293 229.341 197.978C228.581 197.663 227.746 197.581 226.94 197.742C226.134 197.903 225.393 198.3 224.812 198.883C224.232 199.466 223.837 200.208 223.677 201.016C223.517 201.824 223.601 202.661 223.916 203.421C224.232 204.181 224.765 204.831 225.449 205.287C226.133 205.744 226.937 205.987 227.759 205.986C228.305 205.986 228.845 205.878 229.348 205.669C229.852 205.459 230.309 205.153 230.695 204.766C231.08 204.38 231.385 203.921 231.593 203.416C231.801 202.911 231.908 202.37 231.907 201.824Z" fill="#FF9C40"/>
        <path d="M110.096 242.215C110.094 244.531 110.502 246.829 111.302 249.002H148.01C149.005 246.313 149.399 243.437 149.163 240.579C148.928 237.72 148.069 234.948 146.648 232.458C145.226 229.969 143.277 227.822 140.937 226.169C138.596 224.517 135.923 223.399 133.104 222.894C130.286 222.389 127.391 222.511 124.625 223.249C121.858 223.988 119.287 225.325 117.093 227.168C114.898 229.011 113.135 231.313 111.926 233.913C110.717 236.513 110.092 239.347 110.096 242.215Z" fill="#FF9C40"/>
        <path d="M185.434 249.001H244.242V245.926C242.478 239.235 238.467 233.356 232.886 229.277C227.304 225.199 220.491 223.169 213.591 223.53C206.692 223.89 200.127 226.619 194.999 231.258C189.871 235.896 186.494 242.162 185.434 249.001Z" fill="#FF9C40"/>
        <path d="M173.233 180.067C173.233 180.241 173.233 180.423 173.233 180.597C173.183 183.378 173.687 186.141 174.715 188.724C175.743 191.308 177.274 193.66 179.219 195.644C181.165 197.628 183.485 199.204 186.045 200.28C188.605 201.356 191.354 201.91 194.13 201.91C196.906 201.91 199.654 201.356 202.214 200.28C204.775 199.204 207.095 197.628 209.04 195.644C210.986 193.66 212.517 191.308 213.545 188.724C214.573 186.141 215.077 183.378 215.027 180.597C215.027 180.423 215.027 180.241 215.027 180.067H173.233Z" fill="#FF9C40"/>
        <path d="M144.178 193.217C145.697 193.217 147.2 192.918 148.603 192.335C150.006 191.753 151.281 190.899 152.354 189.823C153.427 188.747 154.279 187.47 154.859 186.064C155.44 184.659 155.738 183.152 155.737 181.631C155.739 181.108 155.703 180.585 155.63 180.067H132.733C132.66 180.585 132.624 181.108 132.625 181.631C132.625 183.152 132.923 184.658 133.503 186.063C134.083 187.468 134.934 188.745 136.006 189.821C137.079 190.897 138.353 191.751 139.755 192.333C141.157 192.916 142.66 193.217 144.178 193.217Z" fill="#FF9C40"/>
        <path d="M95.8619 195.741C95.8605 197.18 96.2853 198.587 97.0823 199.785C97.8794 200.982 99.013 201.916 100.34 202.468C101.667 203.02 103.127 203.165 104.536 202.886C105.946 202.606 107.241 201.914 108.257 200.898C109.274 199.881 109.967 198.585 110.249 197.174C110.53 195.762 110.388 194.299 109.839 192.969C109.291 191.639 108.361 190.501 107.167 189.701C105.973 188.9 104.569 188.472 103.132 188.471C102.179 188.47 101.234 188.657 100.352 189.022C99.4705 189.387 98.6693 189.922 97.9941 190.597C97.319 191.272 96.7832 192.074 96.4174 192.957C96.0515 193.839 95.8627 194.785 95.8619 195.741Z" fill="#FF9C40"/>
        <path d="M84.3698 180.073H244.839V249.008H84.3698V180.073Z" stroke="white" stroke-miterlimit="10"/>
        <path d="M133.309 180.073V249.021" stroke="white" stroke-linecap="round" stroke-linejoin="round"/>
        <path d="M343.099 162.13L289.115 150.812L188.198 97.129L190.704 91.3291L244.748 102.506L345.665 156.189L343.099 162.13Z" stroke="white" stroke-linecap="round" stroke-linejoin="round"/>
        <path d="M190.704 91.3291L291.789 144.435L345.665 156.189L291.789 144.435L289.115 150.812" stroke="white" stroke-linecap="round" stroke-linejoin="round"/>
        <path d="M294.885 129.069L247.448 121.147" stroke="white" stroke-miterlimit="10"/>
        <path d="M222.762 98.1558L318.305 150.342L315.631 156.518" stroke="white" stroke-miterlimit="10"/>
        <path d="M248.44 121.349L245.727 127.632" stroke="white" stroke-miterlimit="10"/>
        <path d="M276.343 132.58C276.343 132.58 272.075 127.21 272.322 125.363C272.57 123.517 281.382 101.935 276.343 86.1333" stroke="white" stroke-miterlimit="10"/>
        <path d="M272.302 125.363C272.302 125.363 253.975 113.314 257.473 101.277C260.971 89.2411 280.819 104.909 272.302 125.363Z" stroke="white" stroke-miterlimit="10"/>
        <path d="M272.302 125.364C272.302 125.364 285.838 126.907 290.73 116.388C295.622 105.869 279.807 107.212 276.571 114.69C273.334 122.168 272.302 125.364 272.302 125.364Z" stroke="white" stroke-miterlimit="10"/>
        <path d="M155.209 130.881L152.877 25.999" stroke="white" stroke-miterlimit="10" stroke-linecap="round"/>
        <path d="M146.873 170.293L90.8593 153.927" stroke="white" stroke-miterlimit="10" stroke-linecap="round"/>
        <path d="M127.869 129.21L73.1889 58.0664" stroke="white" stroke-miterlimit="10" stroke-linecap="round"/>
        <path d="M177.55 163.949L228.229 133.217" stroke="white" stroke-miterlimit="10" stroke-linecap="round"/>
        <path d="M48.9639 144.16C48.9639 144.16 37.9742 142.992 42.417 130.808C37.9742 138.071 37.2706 139.246 29.7923 137.366C35.1531 142.522 37.2706 142.287 35.401 150.953C39.8438 144.864 38.6778 142.757 48.9639 144.16Z" stroke="white" stroke-linecap="round" stroke-linejoin="round"/>
        <path d="M181.872 56.6432C181.872 56.6432 176.417 56.0659 178.622 50.0176C176.417 53.6224 176.069 54.1997 172.357 53.2733C175.037 55.8309 176.069 55.7168 175.138 59.9862C177.342 56.9923 176.766 55.9451 181.872 56.6432Z" stroke="white" stroke-linecap="round" stroke-linejoin="round"/>
        <path d="M130.717 50.9978C130.717 50.9978 127.072 43.7344 136.346 41.64C130.1 41.781 129.102 41.8145 127.279 36.4375C126.247 41.8078 127.226 43.0229 121.141 45.3119C126.696 45.6409 127.5 44.0768 130.717 50.9978Z" fill="white"/>
        <path d="M216.074 132.231C216.074 132.231 216.409 127.592 221.575 129.284C218.466 127.518 217.97 127.27 218.647 124.068C216.563 126.404 216.69 127.283 213.031 126.619C215.645 128.404 216.489 127.881 216.074 132.231Z" fill="white"/>
        <path d="M164.221 9.51869C161.69 9.51869 159.638 7.46295 159.638 4.92707C159.638 2.39119 161.69 0.335449 164.221 0.335449C166.753 0.335449 168.805 2.39119 168.805 4.92707C168.805 7.46295 166.753 9.51869 164.221 9.51869Z" stroke="#FE9B3E" stroke-miterlimit="10"/>
        <path d="M94.4439 47.7692C91.9125 47.7692 89.8604 45.7134 89.8604 43.1776C89.8604 40.6417 91.9125 38.5859 94.4439 38.5859C96.9752 38.5859 99.0273 40.6417 99.0273 43.1776C99.0273 45.7134 96.9752 47.7692 94.4439 47.7692Z" stroke="white" stroke-miterlimit="10"/>
        <path d="M71.7612 95.1217C69.2298 95.1217 67.1777 93.066 67.1777 90.5301C67.1777 87.9942 69.2298 85.9385 71.7612 85.9385C74.2926 85.9385 76.3447 87.9942 76.3447 90.5301C76.3447 93.066 74.2926 95.1217 71.7612 95.1217Z" stroke="#FE9B3E" stroke-miterlimit="10"/>
        <path d="M48.6765 98.8139C47.6921 98.8139 46.8941 98.0145 46.8941 97.0283C46.8941 96.0421 47.6921 95.2427 48.6765 95.2427C49.6609 95.2427 50.459 96.0421 50.459 97.0283C50.459 98.0145 49.6609 98.8139 48.6765 98.8139Z" stroke="white" stroke-miterlimit="10"/>
        <path d="M195.938 47.8429C193.407 47.8429 191.355 45.7872 191.355 43.2513C191.355 40.7154 193.407 38.6597 195.938 38.6597C198.469 38.6597 200.521 40.7154 200.521 43.2513C200.521 45.7872 198.469 47.8429 195.938 47.8429Z" stroke="white" stroke-miterlimit="10"/>
        <path d="M220.403 150.617C219.419 150.617 218.621 149.818 218.621 148.832C218.621 147.845 219.419 147.046 220.403 147.046C221.388 147.046 222.186 147.845 222.186 148.832C222.186 149.818 221.388 150.617 220.403 150.617Z" stroke="white" stroke-miterlimit="10"/>
        <path d="M199.114 165.802C197.045 165.802 195.368 164.122 195.368 162.049C195.368 159.977 197.045 158.297 199.114 158.297C201.182 158.297 202.859 159.977 202.859 162.049C202.859 164.122 201.182 165.802 199.114 165.802Z" fill="#FE9B3E"/>
        <path d="M3.74633 89.1608C1.67754 89.1608 0.000442028 87.4807 0.000442028 85.4083C0.000442028 83.3358 1.67754 81.6558 3.74633 81.6558C5.81511 81.6558 7.49219 83.3358 7.49219 85.4083C7.49219 87.4807 5.81511 89.1608 3.74633 89.1608Z" fill="#FE9B3E"/>
        <path d="M131.339 81.3C128.993 81.3 127.091 79.3946 127.091 77.0441C127.091 74.6935 128.993 72.7881 131.339 72.7881C133.686 72.7881 135.588 74.6935 135.588 77.0441C135.588 79.3946 133.686 81.3 131.339 81.3Z" fill="white"/>
        <path d="M94.6718 65.8199C93.9242 65.8199 93.3182 65.2128 93.3182 64.4639C93.3182 63.715 93.9242 63.1079 94.6718 63.1079C95.4194 63.1079 96.0254 63.715 96.0254 64.4639C96.0254 65.2128 95.4194 65.8199 94.6718 65.8199Z" fill="#FE9B3E"/>
        <path d="M85.364 120.57C84.3796 120.57 83.5816 119.771 83.5816 118.785C83.5816 117.798 84.3796 116.999 85.364 116.999C86.3484 116.999 87.1465 117.798 87.1465 118.785C87.1465 119.771 86.3484 120.57 85.364 120.57Z" fill="white"/>
        <path d="M225.798 211.517H331.58V272.692H225.798V211.517Z" fill="white"/>
        <path d="M331.62 234.112H225.858" stroke="#FE7B01" stroke-linecap="round" stroke-linejoin="round"/>
        <path d="M257.508 211.55V272.664" stroke="#FE7B01" stroke-linecap="round" stroke-linejoin="round"/>
        <path d="M257.573 234.112C257.573 234.112 238.026 234.931 238.026 248.881C238.026 262.83 257.573 251.975 257.573 234.112Z" stroke="#FE7B01" stroke-linecap="round" stroke-linejoin="round"/>
        <path d="M257.668 234.112C257.668 234.112 277.215 234.931 277.215 248.881C277.215 262.83 257.668 251.975 257.668 234.112Z" stroke="#FE7B01" stroke-linecap="round" stroke-linejoin="round"/>
        <path d="M257.667 234.112C257.667 234.112 274.138 247.847 263.269 265.227" stroke="#FE7B01" stroke-linecap="round" stroke-linejoin="round"/>
        <path d="M200.15 226.377C200.227 226.377 200.302 226.394 200.371 226.426C200.441 226.459 200.502 226.506 200.55 226.565C200.599 226.624 200.634 226.693 200.653 226.767C200.672 226.841 200.675 226.918 200.661 226.994L200.244 229.186C200.222 229.305 200.158 229.413 200.065 229.49C199.972 229.567 199.855 229.609 199.734 229.609H196.848C196.727 229.609 196.609 229.652 196.516 229.729C196.423 229.806 196.36 229.914 196.337 230.033L195.282 235.818C195.248 236.018 195.227 236.219 195.218 236.421C195.218 237.091 195.513 237.394 196.233 237.457C196.331 237.465 197.96 237.469 198.074 237.469C198.151 237.469 198.227 237.487 198.296 237.52C198.366 237.553 198.427 237.601 198.476 237.66C198.524 237.72 198.559 237.789 198.578 237.864C198.596 237.939 198.598 238.016 198.583 238.092L198.062 240.672C198.039 240.79 197.975 240.896 197.882 240.972C197.789 241.048 197.673 241.089 197.553 241.089H194.933C192.583 241.089 191.123 240.009 191.123 237.755C191.12 237.307 191.163 236.861 191.249 236.421L192.395 230.225C192.409 230.15 192.407 230.073 192.388 229.999C192.369 229.925 192.333 229.856 192.285 229.798C192.236 229.739 192.175 229.691 192.106 229.659C192.037 229.626 191.961 229.61 191.885 229.609H190.488C190.413 229.609 190.34 229.593 190.272 229.561C190.205 229.53 190.145 229.483 190.098 229.426C190.05 229.368 190.016 229.301 189.997 229.229C189.979 229.157 189.976 229.081 189.99 229.008L190.411 226.789C190.433 226.673 190.495 226.569 190.586 226.494C190.677 226.418 190.791 226.377 190.909 226.377H200.15Z" fill="white"/>
        <path d="M165.75 226.375H169.185C169.277 226.375 169.368 226.399 169.447 226.446C169.526 226.492 169.592 226.559 169.637 226.639C169.683 226.719 169.706 226.81 169.705 226.902C169.703 226.994 169.678 227.084 169.63 227.163L162.65 240.793C162.603 240.869 162.538 240.933 162.46 240.977C162.382 241.021 162.294 241.044 162.205 241.044H157.338C157.219 241.044 157.103 241.003 157.011 240.928C156.918 240.853 156.854 240.749 156.829 240.632L154.668 227.002C154.652 226.927 154.653 226.848 154.671 226.773C154.689 226.698 154.723 226.627 154.772 226.567C154.821 226.507 154.882 226.459 154.952 226.425C155.022 226.392 155.099 226.375 155.176 226.375H158.277C158.401 226.375 158.522 226.419 158.616 226.501C158.711 226.583 158.773 226.695 158.791 226.819L160.14 236.874C160.213 237.37 160.552 237.337 160.715 236.999L165.292 226.649C165.337 226.566 165.403 226.497 165.483 226.448C165.564 226.4 165.656 226.375 165.751 226.375" fill="white"/>
        <path d="M176.658 221.575L176.235 223.795C176.213 223.911 176.151 224.016 176.06 224.091C175.969 224.167 175.855 224.208 175.737 224.208H172.685C172.608 224.208 172.533 224.191 172.463 224.158C172.394 224.126 172.333 224.078 172.284 224.019C172.236 223.96 172.2 223.891 172.181 223.817C172.162 223.743 172.16 223.666 172.174 223.59L172.593 221.396C172.615 221.277 172.679 221.17 172.772 221.093C172.865 221.015 172.982 220.973 173.103 220.973H176.161C176.235 220.973 176.309 220.99 176.376 221.021C176.444 221.053 176.503 221.099 176.551 221.157C176.599 221.214 176.633 221.282 176.651 221.354C176.67 221.426 176.672 221.502 176.658 221.575" fill="white"/>
        <path d="M168.986 240.425L171.641 226.795C171.664 226.676 171.727 226.57 171.82 226.493C171.913 226.416 172.03 226.374 172.151 226.375H174.997C175.074 226.375 175.149 226.391 175.219 226.424C175.288 226.457 175.349 226.504 175.398 226.564C175.447 226.623 175.482 226.692 175.501 226.766C175.52 226.84 175.522 226.918 175.507 226.993L172.853 240.623C172.83 240.742 172.766 240.848 172.673 240.925C172.58 241.002 172.463 241.044 172.343 241.044H169.496C169.42 241.044 169.344 241.027 169.275 240.994C169.205 240.961 169.144 240.914 169.095 240.855C169.047 240.795 169.012 240.726 168.993 240.652C168.974 240.578 168.971 240.5 168.986 240.425" fill="white"/>
        <path d="M177.075 236.65C177.154 236.537 177.274 236.46 177.409 236.435C177.544 236.41 177.684 236.44 177.797 236.518C179.332 237.573 180.825 238.186 182.105 238.186C183.089 238.186 183.661 237.774 183.661 237.138C183.661 235.648 177.677 234.369 177.65 230.343C177.632 227.675 179.734 225.898 182.973 225.898C184.78 225.898 186.559 226.379 188.313 227.293C188.374 227.325 188.429 227.369 188.474 227.423C188.518 227.476 188.551 227.538 188.572 227.605C188.592 227.671 188.598 227.741 188.591 227.811C188.584 227.88 188.563 227.947 188.529 228.008L187.446 230.09C187.413 230.15 187.368 230.202 187.314 230.245C187.26 230.287 187.198 230.319 187.132 230.337C187.066 230.356 186.997 230.361 186.929 230.353C186.86 230.344 186.795 230.323 186.735 230.289C185.466 229.578 184.189 229.2 183.195 229.2C182.243 229.2 181.619 229.581 181.619 230.248C181.619 231.989 187.693 233.232 187.693 236.948C187.693 239.901 185.629 241.52 182.137 241.52C179.712 241.52 177.689 240.919 175.87 239.56C175.762 239.479 175.689 239.36 175.667 239.227C175.645 239.093 175.676 238.957 175.752 238.846L177.075 236.65Z" fill="white"/>
        <path d="M188.87 221.575L188.447 223.795C188.425 223.911 188.363 224.016 188.272 224.091C188.182 224.167 188.067 224.208 187.949 224.208H180.208C180.133 224.208 180.059 224.191 179.992 224.16C179.924 224.128 179.865 224.081 179.817 224.024C179.77 223.966 179.736 223.899 179.717 223.827C179.699 223.755 179.696 223.679 179.71 223.606L180.134 221.385C180.156 221.269 180.217 221.165 180.308 221.09C180.399 221.014 180.513 220.973 180.631 220.973H188.373C188.447 220.973 188.521 220.99 188.589 221.021C188.656 221.053 188.716 221.099 188.763 221.157C188.811 221.214 188.845 221.282 188.864 221.354C188.882 221.426 188.884 221.502 188.87 221.575" fill="white"/>
        <path d="M201.075 221.578L200.651 223.799C200.629 223.915 200.567 224.019 200.476 224.095C200.386 224.17 200.271 224.211 200.153 224.211H193.62C193.545 224.211 193.472 224.195 193.404 224.163C193.337 224.131 193.277 224.085 193.23 224.027C193.182 223.97 193.148 223.903 193.129 223.83C193.111 223.758 193.108 223.683 193.122 223.609L193.546 221.388C193.568 221.273 193.63 221.168 193.721 221.093C193.812 221.018 193.926 220.977 194.044 220.977H200.577C200.652 220.977 200.725 220.993 200.793 221.025C200.86 221.057 200.92 221.103 200.968 221.16C201.015 221.218 201.049 221.285 201.068 221.357C201.086 221.43 201.089 221.505 201.075 221.578" fill="white"/>
        <path d="M141.837 236.672C141.915 236.559 142.035 236.482 142.17 236.457C142.306 236.433 142.445 236.463 142.558 236.541C144.094 237.596 145.587 238.209 146.867 238.209C147.851 238.209 148.422 237.796 148.422 237.161C148.422 235.671 142.438 234.392 142.411 230.366C142.393 227.698 144.496 225.92 147.734 225.92C149.541 225.92 151.321 226.402 153.074 227.315C153.136 227.347 153.191 227.392 153.235 227.445C153.28 227.499 153.313 227.561 153.333 227.627C153.353 227.694 153.36 227.764 153.353 227.833C153.346 227.902 153.325 227.969 153.291 228.03L152.208 230.112C152.174 230.172 152.129 230.225 152.076 230.267C152.022 230.31 151.96 230.341 151.894 230.36C151.828 230.378 151.759 230.384 151.69 230.375C151.622 230.367 151.556 230.345 151.497 230.311C150.228 229.601 148.95 229.223 147.957 229.223C147.004 229.223 146.38 229.603 146.38 230.27C146.38 232.011 152.455 233.255 152.455 236.97C152.455 239.923 150.391 241.543 146.899 241.543C144.474 241.543 142.451 240.942 140.631 239.583C140.523 239.502 140.451 239.382 140.429 239.249C140.407 239.116 140.438 238.979 140.514 238.868L141.837 236.672Z" fill="white"/>
    </g>
    <defs>
        <clipPath id="clip0_1436_204">
            <rect width="346" height="273" fill="white" transform="matrix(-1 0 0 1 346 0)"/>
        </clipPath>
    </defs>
</svg>
