<svg width="96" height="80" viewBox="0 0 96 80" fill="none" xmlns="http://www.w3.org/2000/svg">
    <path d="M95.7768 14.8821L85.2285 69.8125C84.6786 72.6779 83.1397 75.263 80.8772 77.1226C78.6147 78.9822 75.7702 79.9997 72.8336 80H12.618C10.7606 79.9995 8.92616 79.5918 7.24562 78.806C5.56509 78.0201 4.07986 76.8755 2.89597 75.4539C1.71207 74.0322 0.858687 72.3685 0.396675 70.5815C-0.0653363 68.7945 -0.124574 66.9282 0.2232 65.1158L10.7716 10.1854C11.3219 7.32023 12.8611 4.73545 15.1237 2.87628C17.3864 1.01711 20.231 -5.705e-05 23.1675 2.39991e-09H83.382C85.2394 0.000492826 87.0739 0.408202 88.7544 1.19404C90.435 1.97987 91.9201 3.12446 93.104 4.54613C94.2879 5.9678 95.1413 7.63149 95.6033 9.41851C96.0653 11.2055 96.1246 13.0718 95.7768 14.8842" fill="#02C775"/>
    <g clip-path="url(#clip0_3_19)">
        <path d="M65.483 40.5172C65.3103 38.2353 65.1601 36.3184 65.115 35.7783V35.6414C64.7634 32.5911 64.0836 29.5889 63.0874 26.6884C62.9316 26.2497 62.9505 25.7669 63.1399 25.342C63.3283 24.9139 63.6727 24.5759 64.1012 24.3988C66.8198 23.2958 68.1866 20.5955 65.7008 18.0321C63.6206 15.8946 61.1273 17.6365 59.8581 18.846C59.5856 19.1002 59.2418 19.2623 58.8743 19.31C58.5088 19.3601 58.1368 19.2965 57.8079 19.1274L53.1668 16.6705H53.1217C53.1175 16.6504 53.1175 16.6297 53.1217 16.6096C53.1184 16.5895 53.1184 16.5689 53.1217 16.5488L53.1668 16.5107C53.9178 16.2597 55.8779 15.4382 54.2707 14.5102C52.9114 13.7495 51.1842 14.6167 50.2605 15.2252C50.2385 15.2322 50.2149 15.2322 50.1929 15.2252C50.1711 15.2334 50.1471 15.2334 50.1253 15.2252C50.1173 15.2031 50.1173 15.1788 50.1253 15.1568C50.1188 15.1344 50.1188 15.1106 50.1253 15.0883C50.7186 14.2211 51.432 12.6998 49.6221 12.1597C47.4968 11.536 45.2964 14.1679 44.5755 15.1339L44.5154 15.172C44.4935 15.1795 44.4698 15.1795 44.4478 15.172C44.4305 15.1754 44.4126 15.1754 44.3953 15.172C44.3888 15.1496 44.3888 15.1258 44.3953 15.1035C44.4403 14.4721 44.3953 13.3464 43.404 13.392C41.7067 13.4833 41.1961 15.2176 40.9182 16.602C40.8562 16.9262 40.7198 17.231 40.5201 17.492C40.3205 17.7595 40.0638 17.9779 39.7692 18.1309C39.1542 18.4714 38.5732 18.8713 38.0344 19.3252C37.6735 19.613 37.2172 19.7491 36.7599 19.7052C36.3027 19.6612 35.8797 19.4408 35.5787 19.0894C33.6486 16.8074 30.7949 16.8074 29.4956 19.3708C28.1964 21.9343 29.7059 23.2882 31.9288 24.5053C32.3106 24.7241 32.5988 25.0785 32.7375 25.5001C32.8762 25.9216 32.8557 26.3802 32.6798 26.7873C31.4933 29.7767 31.0878 35.0481 30.9751 39.7186V40.213C30.9687 40.5887 30.9813 40.9644 31.0127 41.3388C31.1704 43.8338 31.3581 46.3211 31.4557 48.8313C31.7561 56.05 32.3644 63.7783 33.6486 65.6039C36.202 69.2095 38.2221 68.2054 39.8893 67.1252C40.9032 66.4559 40.9783 64.6531 40.8806 63.3219C40.8589 62.894 41.0015 62.4742 41.2786 62.1505C41.5555 61.8295 41.9416 61.6258 42.3601 61.58L55.5324 59.7696C55.9474 59.7076 56.3706 59.7987 56.7249 60.0263C57.0791 60.2539 57.3409 60.6028 57.4624 61.0095C57.9205 62.721 59.1672 65.3377 62.4716 65.3377C67.3905 65.3377 66.4218 55.0916 66.2265 51.6458C66.1589 49.4855 65.7834 44.3966 65.483 40.5172ZM46.7083 31.6936C46.7059 31.8924 46.6651 32.0888 46.5881 32.2717C46.4357 32.6434 46.1441 32.9388 45.7771 33.0932C45.5932 33.1682 45.397 33.2069 45.1988 33.2073C45.0005 33.2083 44.804 33.1695 44.6206 33.0932C44.4377 33.0187 44.2716 32.9074 44.1324 32.7661C43.9911 32.625 43.8788 32.457 43.802 32.2717C43.7276 32.0882 43.6893 31.8919 43.6893 31.6936V31.5871C43.727 31.3988 43.727 31.2048 43.6893 31.0166C43.6416 30.8285 43.5516 30.6541 43.4265 30.5069C43.3062 30.3553 43.1517 30.2353 42.9759 30.157C42.8026 30.0722 42.6126 30.0281 42.4202 30.0281C42.2277 30.0281 42.0377 30.0722 41.8644 30.157C41.6887 30.2353 41.5341 30.3553 41.4138 30.5069C41.2914 30.6559 41.2018 30.8297 41.151 31.0166C41.1134 31.2048 41.1134 31.3988 41.151 31.5871V31.6784C41.1622 31.884 41.132 32.0899 41.0623 32.2834C40.9925 32.4769 40.8848 32.6541 40.7455 32.8041C40.6028 32.9559 40.4317 33.0774 40.2423 33.1617C39.9585 33.2853 39.6441 33.3173 39.3417 33.2533C39.0393 33.1893 38.7637 33.0325 38.5526 32.8041C38.4091 32.6575 38.299 32.481 38.2296 32.2869C38.1626 32.0915 38.132 31.8851 38.1395 31.6784V31.5718C38.1485 30.429 38.6018 29.3358 39.4012 28.5292C40.2113 27.7158 41.3058 27.2595 42.4464 27.2595C43.5871 27.2595 44.6816 27.7158 45.4917 28.5292C46.2938 29.3339 46.7477 30.4283 46.7534 31.5718L46.7083 31.6936ZM57.9356 31.6936C57.9332 31.8924 57.8924 32.0888 57.8154 32.2717C57.663 32.6434 57.3714 32.9388 57.0043 33.0932C56.8205 33.1682 56.6242 33.2069 56.4261 33.2073C56.2278 33.2083 56.0313 33.1695 55.8478 33.0932C55.6655 33.0176 55.4996 32.9065 55.3597 32.7661C55.2184 32.625 55.1061 32.457 55.0292 32.2717C54.9549 32.0882 54.9166 31.8919 54.9166 31.6936V31.5871C54.9579 31.4018 54.9579 31.2095 54.9166 31.0242C54.8705 30.8355 54.7803 30.6607 54.6537 30.5145C54.5319 30.3697 54.3808 30.2529 54.2107 30.1722C54.0374 30.0921 53.8491 30.0507 53.6587 30.0507C53.4682 30.0507 53.28 30.0921 53.1067 30.1722C52.9354 30.2547 52.7823 30.3711 52.6561 30.5145C52.5346 30.663 52.4473 30.8371 52.4008 31.0242C52.3595 31.2095 52.3595 31.4018 52.4008 31.5871V31.6784C52.3991 32.0812 52.2398 32.4669 51.9577 32.7509C51.8181 32.8935 51.652 33.0067 51.4689 33.0839C51.2859 33.1611 51.0896 33.2009 50.8913 33.2009C50.693 33.2009 50.4967 33.1611 50.3137 33.0839C50.1307 33.0067 49.9645 32.8935 49.8249 32.7509C49.5428 32.4669 49.3835 32.0812 49.3818 31.6784V31.5718C49.3818 30.4139 49.836 29.3033 50.6444 28.4845C51.4528 27.6657 52.5492 27.2056 53.6925 27.2056C54.8358 27.2056 55.9322 27.6657 56.7406 28.4845C57.549 29.3033 58.0032 30.4139 58.0032 31.5718L57.9356 31.6936Z" fill="white"/>
    </g>
    <defs>
        <clipPath id="clip0_3_19">
            <rect width="38" height="56" fill="white" transform="translate(29 12)"/>
        </clipPath>
    </defs>
</svg>
