<svg width="20" height="20" viewBox="0 0 20 20" fill="none" xmlns="http://www.w3.org/2000/svg">
    <path d="M19.8055 8.0415H19V8H10V12H15.6515C14.827 14.3285 12.6115 16 10 16C6.6865 16 4 13.3135 4 10C4 6.6865 6.6865 4 10 4C11.5295 4 12.921 4.577 13.9805 5.5195L16.809 2.691C15.023 1.0265 12.634 0 10 0C4.4775 0 0 4.4775 0 10C0 15.5225 4.4775 20 10 20C15.5225 20 20 15.5225 20 10C20 9.3295 19.931 8.675 19.8055 8.0415Z" fill="white" fill-opacity="0.5"/>
    <path d="M1.15283 5.3455L4.43833 7.755C5.32733 5.554 7.48033 4 9.99983 4C11.5293 4 12.9208 4.577 13.9803 5.5195L16.8088 2.691C15.0228 1.0265 12.6338 0 9.99983 0C6.15883 0 2.82783 2.1685 1.15283 5.3455Z" fill="white"/>
    <path d="M10.0002 19.9994C12.5832 19.9994 14.9302 19.0109 16.7047 17.4034L13.6097 14.7844C12.6057 15.5449 11.3577 15.9994 10.0002 15.9994C7.39916 15.9994 5.19066 14.3409 4.35866 12.0264L1.09766 14.5389C2.75266 17.7774 6.11366 19.9994 10.0002 19.9994Z" fill="white" fill-opacity="0.5"/>
    <path d="M19.8055 8.04101L19.7975 7.99951H19H10V11.9995H15.6515C15.2555 13.118 14.536 14.0825 13.608 14.785C13.6085 14.7845 13.609 14.7845 13.6095 14.784L16.7045 17.403C16.4855 17.602 20 14.9995 20 9.99951C20 9.32901 19.931 8.67451 19.8055 8.04101Z" fill="white"/>
</svg>
