<svg width="185" height="48" viewBox="0 0 185 48" fill="none" xmlns="http://www.w3.org/2000/svg">
    <g >
        <mask id="path-1-inside-1_2_1877" fill="red">
            <path d="M206.867 8.92925L200.586 41.8875C200.259 43.6067 199.342 45.1578 197.995 46.2735C196.648 47.3893 194.954 47.9998 193.206 48H7.5134C6.40738 47.9997 5.31507 47.7551 4.3144 47.2836C3.31372 46.8121 2.42935 46.1253 1.7244 45.2723C1.01945 44.4193 0.511304 43.4211 0.2362 42.3489C-0.038904 41.2767 -0.0741777 40.1569 0.132904 39.0695L6.41391 6.11121C6.74164 4.39214 7.6581 2.84127 9.00541 1.72577C10.3527 0.610264 12.0465 -3.423e-05 13.795 1.43995e-09H199.487C200.593 0.000295695 201.685 0.244921 202.686 0.716422C203.686 1.18792 204.571 1.87468 205.276 2.72768C205.981 3.58068 206.489 4.5789 206.764 5.65111C207.039 6.72332 207.074 7.84309 206.867 8.93051"/>
        </mask>
        <path d="M200.586 41.8875L199.113 41.6067L199.113 41.6069L200.586 41.8875ZM193.206 48V49.5H193.206L193.206 48ZM7.5134 48L7.513 49.5H7.5134V48ZM0.132904 39.0695L-1.34058 38.7887L-1.34062 38.7889L0.132904 39.0695ZM6.41391 6.11121L4.94045 5.83031L4.94043 5.8304L6.41391 6.11121ZM13.795 1.43995e-09L13.795 1.5H13.795V1.43995e-09ZM199.487 1.43995e-09L199.487 -1.5H199.487V1.43995e-09ZM205.394 8.64844L199.113 41.6067L202.06 42.1683L208.341 9.21006L205.394 8.64844ZM199.113 41.6069C198.85 42.9835 198.117 44.2252 197.038 45.1183L198.952 47.4288C200.568 46.0904 201.667 44.23 202.06 42.1682L199.113 41.6069ZM197.038 45.1183C195.96 46.0113 194.605 46.4999 193.205 46.5L193.206 49.5C195.304 49.4998 197.336 48.7672 198.952 47.4288L197.038 45.1183ZM193.206 46.5H7.5134V49.5H193.206V46.5ZM7.5138 46.5C6.62874 46.4998 5.75461 46.304 4.95375 45.9267L3.67504 48.6405C4.87553 49.2062 6.18603 49.4996 7.513 49.5L7.5138 46.5ZM4.95375 45.9267C4.15289 45.5493 3.44499 44.9996 2.88065 44.3168L0.568156 46.2279C1.41371 47.251 2.47456 48.0748 3.67504 48.6405L4.95375 45.9267ZM2.88065 44.3168C2.3163 43.6339 1.90943 42.8347 1.68914 41.9761L-1.21674 42.7217C-0.886819 44.0075 -0.277398 45.2048 0.568156 46.2279L2.88065 44.3168ZM1.68914 41.9761C1.46885 41.1175 1.4406 40.2209 1.60642 39.3501L-1.34062 38.7889C-1.58896 40.093 -1.54666 41.4358 -1.21674 42.7217L1.68914 41.9761ZM1.60639 39.3503L7.88739 6.39202L4.94043 5.8304L-1.34058 38.7887L1.60639 39.3503ZM7.88737 6.39212C8.1498 5.01559 8.88359 3.77403 9.96201 2.88115L8.04881 0.570383C6.43261 1.90851 5.33348 3.76868 4.94045 5.83031L7.88737 6.39212ZM9.96201 2.88115C11.0404 1.9883 12.3959 1.49997 13.795 1.5L13.7951 -1.5C11.6971 -1.50004 9.66503 -0.767775 8.04881 0.570383L9.96201 2.88115ZM13.795 1.5H199.487V-1.5H13.795V1.5ZM199.486 1.5C200.371 1.50024 201.245 1.69599 202.046 2.07334L203.325 -0.640494C202.124 -1.20615 200.814 -1.49965 199.487 -1.5L199.486 1.5ZM202.046 2.07334C202.847 2.45069 203.555 3.00036 204.119 3.68324L206.432 1.77212C205.586 0.748994 204.525 -0.0748398 203.325 -0.640494L202.046 2.07334ZM204.119 3.68324C204.684 4.36611 205.091 5.16533 205.311 6.0239L208.217 5.27832C207.887 3.99247 207.277 2.79525 206.432 1.77212L204.119 3.68324ZM205.311 6.0239C205.531 6.88247 205.559 7.77915 205.394 8.6499L208.341 9.21112C208.589 7.90703 208.547 6.56416 208.217 5.27832L205.311 6.0239Z" fill="white" mask="url(#path-1-inside-1_2_1877)"/>
    </g>
</svg>
