<svg width="366" height="227" viewBox="0 0 366 227" fill="none" xmlns="http://www.w3.org/2000/svg">
    <path d="M365.503 42.2279L342.025 198.093C340.801 206.224 337.376 213.559 332.34 218.835C327.304 224.112 320.972 226.999 314.436 227H-44.9147C-49.049 226.999 -53.1321 225.842 -56.8727 223.612C-60.6132 221.382 -63.919 218.134 -66.5541 214.1C-69.1893 210.066 -71.0887 205.346 -72.1171 200.275C-73.1454 195.204 -73.2773 189.909 -72.5032 184.766L-49.0246 28.9009C-47.7996 20.7711 -44.3738 13.4368 -39.3375 8.16144C-34.3013 2.88604 -27.9698 -0.000161879 -21.4337 6.80974e-09H337.915C342.049 0.00139839 346.132 1.15827 349.873 3.38808C353.613 5.61789 356.919 8.86566 359.554 12.8996C362.189 16.9336 364.089 21.6544 365.117 26.725C366.145 31.7957 366.277 37.0913 365.503 42.2339" fill="#F7F7F7"/>
</svg>
