<svg width="282" height="48" viewBox="0 0 282 48" fill="none" xmlns="http://www.w3.org/2000/svg">
    <path d="M281.867 8.92925L275.586 41.8875C275.259 43.6067 274.342 45.1578 272.995 46.2735C271.648 47.3893 269.954 47.9998 268.206 48H7.5134C6.40738 47.9997 5.31507 47.7551 4.3144 47.2836C3.31372 46.8121 2.42935 46.1253 1.7244 45.2723C1.01945 44.4193 0.511304 43.4211 0.2362 42.3489C-0.038904 41.2767 -0.0741777 40.1569 0.132904 39.0695L6.41391 6.11121C6.74164 4.39214 7.6581 2.84127 9.00541 1.72577C10.3527 0.610264 12.0465 -3.423e-05 13.795 1.43995e-09H274.487C275.593 0.000295695 276.685 0.244921 277.686 0.716422C278.686 1.18792 279.571 1.87468 280.276 2.72768C280.981 3.58068 281.489 4.5789 281.764 5.65111C282.039 6.72332 282.074 7.84309 281.867 8.93051" fill="#FE7B01"/>
</svg>
