<svg width="150" height="51" viewBox="0 0 150 51" fill="none" xmlns="http://www.w3.org/2000/svg">
    <path d="M147.692 13.3965C147.881 13.3964 148.068 13.4382 148.239 13.5189C148.41 13.5996 148.561 13.7171 148.682 13.8632C148.802 14.0092 148.889 14.1801 148.936 14.3637C148.984 14.5473 148.99 14.7391 148.954 14.9254L147.925 20.362C147.869 20.6569 147.713 20.9231 147.482 21.1145C147.252 21.306 146.962 21.4107 146.662 21.4107H139.527C139.227 21.4106 138.937 21.5156 138.706 21.7075C138.476 21.8995 138.319 22.1662 138.264 22.4616L135.654 36.8046C135.571 37.2993 135.519 37.7987 135.497 38.2999C135.497 39.9614 136.226 40.711 138.007 40.8666C138.25 40.888 142.276 40.8986 142.558 40.8986C142.748 40.8987 142.936 40.9411 143.108 41.0228C143.28 41.1045 143.431 41.2235 143.552 41.3712C143.672 41.5188 143.759 41.6915 143.804 41.8766C143.85 42.0618 143.855 42.2549 143.817 42.4419L142.53 48.84C142.471 49.1315 142.313 49.3937 142.084 49.5821C141.854 49.7704 141.567 49.8734 141.27 49.8736H134.79C128.98 49.8736 125.369 47.196 125.369 41.607C125.364 40.497 125.469 39.3893 125.683 38.3002L128.516 22.9383C128.551 22.7523 128.545 22.5607 128.498 22.3773C128.451 22.194 128.364 22.0233 128.243 21.8774C128.123 21.7316 127.972 21.6142 127.801 21.5336C127.63 21.4529 127.443 21.4111 127.255 21.411H123.8C123.616 21.411 123.434 21.3702 123.267 21.2915C123.101 21.2128 122.953 21.0981 122.836 20.9557C122.718 20.8133 122.633 20.6467 122.587 20.4677C122.541 20.2887 122.535 20.1017 122.57 19.9201L123.611 14.419C123.665 14.1315 123.818 13.8721 124.043 13.6855C124.267 13.4988 124.55 13.3966 124.842 13.3965H147.692Z" fill="white"/>
    <path d="M62.6298 13.3905H71.1229C71.3504 13.3905 71.5739 13.4512 71.7704 13.5663C71.9669 13.6814 72.1294 13.8467 72.2413 14.0454C72.3532 14.2441 72.4105 14.469 72.4073 14.6972C72.4041 14.9253 72.3406 15.1485 72.2231 15.344L54.9623 49.1381C54.8479 49.3279 54.6865 49.4849 54.4939 49.5939C54.3012 49.7029 54.0838 49.7602 53.8626 49.7602H41.8275C41.5331 49.7603 41.2476 49.6591 41.0188 49.4735C40.7899 49.2878 40.6315 49.029 40.5702 48.7403L35.2252 14.9465C35.1855 14.7588 35.1881 14.5645 35.2329 14.3779C35.2776 14.1913 35.3633 14.0171 35.4838 13.868C35.6043 13.7188 35.7564 13.5986 35.9292 13.516C36.1019 13.4333 36.2909 13.3905 36.4823 13.3905H44.1495C44.4579 13.3904 44.7561 13.5017 44.9896 13.7039C45.223 13.9061 45.3761 14.1858 45.4208 14.4918L48.757 39.4221C48.9374 40.652 49.7767 40.5689 50.1791 39.7324L61.497 14.0717C61.6066 13.8658 61.7698 13.6936 61.9694 13.5736C62.169 13.4535 62.3974 13.3901 62.6301 13.3901" fill="white"/>
    <path d="M89.6038 1.49152L88.5564 6.9975C88.502 7.28492 88.3494 7.54431 88.1247 7.73095C87.9001 7.9176 87.6176 8.01981 87.3258 8.01997H79.7785C79.5892 8.01995 79.4023 7.97804 79.2311 7.89722C79.0599 7.81641 78.9086 7.69868 78.788 7.55245C78.6674 7.40622 78.5805 7.23509 78.5335 7.05128C78.4865 6.86748 78.4805 6.67553 78.516 6.48915L79.551 1.04739C79.607 0.752848 79.7637 0.487115 79.9941 0.295941C80.2244 0.104766 80.5141 0.000113506 80.8131 0L88.3732 0C88.5576 7.15005e-05 88.7397 0.0409513 88.9066 0.119723C89.0734 0.198495 89.2209 0.313217 89.3384 0.455706C89.4559 0.598194 89.5407 0.764938 89.5865 0.944041C89.6324 1.12314 89.6383 1.31019 89.6038 1.49184" fill="white"/>
    <path d="M70.6315 48.2267L77.1956 14.4326C77.2526 14.1391 77.4096 13.8746 77.6398 13.6845C77.87 13.4944 78.1589 13.3905 78.4571 13.3906H85.4956C85.685 13.3906 85.8721 13.4327 86.0435 13.5137C86.2149 13.5947 86.3663 13.7127 86.4868 13.8593C86.6074 14.0059 86.6941 14.1774 86.7408 14.3615C86.7876 14.5456 86.7931 14.7378 86.7571 14.9243L80.193 48.7184C80.1359 49.0118 79.9788 49.2761 79.7488 49.4662C79.5187 49.6562 79.2299 49.7602 78.9318 49.7604H71.8934C71.7039 49.7604 71.5168 49.7183 71.3454 49.6373C71.174 49.5563 71.0227 49.4383 70.9021 49.2917C70.7815 49.1451 70.6948 48.9736 70.6481 48.7895C70.6014 48.6054 70.5958 48.4132 70.6319 48.2267" fill="white"/>
    <path d="M90.6346 38.8674C90.8287 38.5876 91.1254 38.3962 91.4598 38.3353C91.7943 38.2743 92.1391 38.3487 92.419 38.5421C96.215 41.1574 99.9071 42.6777 103.072 42.6777C105.505 42.6777 106.919 41.6552 106.919 40.0794C106.919 36.3844 92.1217 33.2135 92.0551 23.2317C92.0108 16.6176 97.2101 12.2104 105.218 12.2104C109.686 12.2104 114.086 13.4035 118.422 15.6689C118.574 15.7486 118.71 15.858 118.819 15.9908C118.929 16.1236 119.012 16.2771 119.062 16.4423C119.112 16.6074 119.128 16.781 119.11 16.9526C119.093 17.1243 119.041 17.2907 118.958 17.442L116.279 22.6029C116.196 22.7515 116.085 22.8823 115.952 22.9877C115.818 23.0932 115.666 23.1711 115.502 23.217C115.339 23.263 115.168 23.276 114.999 23.2555C114.831 23.2349 114.668 23.1811 114.52 23.0972C111.382 21.3356 108.224 20.3978 105.768 20.3978C103.412 20.3978 101.869 21.342 101.869 22.9956C101.869 27.3116 116.89 30.3944 116.89 39.6068C116.89 46.9283 111.787 50.9434 103.151 50.9434C97.1547 50.9434 92.1523 49.4535 87.654 46.0838C87.3865 45.8834 87.2069 45.5869 87.1528 45.2566C87.0987 44.9262 87.1744 44.5876 87.3641 44.312L90.6346 38.8674Z" fill="white"/>
    <path d="M119.798 1.49152L118.75 6.9975C118.696 7.28492 118.543 7.54428 118.319 7.73091C118.094 7.91754 117.811 8.01976 117.52 8.01997H98.3771C98.1926 8.01988 98.0104 7.97895 97.8436 7.9001C97.6767 7.82125 97.5292 7.70643 97.4117 7.56383C97.2942 7.42124 97.2095 7.25439 97.1637 7.07519C97.1179 6.89599 97.1122 6.70886 97.1468 6.52717L98.1939 1.02151C98.2485 0.734269 98.4012 0.475103 98.6258 0.288646C98.8505 0.102189 99.1329 0.00011307 99.4245 0L118.567 0C118.751 7.15005e-05 118.933 0.0409513 119.1 0.119723C119.267 0.198495 119.415 0.313217 119.532 0.455706C119.65 0.598194 119.734 0.764938 119.78 0.944041C119.826 1.12314 119.832 1.31019 119.798 1.49184" fill="white"/>
    <path d="M149.978 1.50063L148.93 7.00629C148.876 7.29376 148.723 7.55322 148.499 7.73989C148.274 7.92656 147.991 8.02873 147.699 8.02876H131.544C131.36 8.0287 131.178 7.98781 131.011 7.90902C130.844 7.83023 130.697 7.71548 130.579 7.57295C130.461 7.43042 130.377 7.26364 130.331 7.0845C130.285 6.90535 130.279 6.71827 130.314 6.5366L131.362 1.02966C131.417 0.742589 131.57 0.483584 131.794 0.297246C132.019 0.110907 132.301 0.00889945 132.592 0.00878906H148.747C148.932 0.00886056 149.114 0.0497403 149.281 0.128512C149.448 0.207284 149.595 0.322006 149.713 0.464495C149.83 0.606983 149.915 0.773727 149.961 0.95283C150.007 1.13193 150.013 1.31898 149.978 1.50063" fill="white"/>
    <path d="M3.49855 38.9241C3.69261 38.6442 3.98933 38.4529 4.32376 38.3919C4.65819 38.331 5.00309 38.4053 5.28295 38.5988C9.07894 41.2141 12.771 42.7343 15.9358 42.7343C18.3693 42.7343 19.7825 41.7119 19.7825 40.136C19.7825 36.4411 4.98565 33.2701 4.91906 23.2883C4.87509 16.6742 10.0741 12.2671 18.0819 12.2671C22.5495 12.2671 26.951 13.4602 31.2854 15.7256C31.4382 15.8052 31.5735 15.9146 31.6834 16.0474C31.7934 16.1802 31.8758 16.3337 31.9257 16.4989C31.9757 16.6641 31.9922 16.8376 31.9744 17.0093C31.9565 17.181 31.9046 17.3473 31.8217 17.4986L29.1432 22.6595C29.0605 22.8082 28.9494 22.939 28.816 23.0444C28.6827 23.1498 28.53 23.2277 28.3665 23.2737C28.2031 23.3196 28.0321 23.3327 27.8636 23.3121C27.6951 23.2915 27.5323 23.2377 27.3846 23.1538C24.2466 21.3923 21.0886 20.4545 18.6322 20.4545C16.2767 20.4545 14.7332 21.3987 14.7332 23.0522C14.7332 27.3683 29.754 30.451 29.754 39.6634C29.754 46.9849 24.651 51 16.0148 51C10.0189 51 5.01656 49.5101 0.518287 46.1404C0.250776 45.9401 0.071111 45.6436 0.0170397 45.3132C-0.0370315 44.9828 0.0386998 44.6443 0.228323 44.3687L3.49855 38.9241Z" fill="white"/>
</svg>
