<svg width="71" height="24" viewBox="0 0 71 24" fill="none" xmlns="http://www.w3.org/2000/svg">
    <path d="M69.6937 6.3042C69.783 6.30418 69.8711 6.32385 69.9518 6.36181C70.0326 6.39977 70.104 6.45509 70.1609 6.52381C70.2178 6.59253 70.2588 6.67297 70.281 6.75938C70.3033 6.84578 70.3061 6.93603 70.2895 7.02368L69.8037 9.58211C69.7774 9.72087 69.7035 9.84612 69.5947 9.93621C69.486 10.0263 69.3492 10.0756 69.2079 10.0756H65.8409C65.6994 10.0756 65.5624 10.125 65.4536 10.2153C65.3447 10.3056 65.2709 10.4311 65.2448 10.5701L64.0132 17.3198C63.974 17.5526 63.9493 17.7876 63.9391 18.0235C63.9391 18.8053 64.2832 19.1581 65.1233 19.2313C65.2381 19.2414 67.1382 19.2464 67.271 19.2464C67.3607 19.2464 67.4494 19.2664 67.5305 19.3048C67.6116 19.3433 67.6832 19.3993 67.7401 19.4688C67.7969 19.5382 67.8376 19.6195 67.8593 19.7066C67.8809 19.7938 67.8829 19.8846 67.8652 19.9726L67.2577 22.9835C67.23 23.1207 67.1557 23.244 67.0474 23.3327C66.9391 23.4214 66.8034 23.4698 66.6635 23.4699H63.6057C60.864 23.4699 59.1601 22.2099 59.1601 19.5797C59.1577 19.0574 59.2072 18.5361 59.308 18.0236L60.6449 10.7945C60.6615 10.7069 60.6585 10.6168 60.6363 10.5305C60.614 10.4442 60.573 10.3639 60.5162 10.2952C60.4593 10.2266 60.388 10.1714 60.3074 10.1334C60.2268 10.0955 60.1388 10.0758 60.0496 10.0757H58.4197C58.3327 10.0757 58.2468 10.0565 58.1681 10.0195C58.0894 9.98245 58.0198 9.9285 57.9644 9.86149C57.9089 9.79449 57.8689 9.71607 57.8473 9.63183C57.8256 9.54759 57.8228 9.45961 57.839 9.37415L58.3302 6.78536C58.3559 6.65009 58.428 6.52803 58.534 6.44019C58.6401 6.35236 58.7734 6.30427 58.9111 6.3042H69.6937Z" fill="#FE7B01"/>
    <path d="M29.5544 6.30142H33.5621C33.6695 6.30146 33.775 6.33002 33.8677 6.38417C33.9604 6.43832 34.0371 6.51612 34.0899 6.60962C34.1427 6.70312 34.1697 6.80897 34.1682 6.91634C34.1667 7.02371 34.1367 7.12876 34.0813 7.22074L25.9362 23.1238C25.8822 23.2132 25.8061 23.287 25.7152 23.3383C25.6243 23.3896 25.5217 23.4166 25.4173 23.4166H19.7381C19.5992 23.4167 19.4645 23.369 19.3565 23.2817C19.2485 23.1943 19.1737 23.0725 19.1448 22.9366L16.6226 7.03369C16.6038 6.94534 16.6051 6.85392 16.6262 6.76611C16.6473 6.67829 16.6877 6.5963 16.7446 6.52613C16.8014 6.45595 16.8732 6.39935 16.9548 6.36048C17.0363 6.3216 17.1254 6.30142 17.2158 6.30142H20.8338C20.9794 6.3014 21.1201 6.35375 21.2302 6.44891C21.3404 6.54407 21.4126 6.67569 21.4337 6.81972L23.008 18.5516C23.0931 19.1304 23.4892 19.0913 23.6791 18.6976L29.0198 6.62199C29.0715 6.5251 29.1486 6.44408 29.2428 6.38758C29.3369 6.33109 29.4447 6.30126 29.5545 6.30127" fill="#FE7B01"/>
    <path d="M42.283 0.701893L41.7887 3.29294C41.7631 3.4282 41.691 3.55026 41.585 3.6381C41.479 3.72593 41.3457 3.77403 41.208 3.7741H37.6466C37.5573 3.7741 37.4691 3.75437 37.3883 3.71634C37.3075 3.67831 37.2361 3.62291 37.1792 3.55409C37.1223 3.48528 37.0812 3.40475 37.0591 3.31825C37.0369 3.23175 37.0341 3.14143 37.0508 3.05372L37.5392 0.492889C37.5656 0.354282 37.6396 0.229231 37.7483 0.139266C37.857 0.0493018 37.9937 5.34147e-05 38.1348 0L41.7023 0C41.7893 3.36473e-05 41.8752 0.0192712 41.954 0.0563402C42.0327 0.0934092 42.1023 0.147396 42.1577 0.21445C42.2132 0.281503 42.2532 0.359971 42.2748 0.444254C42.2965 0.528538 42.2993 0.616561 42.283 0.702043" fill="#FE7B01"/>
    <path d="M33.3298 22.6947L36.4272 6.7916C36.4541 6.65349 36.5283 6.52904 36.6369 6.43958C36.7455 6.35012 36.8818 6.30122 37.0225 6.30127H40.3439C40.4333 6.30128 40.5216 6.32106 40.6025 6.35919C40.6833 6.39732 40.7548 6.45286 40.8116 6.52183C40.8685 6.5908 40.9095 6.6715 40.9315 6.75814C40.9536 6.84479 40.9562 6.93524 40.9392 7.02301L37.8417 22.9261C37.8147 23.0642 37.7406 23.1886 37.632 23.278C37.5235 23.3674 37.3872 23.4164 37.2466 23.4165H33.9252C33.8358 23.4164 33.7475 23.3967 33.6666 23.3585C33.5858 23.3204 33.5143 23.2649 33.4574 23.1959C33.4006 23.1269 33.3596 23.0462 33.3376 22.9596C33.3155 22.8729 33.3129 22.7825 33.3299 22.6947" fill="#FE7B01"/>
    <path d="M42.7692 18.2905C42.8608 18.1589 43.0008 18.0688 43.1586 18.0401C43.3164 18.0114 43.4792 18.0464 43.6113 18.1375C45.4025 19.3682 47.1448 20.0836 48.6382 20.0836C49.7865 20.0836 50.4534 19.6025 50.4534 18.8609C50.4534 17.1221 43.471 15.6299 43.4395 10.9326C43.4186 7.82005 45.8721 5.74609 49.6509 5.74609C51.7591 5.74609 53.8358 6.30755 55.8815 7.37362C55.9535 7.41109 56.0174 7.46258 56.0693 7.52508C56.1211 7.58757 56.16 7.65981 56.1836 7.73754C56.2072 7.81527 56.215 7.89693 56.2065 7.97771C56.1981 8.0585 56.1736 8.13679 56.1345 8.20798L54.8704 10.6366C54.8314 10.7066 54.7789 10.7682 54.716 10.8178C54.6531 10.8674 54.581 10.904 54.5039 10.9257C54.4268 10.9473 54.3461 10.9534 54.2666 10.9437C54.1871 10.9341 54.1103 10.9087 54.0406 10.8692C52.5598 10.0403 51.0695 9.59899 49.9104 9.59899C48.7989 9.59899 48.0706 10.0433 48.0706 10.8214C48.0706 12.8525 55.1587 14.3032 55.1587 18.6385C55.1587 22.0839 52.7506 23.9734 48.6753 23.9734C45.8459 23.9734 43.4854 23.2722 41.3627 21.6865C41.2365 21.5922 41.1517 21.4527 41.1262 21.2972C41.1007 21.1417 41.1364 20.9824 41.2259 20.8527L42.7692 18.2905Z" fill="#FE7B01"/>
    <path d="M56.5306 0.701893L56.0365 3.29294C56.0108 3.4282 55.9387 3.55025 55.8327 3.63807C55.7267 3.7259 55.5933 3.77401 55.4557 3.7741H46.4226C46.3356 3.77406 46.2496 3.7548 46.1709 3.71769C46.0921 3.68059 46.0225 3.62656 45.9671 3.55945C45.9116 3.49235 45.8717 3.41383 45.85 3.3295C45.8284 3.24517 45.8257 3.15711 45.8421 3.07161L46.3362 0.480709C46.3619 0.345538 46.434 0.223578 46.54 0.135833C46.646 0.0480887 46.7793 5.32095e-05 46.9169 0L55.9499 0C56.0369 3.36473e-05 56.1229 0.0192712 56.2016 0.0563402C56.2803 0.0934092 56.3499 0.147396 56.4054 0.21445C56.4608 0.281503 56.5008 0.359971 56.5225 0.444254C56.5441 0.528538 56.5469 0.616561 56.5306 0.702043" fill="#FE7B01"/>
    <path d="M70.7721 0.706438L70.2777 3.29734C70.2521 3.43262 70.1801 3.55472 70.074 3.64256C69.968 3.7304 69.8347 3.77848 69.697 3.7785H62.0736C61.9866 3.77847 61.9006 3.75923 61.8219 3.72215C61.7431 3.68507 61.6735 3.63107 61.6181 3.564C61.5626 3.49693 61.5226 3.41844 61.501 3.33414C61.4794 3.24984 61.4766 3.1618 61.4929 3.0763L61.9877 0.484803C62.0135 0.349712 62.0855 0.227827 62.1915 0.140139C62.2974 0.0524502 62.4306 0.00444648 62.5681 0.00439453H70.1915C70.2786 0.00442818 70.3645 0.0236657 70.4432 0.0607347C70.5219 0.0978038 70.5915 0.151791 70.647 0.218844C70.7025 0.285898 70.7424 0.364365 70.7641 0.448649C70.7857 0.532933 70.7885 0.620956 70.7722 0.706438" fill="#FE7B01"/>
    <path d="M1.65091 18.3174C1.74249 18.1857 1.88251 18.0957 2.04032 18.067C2.19813 18.0383 2.36088 18.0733 2.49295 18.1643C4.28422 19.3951 6.02647 20.1105 7.51987 20.1105C8.66819 20.1105 9.33505 19.6293 9.33505 18.8877C9.33505 17.1489 2.35266 15.6567 2.32123 10.9594C2.30048 7.8469 4.7538 5.77295 8.53256 5.77295C10.6408 5.77295 12.7178 6.3344 14.7631 7.40047C14.8352 7.43794 14.8991 7.48944 14.9509 7.55193C15.0028 7.61443 15.0417 7.68666 15.0653 7.76439C15.0889 7.84212 15.0967 7.92378 15.0882 8.00457C15.0798 8.08536 15.0553 8.16365 15.0162 8.23484L13.7523 10.6635C13.7132 10.7335 13.6608 10.795 13.5979 10.8446C13.535 10.8942 13.4629 10.9309 13.3857 10.9525C13.3086 10.9741 13.228 10.9803 13.1484 10.9706C13.0689 10.9609 12.9921 10.9356 12.9224 10.8961C11.4416 10.0672 9.95138 9.62584 8.79224 9.62584C7.68076 9.62584 6.9524 10.0702 6.9524 10.8483C6.9524 12.8794 14.0405 14.3301 14.0405 18.6653C14.0405 22.1108 11.6324 24.0002 7.55716 24.0002C4.72779 24.0002 2.36724 23.2991 0.244572 21.7133C0.118337 21.6191 0.0335562 21.4795 0.0080408 21.3241C-0.0174746 21.1686 0.0182619 21.0093 0.107742 20.8796L1.65091 18.3174Z" fill="#FE7B01"/>
</svg>
