<svg width="230" height="56" viewBox="0 0 230 56" fill="none" xmlns="http://www.w3.org/2000/svg">
    <path d="M229.845 10.4175L222.512 48.8688C222.129 50.8745 221.06 52.6841 219.487 53.9858C217.914 55.2875 215.936 55.9998 213.895 56H8.77199C7.4807 55.9997 6.20541 55.7143 5.03712 55.1642C3.86882 54.6141 2.8363 53.8129 2.01326 52.8177C1.19022 51.8225 0.596954 50.658 0.275767 49.407C-0.0454212 48.1561 -0.0866033 46.8497 0.155167 45.5811L7.48832 7.12975C7.87095 5.12416 8.94093 3.31482 10.5139 2.0134C12.0869 0.711975 14.0645 -3.9935e-05 16.1059 1.67994e-09H221.228C222.519 0.000344978 223.795 0.285741 224.963 0.835826C226.131 1.38591 227.164 2.18712 227.987 3.18229C228.81 4.17746 229.403 5.34205 229.724 6.59296C230.045 7.84387 230.087 9.15027 229.845 10.4189" fill="#FE7B01"/>
</svg>
