<svg width='82' height='66'
     viewBox="0 0 55 65" fill="none" xmlns="http://www.w3.org/2000/svg"
>
    <g filter="url(#filter0_d_2_88)">
        <path
                d="M32.2366 53.381L32.2366 53.3109C32.2366 52.8203 32.4347 49.9466 36.7689 46.302C37.5061 45.7128 38.2849 45.178 39.0991 44.7016C39.7519 44.2965 40.382 43.8558 40.9866 43.3816C43.8752 41.1795 46.2004 38.3206 47.7703 35.0404C49.3403 31.7603 50.1101 28.153 50.0163 24.516C49.9246 20.6182 48.8488 16.8074 46.8893 13.4398C44.9298 10.0721 42.1506 7.25756 38.8116 5.25923C35.4725 3.2609 31.6826 2.14403 27.7961 2.01302C23.9096 1.88202 20.0534 2.74113 16.588 4.5101C13.1226 6.27907 10.1612 8.90014 7.98053 12.1282C5.79985 15.3564 4.47116 19.0862 4.11863 22.9689C3.76611 26.8517 4.40128 30.7606 5.96476 34.3304C7.52824 37.9003 9.96896 41.0144 13.0588 43.3816V43.3816C13.6647 43.8489 14.2822 44.2694 14.923 44.6783C15.6859 45.1251 16.4142 45.6288 17.1018 46.1851C21.9953 50.262 21.7622 53.381 21.7622 53.381C21.7143 54.1008 21.8144 54.8228 22.0562 55.5022C22.298 56.1816 22.6764 56.804 23.168 57.3308C23.6595 57.8576 24.2537 58.2776 24.9138 58.5647C25.5739 58.8518 26.2857 59 27.0052 59C27.7248 59 28.4366 58.8518 29.0967 58.5647C29.7567 58.2776 30.351 57.8576 30.8425 57.3308C31.3341 56.804 31.7125 56.1816 31.9543 55.5022C32.1961 54.8228 32.2962 54.1008 32.2483 53.381L32.2366 53.381ZM22.3098 43.5919C17.799 42.4523 13.8591 39.6991 11.2315 35.8505C8.60392 32.0018 7.46978 27.3232 8.04247 22.6947C8.61516 18.0663 10.8552 13.8072 14.3411 10.719C17.8271 7.63074 22.3185 5.9263 26.9703 5.9263C31.6221 5.9263 36.1135 7.63074 39.5995 10.719C43.0854 13.8072 45.3255 18.0663 45.8982 22.6947C46.4708 27.3232 45.3367 32.0018 42.7091 35.8505C40.0814 39.6991 36.1415 42.4523 31.6308 43.5919C28.5716 44.3648 25.369 44.3648 22.3098 43.5919Z"
                fill="white"/>
    </g>
    </svg>
