<svg width="31" height="24" viewBox="0 0 31 24" fill="none" xmlns="http://www.w3.org/2000/svg">
    <path d="M30.7907 4.46463L27.6479 20.9438C27.484 21.8034 27.0256 22.5789 26.3515 23.1368C25.6774 23.6946 24.8299 23.9999 23.9549 24H3.75942C3.20602 23.9999 2.65946 23.8775 2.15876 23.6418C1.65806 23.406 1.21556 23.0627 0.862826 22.6362C0.510095 22.2097 0.255837 21.7106 0.118186 21.1744C-0.0194664 20.6383 -0.0371156 20.0785 0.0665003 19.5347L3.20928 3.05561C3.37326 2.19607 3.83183 1.42064 4.50597 0.862884C5.18011 0.305132 6.02762 -1.7115e-05 6.90252 7.19973e-10H27.0977C27.6511 0.000147848 28.1977 0.122461 28.6984 0.358211C29.1991 0.593962 29.6416 0.937338 29.9943 1.36384C30.3471 1.79034 30.6013 2.28945 30.739 2.82555C30.8766 3.36166 30.8943 3.92154 30.7907 4.46526" fill="white"/>
    <g clip-path="url(#clip0_0_3)">
        <path d="M10.0238 17.9955C9.62331 17.9955 9.23176 17.8728 8.89874 17.6429C8.56572 17.413 8.30617 17.0863 8.15294 16.704C7.99971 16.3218 7.95967 15.9012 8.0379 15.4954C8.11612 15.0897 8.30909 14.717 8.59239 14.4245C8.87569 14.132 9.2366 13.9329 9.62947 13.8523C10.0223 13.7718 10.4295 13.8133 10.7995 13.9718C11.1695 14.1303 11.4857 14.3986 11.708 14.7427C11.9304 15.0868 12.049 15.4913 12.0488 15.905C12.0482 16.4595 11.8346 16.991 11.455 17.3829C11.0753 17.7749 10.5606 17.9952 10.0238 17.9955V17.9955ZM10.0238 14.7145C9.79589 14.7145 9.57304 14.7843 9.3835 14.9151C9.19396 15.0459 9.04622 15.2319 8.95899 15.4494C8.87175 15.667 8.84893 15.9063 8.8934 16.1373C8.93788 16.3682 9.04765 16.5804 9.20885 16.7469C9.37004 16.9134 9.57541 17.0267 9.79899 17.0727C10.0226 17.1186 10.2543 17.095 10.4649 17.0049C10.6755 16.9148 10.8555 16.7622 10.9822 16.5664C11.1088 16.3707 11.1764 16.1405 11.1764 15.905C11.1753 15.59 11.0533 15.2884 10.8373 15.0661C10.6213 14.8438 10.3288 14.719 10.0238 14.719V14.7145Z" fill="#FE7B01"/>
        <path d="M20.9751 17.9955C20.5745 17.9957 20.1828 17.8732 19.8497 17.6435C19.5165 17.4137 19.2568 17.0871 19.1034 16.7048C18.95 16.3226 18.9098 15.9019 18.9879 15.4961C19.066 15.0903 19.2589 14.7175 19.5421 14.4249C19.8254 14.1323 20.1863 13.9331 20.5792 13.8524C20.9721 13.7717 21.3793 13.8133 21.7494 13.9717C22.1194 14.1302 22.4357 14.3984 22.6581 14.7426C22.8805 15.0867 22.9991 15.4912 22.9989 15.905C22.9983 16.4593 22.7849 16.9906 22.4055 17.3825C22.0261 17.7745 21.5116 17.9949 20.9751 17.9955ZM20.9751 14.7145C20.7471 14.7143 20.5241 14.7839 20.3344 14.9146C20.1447 15.0453 19.9968 15.2311 19.9094 15.4486C19.822 15.6662 19.7991 15.9056 19.8434 16.1366C19.8878 16.3676 19.9974 16.5798 20.1586 16.7465C20.3197 16.9131 20.5251 17.0266 20.7487 17.0726C20.9723 17.1186 21.2041 17.0951 21.4148 17.005C21.6255 16.915 21.8055 16.7624 21.9322 16.5666C22.0589 16.3708 22.1266 16.1405 22.1266 15.905C22.1254 15.5902 22.0036 15.2887 21.7878 15.0665C21.572 14.8442 21.2798 14.7193 20.9751 14.719V14.7145Z" fill="#FE7B01"/>
        <path d="M20.6305 13.3933C20.3398 13.4341 20.0588 13.53 19.8018 13.676L17.3341 7.0306C17.3203 6.99282 17.2957 6.96028 17.2636 6.93734C17.2314 6.91439 17.1933 6.90213 17.1542 6.9022H14.9461C14.8353 6.90394 14.7277 6.86343 14.644 6.78841C14.5604 6.71339 14.5064 6.60914 14.4924 6.49559C14.4865 6.43284 14.4934 6.3695 14.5126 6.30966C14.5318 6.24982 14.563 6.19482 14.6041 6.14822C14.6452 6.10161 14.6954 6.06444 14.7513 6.0391C14.8072 6.01376 14.8676 6.00083 14.9286 6.00113H17.5871C17.6755 6.00103 17.7618 6.02865 17.8346 6.08035C17.9074 6.13204 17.9633 6.20535 17.9949 6.2906L20.6305 13.3933Z" fill="#FE7B01"/>
        <path d="M18.5151 15.9095C18.5148 16.0606 18.528 16.2114 18.5543 16.36H12.4479C12.5002 16.0621 12.5002 15.7569 12.4479 15.459H18.5543C18.528 15.6076 18.5148 15.7584 18.5151 15.9095V15.9095Z" fill="#FE7B01"/>
    </g>
    <defs>
        <clipPath id="clip0_0_3">
            <rect width="15" height="12" fill="white" transform="translate(8 6)"/>
        </clipPath>
    </defs>
</svg>
