<svg width="31" height="24" viewBox="0 0 31 24" fill="none" xmlns="http://www.w3.org/2000/svg">
    <path d="M30.7907 4.46463L27.6479 20.9438C27.484 21.8034 27.0256 22.5789 26.3515 23.1368C25.6774 23.6946 24.8299 23.9999 23.9549 24H3.75942C3.20602 23.9999 2.65946 23.8775 2.15876 23.6418C1.65806 23.406 1.21556 23.0627 0.862826 22.6362C0.510095 22.2097 0.255837 21.7106 0.118186 21.1744C-0.0194664 20.6383 -0.0371156 20.0785 0.0665003 19.5347L3.20928 3.05561C3.37326 2.19607 3.83183 1.42064 4.50597 0.862884C5.18011 0.305132 6.02762 -1.7115e-05 6.90252 7.19973e-10H27.0977C27.6511 0.000147848 28.1977 0.122461 28.6984 0.358211C29.1991 0.593962 29.6416 0.937338 29.9943 1.36384C30.3471 1.79034 30.6013 2.28945 30.739 2.82555C30.8766 3.36166 30.8943 3.92154 30.7907 4.46526" fill="white"/>
    <mask id="mask0_0_3" style="mask-type:alpha" maskUnits="userSpaceOnUse" x="0" y="0" width="31" height="24">
        <path d="M30.7907 4.46463L27.6479 20.9438C27.484 21.8034 27.0256 22.5789 26.3515 23.1368C25.6774 23.6946 24.8299 23.9999 23.9549 24H3.75942C3.20602 23.9999 2.65946 23.8775 2.15876 23.6418C1.65806 23.406 1.21556 23.0627 0.862826 22.6362C0.510095 22.2097 0.255837 21.7106 0.118186 21.1744C-0.0194664 20.6383 -0.0371156 20.0785 0.0665003 19.5347L3.20928 3.05561C3.37326 2.19607 3.83183 1.42064 4.50597 0.862884C5.18011 0.305132 6.02762 -1.7115e-05 6.90252 7.19973e-10H27.0977C27.6511 0.000147848 28.1977 0.122461 28.6984 0.358211C29.1991 0.593962 29.6416 0.937338 29.9943 1.36384C30.3471 1.79034 30.6013 2.28945 30.739 2.82555C30.8766 3.36166 30.8943 3.92154 30.7907 4.46526" fill="white"/>
    </mask>
    <g mask="url(#mask0_0_3)">
        <path d="M24.2395 17.2154C24.1492 16.0626 24.077 15.1277 24.0589 14.8554C24.0551 14.8314 24.0551 14.8069 24.0589 14.7828C23.8792 13.2656 23.54 11.7717 23.0474 10.3261C22.9695 10.1067 22.9787 9.86559 23.0728 9.6527C23.1669 9.43981 23.339 9.27144 23.5532 9.18247C24.9079 8.63786 25.5852 7.27636 24.3569 6.0147C23.3183 4.95273 22.072 5.815 21.4308 6.42314C21.2947 6.5476 21.1241 6.62733 20.9418 6.65166C20.7594 6.67599 20.5739 6.64376 20.4103 6.55928L18.1073 5.32486C18.0976 5.32063 18.0894 5.31365 18.0836 5.30478C18.0779 5.29591 18.0748 5.28555 18.0748 5.27495C18.0748 5.26435 18.0779 5.25398 18.0836 5.24511C18.0894 5.23625 18.0976 5.22924 18.1073 5.225C18.4685 5.09793 19.462 4.69856 18.6582 4.23564C18.3224 4.11316 17.9605 4.0814 17.6087 4.14352C17.2569 4.20563 16.9274 4.35947 16.6533 4.58965C16.6425 4.59928 16.6283 4.60421 16.6139 4.60336C16.5995 4.60251 16.5861 4.59594 16.5765 4.58511C16.5669 4.57427 16.562 4.56005 16.5629 4.54558C16.5637 4.53111 16.5702 4.51759 16.581 4.50796C16.879 4.07228 17.2313 3.3189 16.3281 3.0466C15.2715 2.73799 14.1696 4.04505 13.8084 4.53519C13.8084 4.53519 13.709 4.53518 13.709 4.48979C13.709 4.18118 13.709 3.58212 13.2123 3.63658C12.3634 3.69104 12.1105 4.54428 11.975 5.25226C11.942 5.4125 11.8738 5.56329 11.7754 5.69363C11.6769 5.82398 11.5508 5.93057 11.4061 6.00562C11.0878 6.17775 10.7855 6.37825 10.5029 6.60468C10.3221 6.74259 10.0963 6.80701 9.87034 6.78515C9.64442 6.76328 9.43496 6.65673 9.28367 6.48668C8.31732 5.37024 6.89038 5.36116 6.24012 6.62283C5.58987 7.88449 6.34853 8.57433 7.45938 9.18247C7.64828 9.29147 7.79157 9.4654 7.86294 9.67223C7.9343 9.87906 7.92892 10.1048 7.84772 10.308C7.23851 12.3999 6.95219 14.5733 6.99878 16.7524C6.99447 16.822 6.99447 16.8917 6.99878 16.9612V16.9612C6.99878 17.1518 6.99878 17.3424 6.99878 17.524C7.08006 18.7675 7.17037 20.0019 7.22456 21.2454C7.27875 22.4889 7.3329 23.5146 7.41418 24.5947C10.0096 26.2931 13.0704 27.1288 16.1642 26.9839C19.2579 26.8389 22.2281 25.7206 24.655 23.7869C24.655 23.3331 24.655 22.9428 24.5918 22.6523C24.5737 21.6811 24.4292 19.1396 24.2395 17.2154ZM14.865 12.8132C14.8447 12.9999 14.7565 13.1724 14.6173 13.2978C14.4781 13.4232 14.2978 13.4925 14.1109 13.4925C13.924 13.4925 13.7437 13.4232 13.6046 13.2978C13.4654 13.1724 13.3772 12.9999 13.3568 12.8132V12.7678C13.3765 12.6714 13.3747 12.5719 13.3514 12.4764C13.3281 12.3809 13.2839 12.2917 13.2221 12.2155C13.1603 12.1393 13.0823 12.0778 12.9939 12.0356C12.9055 11.9934 12.809 11.9715 12.7111 11.9715C12.6132 11.9715 12.5166 11.9934 12.4282 12.0356C12.3398 12.0778 12.2619 12.1393 12.2001 12.2155C12.1382 12.2917 12.094 12.3809 12.0707 12.4764C12.0474 12.5719 12.0456 12.6714 12.0653 12.7678V12.8132C12.0653 13.013 11.9864 13.2046 11.8458 13.3458C11.7052 13.4871 11.5145 13.5665 11.3157 13.5665C11.1169 13.5665 10.9263 13.4871 10.7857 13.3458C10.6451 13.2046 10.5662 13.013 10.5662 12.8132V12.7678C10.5662 12.1948 10.7926 11.6454 11.1957 11.2402C11.5988 10.8351 12.1455 10.6075 12.7156 10.6075C13.2857 10.6075 13.8324 10.8351 14.2355 11.2402C14.6386 11.6454 14.865 12.1948 14.865 12.7678V12.8132ZM20.4735 12.8132C20.4765 12.9649 20.4339 13.114 20.3512 13.2409C20.2685 13.3679 20.1495 13.4668 20.01 13.5247C19.8704 13.5826 19.7167 13.5968 19.5689 13.5653C19.4212 13.5339 19.2863 13.4584 19.182 13.3487C19.1126 13.2782 19.0577 13.1945 19.0205 13.1026C18.9833 13.0107 18.9645 12.9124 18.9653 12.8132V12.7678C18.985 12.6714 18.9832 12.5719 18.9599 12.4764C18.9366 12.3809 18.8924 12.2917 18.8306 12.2155C18.7687 12.1393 18.6908 12.0778 18.6024 12.0356C18.514 11.9934 18.4174 11.9715 18.3195 11.9715C18.2216 11.9715 18.125 11.9934 18.0366 12.0356C17.9482 12.0778 17.8703 12.1393 17.8085 12.2155C17.7466 12.2917 17.7025 12.3809 17.6792 12.4764C17.6559 12.5719 17.6541 12.6714 17.6738 12.7678V12.8132C17.6738 13.0138 17.5951 13.2064 17.4548 13.3491C17.3145 13.4918 17.1238 13.5732 16.9242 13.5756C16.721 13.5741 16.5265 13.4926 16.3823 13.3487C16.3129 13.2782 16.258 13.1945 16.2208 13.1026C16.1836 13.0107 16.1648 12.9124 16.1655 12.8132V12.7678C16.201 12.2179 16.4434 11.7021 16.8434 11.3252C17.2435 10.9484 17.7712 10.7387 18.3195 10.7387C18.8678 10.7387 19.3956 10.9484 19.7956 11.3252C20.1957 11.7021 20.438 12.2179 20.4735 12.7678V12.8132Z" fill="#FE7B01"/>
    </g>
</svg>
