<svg width="59" height="49" viewBox="0 0 59 49" fill="none" xmlns="http://www.w3.org/2000/svg">
    <path d="M58.8597 8.93018L52.5497 41.9302C52.3453 43.0128 51.9048 44.0371 51.2597 44.9302C50.8835 45.4531 50.4396 45.9238 49.9397 46.3301C48.5858 47.4464 46.8845 48.0549 45.1297 48.0503H8.54972C7.43621 48.0526 6.33619 47.8065 5.32972 47.3301C4.32609 46.8634 3.43819 46.1804 2.72972 45.3301C2.02105 44.4789 1.50889 43.482 1.22972 42.4102C0.956635 41.3373 0.922499 40.2178 1.12972 39.1304L7.43972 6.13038C7.7683 4.40915 8.6923 2.85864 10.0497 1.75049C11.4023 0.630617 13.1037 0.0186886 14.8597 0.0205119H51.4397C52.5506 0.0212861 53.6477 0.266037 54.6535 0.737797C55.6592 1.20956 56.5489 1.89677 57.2597 2.75049C57.9705 3.59999 58.483 4.59691 58.7598 5.66944C59.0366 6.74197 59.0707 7.86281 58.8597 8.9502V8.93018Z" fill="#3772FF"/>
    <path d="M40 24C40 29.52 35.52 34 30 34C24.48 34 20 29.52 20 24C20 18.48 24.48 14 30 14C35.52 14 40 18.48 40 24Z" stroke="white" stroke-width="1.5" stroke-linecap="round" stroke-linejoin="round"/>
    <path d="M33.71 27.18L30.61 25.33C30.07 25.01 29.63 24.24 29.63 23.61V19.51" stroke="white" stroke-width="1.5" stroke-linecap="round" stroke-linejoin="round"/>
</svg>
