<svg width="326" height="56" viewBox="0 0 326 56" fill="none" xmlns="http://www.w3.org/2000/svg">
    <mask id="path-1-inside-1_2_1971" fill="white">
        <path d="M325.845 10.4175L318.512 48.8688C318.129 50.8745 317.06 52.6841 315.487 53.9858C313.914 55.2875 311.936 55.9998 309.895 56H8.77199C7.4807 55.9997 6.20541 55.7143 5.03712 55.1642C3.86882 54.6141 2.8363 53.8129 2.01326 52.8177C1.19022 51.8225 0.596954 50.658 0.275766 49.407C-0.0454215 48.1561 -0.0866031 46.8497 0.155167 45.5811L7.48832 7.12975C7.87095 5.12416 8.94093 3.31482 10.5139 2.0134C12.0869 0.711975 14.0645 -3.9935e-05 16.1059 1.67994e-09H317.228C318.519 0.000344978 319.795 0.285741 320.963 0.835826C322.131 1.38591 323.164 2.18712 323.987 3.18229C324.81 4.17746 325.403 5.34205 325.724 6.59296C326.045 7.84387 326.087 9.15027 325.845 10.4189" fill="white"/>
    </mask>
    <path d="M318.512 48.8688L317.529 48.6814L317.529 48.6815L318.512 48.8688ZM309.895 56V57H309.895L309.895 56ZM8.77199 56L8.77172 57H8.77199V56ZM0.155167 45.5811L-0.827128 45.3937L-0.827154 45.3939L0.155167 45.5811ZM7.48832 7.12975L6.50604 6.94235L6.50602 6.94241L7.48832 7.12975ZM16.1059 1.67994e-09L16.1059 1H16.1059V1.67994e-09ZM317.228 1.67994e-09L317.228 -1H317.228V1.67994e-09ZM324.863 10.2301L317.529 48.6814L319.494 49.0561L326.827 10.6048L324.863 10.2301ZM317.529 48.6815C317.191 50.4587 316.243 52.0621 314.849 53.2154L316.124 54.7562C317.876 53.3061 319.068 51.2903 319.494 49.056L317.529 48.6815ZM314.849 53.2154C313.456 54.3687 311.704 54.9998 309.895 55L309.895 57C312.169 56.9998 314.372 56.2063 316.124 54.7562L314.849 53.2154ZM309.895 55H8.77199V57H309.895V55ZM8.77225 55C7.62816 54.9997 6.49824 54.7468 5.4631 54.2594L4.61113 56.0689C5.91259 56.6817 7.33325 56.9996 8.77172 57L8.77225 55ZM5.4631 54.2594C4.42796 53.7721 3.51311 53.0622 2.78386 52.1804L1.24266 53.455C2.15948 54.5636 3.30967 55.4561 4.61113 56.0689L5.4631 54.2594ZM2.78386 52.1804C2.05462 51.2986 1.52894 50.2667 1.24435 49.1583L-0.692815 49.6557C-0.335035 51.0492 0.325827 52.3465 1.24266 53.455L2.78386 52.1804ZM1.24435 49.1583C0.959753 48.0499 0.923264 46.8924 1.13749 45.7683L-0.827154 45.3939C-1.09647 46.8071 -1.0506 48.2623 -0.692815 49.6557L1.24435 49.1583ZM1.13746 45.7684L8.47062 7.31708L6.50602 6.94241L-0.827128 45.3937L1.13746 45.7684ZM8.4706 7.31715C8.80963 5.5401 9.75768 3.93696 11.1514 2.78388L9.87647 1.24291C8.12418 2.69267 6.93227 4.70822 6.50604 6.94235L8.4706 7.31715ZM11.1514 2.78388C12.5451 1.6308 14.2972 0.999965 16.1059 1L16.1059 -1C13.8317 -1.00004 11.6288 -0.206851 9.87647 1.24291L11.1514 2.78388ZM16.1059 1H317.228V-1H16.1059V1ZM317.228 1C318.372 1.00031 319.502 1.25317 320.537 1.74056L321.389 -0.0689044C320.087 -0.681688 318.667 -0.999616 317.228 -1L317.228 1ZM320.537 1.74056C321.572 2.22794 322.487 2.93784 323.216 3.81961L324.757 2.54497C323.841 1.43641 322.69 0.543879 321.389 -0.0689044L320.537 1.74056ZM323.216 3.81961C323.945 4.70136 324.471 5.73325 324.756 6.84165L326.693 6.34426C326.335 4.95084 325.674 3.65355 324.757 2.54497L323.216 3.81961ZM324.756 6.84165C325.04 7.95005 325.077 9.10761 324.863 10.2317L326.827 10.6061C327.096 9.19292 327.051 7.73769 326.693 6.34426L324.756 6.84165Z" fill="white" fill-opacity="0.24" mask="url(#path-1-inside-1_2_1971)"/>
</svg>

