<svg width='20' height='16' viewBox="0 0 24 18" fill="none"
        xmlns="http://www.w3.org/2000/svg">
<g clip-path="url(#clip0_2_2346)">
<path
        d="M3.12667 17.9931C2.51251 17.9931 1.91214 17.809 1.40151 17.4642C0.890872 17.1194 0.492901 16.6293 0.257947 16.0559C0.0229939 15.4825 -0.0383963 14.8516 0.0815425 14.243C0.201481 13.6343 0.497372 13.0753 0.931767 12.6366C1.36616 12.1979 1.91956 11.8992 2.52196 11.7783C3.12436 11.6575 3.74869 11.7198 4.31601 11.9576C4.88333 12.1953 5.36813 12.5977 5.7091 13.1139C6.05007 13.63 6.23189 14.2368 6.23156 14.8574C6.23068 15.689 5.90323 16.4864 5.32109 17.0743C4.73895 17.6622 3.94972 17.9926 3.12667 17.9931ZM3.12667 13.0716C2.77713 13.0716 2.43543 13.1763 2.1448 13.3725C1.85417 13.5687 1.62765 13.8477 1.49388 14.174C1.36012 14.5003 1.32513 14.8593 1.39332 15.2058C1.46151 15.5522 1.62984 15.8704 1.877 16.1201C2.12416 16.3699 2.43906 16.54 2.78188 16.6089C3.12471 16.6778 3.48005 16.6424 3.80298 16.5072C4.12591 16.3721 4.40193 16.1432 4.59612 15.8495C4.79031 15.5558 4.89397 15.2106 4.89397 14.8574C4.8922 14.3849 4.70522 13.9324 4.37398 13.599C4.04273 13.2655 3.59423 13.0783 3.12667 13.0783V13.0716Z"
        fill="#FE7B01"/>
<path
        d="M19.9185 17.9931C19.3043 17.9934 18.7038 17.8097 18.1929 17.465C17.6821 17.1204 17.2838 16.6305 17.0486 16.0571C16.8134 15.4837 16.7518 14.8528 16.8715 14.244C16.9913 13.6353 17.287 13.0761 17.7214 12.6372C18.1557 12.1983 18.7091 11.8995 19.3115 11.7785C19.914 11.6575 20.5384 11.7197 21.1058 11.9574C21.6732 12.1951 22.1581 12.5975 22.4992 13.1137C22.8402 13.6299 23.0221 14.2367 23.0218 14.8574C23.0209 15.6887 22.6936 16.4858 22.1119 17.0737C21.5301 17.6615 20.7413 17.9922 19.9185 17.9931ZM19.9185 13.0716C19.5689 13.0712 19.2271 13.1757 18.9362 13.3717C18.6454 13.5677 18.4186 13.8465 18.2846 14.1728C18.1506 14.4991 18.1153 14.8582 18.1833 15.2047C18.2513 15.5512 18.4195 15.8696 18.6666 16.1195C18.9137 16.3694 19.2286 16.5397 19.5715 16.6087C19.9143 16.6778 20.2698 16.6425 20.5928 16.5074C20.9158 16.3723 21.1919 16.1434 21.3862 15.8497C21.5805 15.556 21.6842 15.2106 21.6842 14.8574C21.6824 14.3852 21.4957 13.933 21.1648 13.5996C20.8339 13.2662 20.3858 13.0788 19.9185 13.0783V13.0716Z"
        fill="#FE7B01"/>
<path
        d="M19.3902 11.0897C18.9444 11.151 18.5137 11.2947 18.1195 11.5138L14.3357 1.54568C14.3146 1.48901 14.2769 1.44021 14.2276 1.40579C14.1783 1.37137 14.1198 1.35298 14.0599 1.35308H10.6741C10.5042 1.35569 10.3393 1.29492 10.211 1.18239C10.0826 1.06987 9.99989 0.913485 9.97852 0.743163C9.96939 0.649038 9.97992 0.554028 10.0094 0.464272C10.0389 0.374516 10.0867 0.292015 10.1498 0.222107C10.2128 0.152198 10.2897 0.0964363 10.3754 0.0584305C10.4611 0.0204246 10.5537 0.00102181 10.6473 0.00147252H14.7237C14.8591 0.00132375 14.9915 0.0427598 15.1031 0.120297C15.2148 0.197834 15.3005 0.307811 15.349 0.435672L19.3902 11.0897Z"
        fill="#FE7B01"/>
<path
        d="M16.1465 14.8643C16.1462 15.0909 16.1663 15.3171 16.2067 15.5401H6.84352C6.92379 15.0932 6.92379 14.6354 6.84352 14.1885H16.2067C16.1663 14.4114 16.1462 14.6376 16.1465 14.8643Z"
        fill="#FE7B01"/>
</g>

        </svg>
