<svg width="72" height="56" viewBox="0 0 72 56" fill="none" xmlns="http://www.w3.org/2000/svg">
    <g opacity="0.24">
        <mask id="path-1-inside-1_2_2994" fill="white">
            <path d="M71.8448 10.4175L64.5117 48.8688C64.1294 50.8745 63.0596 52.6841 61.4868 53.9858C59.9139 55.2875 57.9364 55.9998 55.8949 56H8.77199C7.4807 55.9997 6.20541 55.7143 5.03712 55.1642C3.86882 54.6141 2.8363 53.8129 2.01326 52.8177C1.19022 51.8225 0.596954 50.658 0.275766 49.407C-0.0454215 48.1561 -0.0866031 46.8497 0.155167 45.5811L7.48832 7.12975C7.87095 5.12416 8.94093 3.31482 10.5139 2.0134C12.0869 0.711975 14.0645 -3.9935e-05 16.1059 1.67994e-09H63.228C64.5193 0.000344978 65.7946 0.285741 66.9629 0.835826C68.1312 1.38591 69.1637 2.18712 69.9868 3.18229C70.8098 4.17746 71.4031 5.34205 71.7242 6.59296C72.0454 7.84387 72.0866 9.15027 71.8448 10.4189"/>
        </mask>
        <path d="M64.5117 48.8688L63.5294 48.6814L63.5294 48.6815L64.5117 48.8688ZM55.8949 56V57H55.895L55.8949 56ZM8.77199 56L8.77172 57H8.77199V56ZM0.155167 45.5811L-0.827128 45.3937L-0.827154 45.3939L0.155167 45.5811ZM7.48832 7.12975L6.50604 6.94235L6.50602 6.94241L7.48832 7.12975ZM16.1059 1.67994e-09L16.1059 1H16.1059V1.67994e-09ZM63.228 1.67994e-09L63.2283 -1H63.228V1.67994e-09ZM70.8626 10.2301L63.5294 48.6814L65.494 49.0561L72.8271 10.6048L70.8626 10.2301ZM63.5294 48.6815C63.1907 50.4587 62.2428 52.0621 60.8492 53.2154L62.1243 54.7562C63.8765 53.3061 65.0682 51.2903 65.494 49.056L63.5294 48.6815ZM60.8492 53.2154C59.4556 54.3687 57.7035 54.9998 55.8948 55L55.895 57C58.1692 56.9998 60.3722 56.2063 62.1243 54.7562L60.8492 53.2154ZM55.8949 55H8.77199V57H55.8949V55ZM8.77225 55C7.62816 54.9997 6.49824 54.7468 5.4631 54.2594L4.61113 56.0689C5.91259 56.6817 7.33325 56.9996 8.77172 57L8.77225 55ZM5.4631 54.2594C4.42796 53.7721 3.51311 53.0622 2.78386 52.1804L1.24266 53.455C2.15948 54.5636 3.30967 55.4561 4.61113 56.0689L5.4631 54.2594ZM2.78386 52.1804C2.05462 51.2986 1.52894 50.2667 1.24435 49.1583L-0.692815 49.6557C-0.335035 51.0492 0.325827 52.3465 1.24266 53.455L2.78386 52.1804ZM1.24435 49.1583C0.959753 48.0499 0.923264 46.8924 1.13749 45.7683L-0.827154 45.3939C-1.09647 46.8071 -1.0506 48.2623 -0.692815 49.6557L1.24435 49.1583ZM1.13746 45.7684L8.47062 7.31708L6.50602 6.94241L-0.827128 45.3937L1.13746 45.7684ZM8.4706 7.31715C8.80963 5.5401 9.75768 3.93696 11.1514 2.78388L9.87647 1.24291C8.12418 2.69267 6.93227 4.70822 6.50604 6.94235L8.4706 7.31715ZM11.1514 2.78388C12.5451 1.6308 14.2972 0.999965 16.1059 1L16.1059 -1C13.8317 -1.00004 11.6288 -0.206851 9.87647 1.24291L11.1514 2.78388ZM16.1059 1H63.228V-1H16.1059V1ZM63.2278 1C64.3719 1.00031 65.5018 1.25317 66.5369 1.74056L67.3889 -0.0689044C66.0874 -0.681688 64.6668 -0.999616 63.2283 -1L63.2278 1ZM66.5369 1.74056C67.5721 2.22794 68.4869 2.93784 69.2162 3.81961L70.7574 2.54497C69.8405 1.43641 68.6904 0.543879 67.3889 -0.0689044L66.5369 1.74056ZM69.2162 3.81961C69.9454 4.70136 70.4711 5.73325 70.7557 6.84165L72.6928 6.34426C72.335 4.95084 71.6742 3.65355 70.7574 2.54497L69.2162 3.81961ZM70.7557 6.84165C71.0403 7.95005 71.0768 9.10761 70.8625 10.2317L72.8272 10.6061C73.0965 9.19292 73.0506 7.73769 72.6928 6.34426L70.7557 6.84165Z" fill="#FE7B01" mask="url(#path-1-inside-1_2_2994)"/>
    </g>
</svg>
