<svg width="179" height="249" viewBox="0 0 179 249" fill="none" xmlns="http://www.w3.org/2000/svg">
    <g clip-path="url(#clip0_2_1883)">
        <path opacity="0.4" d="M1.62964 149.11L2.48981 155.329C2.68559 156.784 3.38492 158.124 4.46635 159.117C4.46635 159.51 6.44313 168.702 17.4128 172.702C18.288 173.026 19.2106 173.205 20.1438 173.23C20.5614 173.245 20.9777 173.173 21.3661 173.019L23.1465 174.528C26.9003 177.601 30.9026 180.358 35.1121 182.769L95.3472 217.228C95.4627 217.293 95.592 217.329 95.7244 217.334C95.8042 217.348 95.8858 217.348 95.9657 217.334L105.019 214.315L105.17 214.239L105.306 214.119L116.849 199.342C116.921 199.256 116.968 199.151 116.985 199.04L129.901 191.267L130.369 197.078C130.397 197.447 130.326 197.818 130.161 198.15C129.996 198.483 129.745 198.764 129.433 198.965C128.332 199.674 127.155 200.353 126.023 200.942C123.578 202.195 123.111 207.93 123.141 212.519C123.144 213.332 123.351 214.131 123.744 214.843L124.408 216.096C125.88 222.557 128.103 228.823 131.032 234.767C137.068 247.34 143.873 249.015 146.483 249.166H147.042C149.549 249.187 151.972 248.266 153.832 246.585C156.261 244.321 157.544 240.819 157.634 236.155C157.658 229.461 156.356 222.827 153.802 216.639C153.964 216.388 154.087 216.113 154.164 215.824C154.286 215.38 154.304 214.913 154.218 214.461C154.131 214.008 153.942 213.581 153.666 213.213L150.271 208.685C149.71 207.947 149.441 207.028 149.516 206.104C149.566 205.354 149.458 204.602 149.198 203.898C148.938 203.193 148.532 202.551 148.007 202.013L145.216 199.131C144.897 198.792 144.7 198.356 144.658 197.893L128.543 23.7574C128.462 22.9502 128.689 22.1423 129.179 21.4956C129.669 20.849 130.385 20.4115 131.183 20.2708L173.779 12.5428C174.961 12.3248 176.056 11.7712 176.932 10.9479C177.808 10.1246 178.429 9.06651 178.72 7.89995C179.011 6.73338 178.96 5.50765 178.574 4.3691C178.187 3.23055 177.482 2.22731 176.541 1.47916C175.833 0.91811 175.011 0.518107 174.133 0.306969C173.255 0.0958302 172.341 0.0786316 171.456 0.256577C149.381 4.64883 76.0635 19.2746 59.3148 23.2744C58.5883 23.4485 57.9042 23.7666 57.3029 24.2099C56.7016 24.6533 56.1953 25.2128 55.814 25.8554C55.448 26.4692 55.2123 27.1518 55.1215 27.8607C55.0306 28.5696 55.0866 29.2897 55.286 29.976C55.6855 31.2675 56.5508 32.3643 57.7136 33.0533C58.8764 33.7423 60.2539 33.9743 61.5781 33.7041L109.365 24.1649C109.808 24.0724 110.267 24.0756 110.709 24.1745C111.152 24.2735 111.568 24.4657 111.93 24.7385C112.298 25.0023 112.604 25.3426 112.828 25.736C113.052 26.1294 113.188 26.5666 113.228 27.0176L128.437 177.411L112.066 187.041L32.6073 147.405C32.6073 147.405 32.6073 147.405 32.4866 147.405C28.8954 142.197 22.9052 136.96 14.9533 136.552C7.0014 136.145 2.88219 139.571 0.86026 142.59C0.217941 143.599 -0.0563202 144.799 0.0838928 145.987C0.224121 147.175 0.770035 148.278 1.62964 149.11Z" fill="white"/>
        <path d="M127.874 23.6955L143.991 197.82C144.053 198.454 144.323 199.048 144.76 199.511L147.552 202.393C148 202.857 148.346 203.41 148.567 204.016C148.788 204.621 148.879 205.267 148.835 205.91C148.77 206.994 149.096 208.065 149.755 208.929L153.135 213.456C153.343 213.733 153.484 214.053 153.548 214.393C153.612 214.733 153.596 215.083 153.503 215.416C153.41 215.749 153.241 216.056 153.01 216.313C152.778 216.57 152.491 216.77 152.17 216.898L143.478 220.384C143.005 220.575 142.483 220.599 141.995 220.454C141.507 220.309 141.083 220.002 140.792 219.584L136.763 213.789C136.714 213.722 136.646 213.672 136.567 213.647C136.489 213.621 136.405 213.621 136.326 213.646C136.248 213.671 136.179 213.72 136.13 213.786C136.081 213.853 136.054 213.933 136.053 214.015L136.31 231.19L132.462 227.085L128.342 206.71C128.291 206.455 128.175 206.218 128.005 206.022C127.836 205.825 127.618 205.675 127.374 205.587C127.13 205.499 126.867 205.476 126.611 205.519C126.355 205.562 126.114 205.671 125.913 205.835C125.634 206.157 125.426 206.535 125.304 206.943C125.182 207.352 125.148 207.782 125.203 208.204C125.294 211.962 125.203 215.63 125.203 215.63L124.479 214.271C124.146 213.665 123.97 212.986 123.966 212.294C123.966 209.578 124.117 202.575 126.426 201.382C127.621 200.773 128.784 200.103 129.912 199.375C130.336 199.099 130.679 198.713 130.905 198.26C131.13 197.806 131.23 197.3 131.194 196.794L130.621 189.761L110.641 201.835C109.824 202.329 108.902 202.622 107.95 202.69C106.997 202.759 106.043 202.6 105.164 202.227L97.6185 199.058L101.633 194.802C102.793 193.567 104.124 192.505 105.586 191.647L129.247 177.732L113.991 26.8046C113.937 26.2499 113.767 25.7129 113.492 25.2281C113.217 24.7433 112.844 24.3216 112.396 23.9902C111.948 23.6588 111.435 23.4251 110.891 23.3041C110.347 23.1831 109.784 23.1777 109.238 23.288L61.5377 32.7662C60.4238 33.0142 59.2577 32.8435 58.2614 32.2869C57.2652 31.7302 56.5084 30.8264 56.1355 29.7477C56.1288 29.7077 56.1288 29.6669 56.1355 29.6269C55.9758 29.0202 55.9393 28.3876 56.0283 27.7665C56.1173 27.1455 56.3299 26.5485 56.6535 26.0111C56.9771 25.4736 57.405 25.0064 57.9122 24.6372C58.4193 24.268 58.9955 24.0042 59.6063 23.8615C76.3866 19.8619 149.649 5.25213 171.726 0.860145C172.507 0.70702 173.311 0.724706 174.084 0.911961C174.857 1.09922 175.58 1.45162 176.203 1.94494C176.827 2.43825 177.337 3.06078 177.697 3.76976C178.057 4.47874 178.26 5.25734 178.291 6.05205V6.05205C178.337 7.37413 177.904 8.6684 177.072 9.69705C176.241 10.7257 175.066 11.4196 173.764 11.6514L131.179 19.394C130.187 19.5611 129.295 20.0975 128.682 20.8954C128.069 21.6933 127.78 22.6936 127.874 23.6955V23.6955Z" stroke="white" stroke-width="2" stroke-linecap="round" stroke-linejoin="round"/>
        <path d="M97.6033 199.058L111.879 191.965" stroke="white" stroke-width="2" stroke-linecap="round" stroke-linejoin="round"/>
        <path d="M143.991 197.821C143.991 197.821 142.391 202.711 134.756 200.688" stroke="white" stroke-width="2" stroke-linecap="round" stroke-linejoin="round"/>
        <path d="M116.33 198.681L104.771 213.472L95.7171 216.49L35.4769 182.034C31.3031 179.641 27.3358 176.905 23.616 173.853L5.22114 158.761C4.12504 157.864 3.40822 156.586 3.21421 155.184L2.32375 148.694C2.32375 148.694 19.4814 162.805 25.4269 164.33C26.6251 164.627 27.8746 164.65 29.0831 164.398C30.2915 164.147 31.4278 163.626 32.4076 162.875C33.3874 162.124 34.1857 161.162 34.7432 160.061C35.3007 158.959 35.603 157.746 35.6279 156.512C35.6279 152.271 27.9772 137.827 14.894 137.148C7.19801 136.74 3.33488 140.076 1.46369 142.883C0.893038 143.796 0.66613 144.882 0.823759 145.947C0.981389 147.012 1.51316 147.986 2.32375 148.694V148.694" stroke="white" stroke-width="2" stroke-linecap="round" stroke-linejoin="round"/>
        <path d="M5.19095 158.972C6.0265 162.006 7.60305 164.785 9.7788 167.059C11.9546 169.332 14.6613 171.029 17.6555 171.997C20.915 173.099 21.594 171.997 21.594 171.997" stroke="white" stroke-width="2" stroke-linecap="round" stroke-linejoin="round"/>
        <path d="M26.1362 164.36C25.0324 157.967 21.6627 152.186 16.6444 148.075" stroke="white" stroke-width="2" stroke-linecap="round" stroke-linejoin="round"/>
        <path d="M32.2627 148L111.879 187.709" stroke="white" stroke-width="2" stroke-linecap="round" stroke-linejoin="round"/>
        <path d="M104.771 213.472L56.8448 187.603" stroke="white" stroke-width="2" stroke-linecap="round" stroke-linejoin="round"/>
        <path d="M142.738 220.46C142.738 220.46 146.586 230.24 146.586 237.65C146.586 245.061 143.417 246.434 138.453 240.503C133.488 234.571 132.658 230.572 132.658 230.572" stroke="white" stroke-width="2" stroke-linecap="round" stroke-linejoin="round"/>
        <path d="M153.151 216.702C155.666 222.81 156.958 229.353 156.953 235.96C156.742 246.208 150.615 248.442 146.586 248.23C142.557 248.019 136.868 244.729 131.783 234.269C128.845 228.355 126.636 222.107 125.203 215.66" stroke="white" stroke-width="2" stroke-linecap="round" stroke-linejoin="round"/>
    </g>
    <defs>
        <clipPath id="clip0_2_1883">
            <rect width="179" height="249" fill="white" transform="matrix(-1 0 0 1 179 0)"/>
        </clipPath>
    </defs>
</svg>
