<svg width="72" height="56" viewBox="0 0 72 56" fill="none" xmlns="http://www.w3.org/2000/svg">
    <path d="M71.8448 10.4175L64.5117 48.8688C64.1294 50.8745 63.0596 52.6841 61.4868 53.9858C59.9139 55.2875 57.9364 55.9998 55.8949 56H8.77199C7.4807 55.9997 6.20541 55.7143 5.03712 55.1642C3.86882 54.6141 2.8363 53.8129 2.01326 52.8177C1.19022 51.8225 0.596954 50.658 0.275766 49.407C-0.0454215 48.1561 -0.0866031 46.8497 0.155167 45.5811L7.48832 7.12975C7.87095 5.12416 8.94093 3.31482 10.5139 2.0134C12.0869 0.711975 14.0645 -3.9935e-05 16.1059 1.67994e-09H63.228C64.5193 0.000344978 65.7946 0.285741 66.9629 0.835826C68.1312 1.38591 69.1637 2.18712 69.9868 3.18229C70.8098 4.17746 71.4031 5.34205 71.7242 6.59296C72.0454 7.84387 72.0866 9.15027 71.8448 10.4189" fill="#FE7B01"/>
    <path d="M36.0001 23.8899L34.9301 25.7499C34.6901 26.1599 34.8901 26.4999 35.3601 26.4999H36.6301C37.1101 26.4999 37.3001 26.8399 37.0601 27.2499L36.0001 29.1099" stroke="white" stroke-width="1.5" stroke-linecap="round" stroke-linejoin="round"/>
    <path d="M32.3001 34.0399V32.8799C30.0001 31.4899 28.1101 28.7799 28.1101 25.8999C28.1101 20.9499 32.6601 17.0699 37.8001 18.1899C40.0601 18.6899 42.0401 20.1899 43.0701 22.2599C45.1601 26.4599 42.9601 30.9199 39.7301 32.8699V34.0299C39.7301 34.3199 39.8401 34.9899 38.7701 34.9899H33.2601C32.1601 34.9999 32.3001 34.5699 32.3001 34.0399Z" stroke="white" stroke-width="1.5" stroke-linecap="round" stroke-linejoin="round"/>
    <path d="M32.5 38C34.79 37.35 37.21 37.35 39.5 38" stroke="white" stroke-width="1.5" stroke-linecap="round" stroke-linejoin="round"/>
</svg>
