<svg width="34" height="26" viewBox="0 0 34 26" fill="none" xmlns="http://www.w3.org/2000/svg">
    <g clip-path="url(#clip0_2_3084)">
        <path d="M4.67454 25.9904C3.79335 25.9904 2.93195 25.7246 2.1993 25.2265C1.46665 24.7284 0.895651 24.0205 0.558544 23.1923C0.221437 22.364 0.133356 21.4527 0.305442 20.5736C0.477528 19.6944 0.902067 18.8869 1.52533 18.2532C2.14859 17.6195 2.9426 17.1881 3.80691 17.0135C4.67123 16.839 5.56701 16.929 6.38098 17.2724C7.19496 17.6158 7.89055 18.197 8.37977 18.9426C8.86899 19.6882 9.12986 20.5646 9.12938 21.461C9.12811 22.6623 8.65829 23.814 7.82305 24.6632C6.98781 25.5124 5.85543 25.9898 4.67454 25.9904ZM4.67454 18.8815C4.17303 18.8815 3.68276 19.0328 3.26577 19.3162C2.84878 19.5997 2.52376 20.0025 2.33184 20.4739C2.13992 20.9452 2.08972 21.4639 2.18756 21.9643C2.2854 22.4646 2.52691 22.9243 2.88153 23.285C3.23616 23.6458 3.68797 23.8914 4.17985 23.991C4.67172 24.0905 5.18156 24.0394 5.6449 23.8442C6.10824 23.6489 6.50425 23.3183 6.78288 22.8941C7.0615 22.4699 7.21022 21.9712 7.21022 21.461C7.20768 20.7786 6.93941 20.125 6.46415 19.6433C5.98889 19.1617 5.34539 18.8913 4.67454 18.8913V18.8815Z" fill="white"/>
        <path d="M28.7672 25.9904C27.8859 25.9909 27.0243 25.7254 26.2913 25.2277C25.5583 24.7299 24.987 24.0221 24.6495 23.194C24.312 22.3658 24.2236 21.4544 24.3954 20.5751C24.5672 19.6957 24.9916 18.888 25.6147 18.2541C26.2379 17.6202 27.0319 17.1885 27.8963 17.0137C28.7607 16.8389 29.6566 16.9289 30.4707 17.2722C31.2848 17.6155 31.9805 18.1967 32.4699 18.9424C32.9592 19.688 33.2201 20.5645 33.2197 21.461C33.2184 22.6619 32.7489 23.8132 31.9141 24.6623C31.0794 25.5115 29.9477 25.9891 28.7672 25.9904ZM28.7672 18.8815C28.2656 18.881 27.7751 19.0319 27.3578 19.3151C26.9405 19.5982 26.6151 20.0009 26.4228 20.4722C26.2305 20.9435 26.18 21.4622 26.2775 21.9628C26.3751 22.4633 26.6164 22.9231 26.9709 23.2841C27.3255 23.6451 27.7773 23.891 28.2692 23.9908C28.7612 24.0905 29.2711 24.0396 29.7346 23.8444C30.1981 23.6492 30.5942 23.3186 30.873 22.8944C31.1517 22.4701 31.3005 21.9713 31.3005 21.461C31.298 20.779 31.03 20.1258 30.5553 19.6442C30.0805 19.1626 29.4376 18.8919 28.7672 18.8913V18.8815Z" fill="white"/>
        <path d="M28.0091 16.0188C27.3696 16.1073 26.7515 16.3149 26.1859 16.6313L20.7571 2.23297C20.7268 2.15112 20.6727 2.08062 20.6019 2.03091C20.5312 1.98119 20.4473 1.95463 20.3613 1.95477H15.5034C15.2596 1.95854 15.0231 1.87077 14.8389 1.70823C14.6548 1.54569 14.5361 1.3198 14.5054 1.07378C14.4923 0.937825 14.5074 0.800588 14.5498 0.67094C14.5921 0.541293 14.6607 0.422125 14.7511 0.321146C14.8416 0.220167 14.9519 0.139622 15.0748 0.0847251C15.1978 0.0298278 15.3307 0.00180147 15.465 0.00245249H21.3137C21.5081 0.0022376 21.6979 0.0620897 21.8581 0.174088C22.0184 0.286086 22.1414 0.444941 22.2109 0.629629L28.0091 16.0188Z" fill="white"/>
        <path d="M23.3552 21.4708C23.3546 21.7982 23.3835 22.1249 23.4415 22.4469H10.0074C10.1225 21.8014 10.1225 21.1401 10.0074 20.4946H23.4415C23.3835 20.8167 23.3546 21.1434 23.3552 21.4708Z" fill="white"/>
    </g>
    <defs>
        <clipPath id="clip0_2_3084">
            <rect width="33" height="26" fill="white" transform="translate(0.222046)"/>
        </clipPath>
    </defs>
</svg>
