<svg width="117" height="48" viewBox="0 0 117 48" fill="none" xmlns="http://www.w3.org/2000/svg">
    <path d="M116.867 8.92925L110.581 41.8875C110.254 43.6067 109.337 45.1578 107.989 46.2735C106.64 47.3893 104.945 47.9998 103.196 48H7.51885C6.41203 47.9997 5.31893 47.7551 4.31753 47.2836C3.31613 46.8121 2.43111 46.1253 1.72565 45.2723C1.02019 44.4193 0.511675 43.4211 0.236371 42.3489C-0.0389325 41.2767 -0.0742313 40.1569 0.133001 39.0695L6.41856 6.11121C6.74653 4.39214 7.66366 2.84127 9.01194 1.72577C10.3602 0.610264 12.0552 -3.423e-05 13.805 1.43995e-09H109.481C110.588 0.000295695 111.681 0.244921 112.683 0.716422C113.684 1.18792 114.569 1.87468 115.274 2.72768C115.98 3.58068 116.488 4.5789 116.764 5.65111C117.039 6.72332 117.074 7.84309 116.867 8.93051" fill="#FFD400"/>
</svg>
