<svg width="72" height="56" viewBox="0 0 72 56" fill="none" xmlns="http://www.w3.org/2000/svg">
    <mask id="path-1-inside-1_2_5" fill="white">
        <path d="M71.8448 10.4175L64.5117 48.8688C64.1294 50.8745 63.0596 52.6841 61.4868 53.9858C59.9139 55.2875 57.9364 55.9998 55.8949 56H8.77199C7.4807 55.9997 6.20541 55.7143 5.03712 55.1642C3.86882 54.6141 2.8363 53.8129 2.01326 52.8177C1.19022 51.8225 0.596954 50.658 0.275766 49.407C-0.0454215 48.1561 -0.0866031 46.8497 0.155167 45.5811L7.48832 7.12975C7.87095 5.12416 8.94093 3.31482 10.5139 2.0134C12.0869 0.711975 14.0645 -3.9935e-05 16.1059 1.67994e-09H63.228C64.5193 0.000344978 65.7946 0.285741 66.9629 0.835826C68.1312 1.38591 69.1637 2.18712 69.9868 3.18229C70.8098 4.17746 71.4031 5.34205 71.7242 6.59296C72.0454 7.84387 72.0866 9.15027 71.8448 10.4189"/>
    </mask>
    <path d="M64.5117 48.8688L63.0383 48.5878L63.0382 48.5879L64.5117 48.8688ZM55.8949 56V57.5H55.895L55.8949 56ZM8.77199 56L8.77159 57.5H8.77199V56ZM0.155167 45.5811L-1.31828 45.3001L-1.31831 45.3003L0.155167 45.5811ZM7.48832 7.12975L6.0149 6.84864L6.01488 6.84874L7.48832 7.12975ZM16.1059 1.67994e-09L16.1059 1.5H16.1059V1.67994e-09ZM63.228 1.67994e-09L63.2284 -1.5H63.228V1.67994e-09ZM70.3714 10.1365L63.0383 48.5878L65.9852 49.1498L73.3183 10.6985L70.3714 10.1365ZM63.0382 48.5879C62.7213 50.2508 61.8344 51.7511 60.5304 52.8302L62.4431 55.1414C64.2849 53.6171 65.5375 51.4982 65.9852 49.1496L63.0382 48.5879ZM60.5304 52.8302C59.2265 53.9094 57.5871 54.4998 55.8947 54.5L55.895 57.5C58.2857 57.4998 60.6013 56.6656 62.4431 55.1414L60.5304 52.8302ZM55.8949 54.5H8.77199V57.5H55.8949V54.5ZM8.77239 54.5C7.70189 54.4997 6.64465 54.2631 5.67609 53.8071L4.39814 56.5213C5.76618 57.1654 7.25952 57.4996 8.77159 57.5L8.77239 54.5ZM5.67609 53.8071C4.70753 53.351 3.85152 52.6868 3.16916 51.8617L0.857355 53.7737C1.82108 54.939 3.0301 55.8771 4.39814 56.5213L5.67609 53.8071ZM3.16916 51.8617C2.48681 51.0367 1.99494 50.0711 1.72864 49.034L-1.17711 49.7801C-0.80103 51.2448 -0.10637 52.6084 0.857355 53.7737L3.16916 51.8617ZM1.72864 49.034C1.46234 47.9969 1.4282 46.9137 1.62865 45.8619L-1.31831 45.3003C-1.6014 46.7857 -1.55318 48.3154 -1.17711 49.7801L1.72864 49.034ZM1.62861 45.8621L8.96176 7.41075L6.01488 6.84874L-1.31828 45.3001L1.62861 45.8621ZM8.96175 7.41085C9.27897 5.74807 10.1661 4.24803 11.4701 3.16912L9.55774 0.85767C7.71581 2.3816 6.46293 4.50025 6.0149 6.84864L8.96175 7.41085ZM11.4701 3.16912C12.7742 2.09021 14.4135 1.49997 16.1059 1.5L16.1059 -1.5C13.7154 -1.50005 11.3997 -0.666264 9.55774 0.85767L11.4701 3.16912ZM16.1059 1.5H63.228V-1.5H16.1059V1.5ZM63.2276 1.5C64.2981 1.50029 65.3554 1.73688 66.3239 2.19292L67.6019 -0.52127C66.2339 -1.1654 64.7405 -1.4996 63.2284 -1.5L63.2276 1.5ZM66.3239 2.19292C67.2925 2.64896 68.1485 3.3132 68.8308 4.13826L71.1427 2.22632C70.1789 1.06105 68.9699 0.122864 67.6019 -0.52127L66.3239 2.19292ZM68.8308 4.13826C69.5132 4.96332 70.0051 5.92886 70.2714 6.966L73.1771 6.21991C72.801 4.75523 72.1064 3.3916 71.1427 2.22632L68.8308 4.13826ZM70.2714 6.966C70.5377 8.00314 70.5718 9.08628 70.3714 10.1381L73.3183 10.6997C73.6014 9.21425 73.5532 7.6846 73.1771 6.21991L70.2714 6.966Z" fill="white" mask="url(#path-1-inside-1_2_5)"/>
    <path d="M32.3001 34.0399V32.8799C30.0001 31.4899 28.1101 28.7799 28.1101 25.8999C28.1101 20.9499 32.6601 17.0699 37.8001 18.1899C40.0601 18.6899 42.0401 20.1899 43.0701 22.2599C45.1601 26.4599 42.9601 30.9199 39.7301 32.8699V34.0299C39.7301 34.3199 39.8401 34.9899 38.7701 34.9899H33.2601C32.1601 34.9999 32.3001 34.5699 32.3001 34.0399Z" stroke="white" stroke-width="1.5" stroke-linecap="round" stroke-linejoin="round"/>
    <path d="M32.5 38C34.79 37.35 37.21 37.35 39.5 38" stroke="white" stroke-width="1.5" stroke-linecap="round" stroke-linejoin="round"/>
</svg>
