<svg width="72" height="56" viewBox="0 0 72 56" fill="none" xmlns="http://www.w3.org/2000/svg">
    <path d="M71.8448 10.4175L64.5117 48.8688C64.1294 50.8745 63.0596 52.6841 61.4868 53.9858C59.9139 55.2875 57.9364 55.9998 55.8949 56H8.77199C7.4807 55.9997 6.20541 55.7143 5.03712 55.1642C3.86882 54.6141 2.8363 53.8129 2.01326 52.8177C1.19022 51.8225 0.596954 50.658 0.275766 49.407C-0.0454215 48.1561 -0.0866031 46.8497 0.155167 45.5811L7.48832 7.12975C7.87095 5.12416 8.94093 3.31482 10.5139 2.0134C12.0869 0.711975 14.0645 -3.9935e-05 16.1059 1.67994e-09H63.228C64.5193 0.000344978 65.7946 0.285741 66.9629 0.835826C68.1312 1.38591 69.1637 2.18712 69.9868 3.18229C70.8098 4.17746 71.4031 5.34205 71.7242 6.59296C72.0454 7.84387 72.0866 9.15027 71.8448 10.4189" fill="#FFE8D3"/>
    <mask id="mask0_2_21" style="mask-type:alpha" maskUnits="userSpaceOnUse" x="0" y="0" width="72" height="56">
        <path d="M71.8448 10.4175L64.5117 48.8688C64.1294 50.8745 63.0596 52.6841 61.4868 53.9858C59.9139 55.2875 57.9364 55.9998 55.8949 56H8.77199C7.4807 55.9997 6.20541 55.7143 5.03712 55.1642C3.86882 54.6141 2.8363 53.8129 2.01326 52.8177C1.19022 51.8225 0.596954 50.658 0.275766 49.407C-0.0454215 48.1561 -0.0866031 46.8497 0.155167 45.5811L7.48832 7.12975C7.87095 5.12416 8.94093 3.31482 10.5139 2.0134C12.0869 0.711975 14.0645 -3.9935e-05 16.1059 1.67994e-09H63.228C64.5193 0.000344978 65.7946 0.285741 66.9629 0.835826C68.1312 1.38591 69.1637 2.18712 69.9868 3.18229C70.8098 4.17746 71.4031 5.34205 71.7242 6.59296C72.0454 7.84387 72.0866 9.15027 71.8448 10.4189" fill="#FFE8D3"/>
    </mask>
    <g mask="url(#mask0_2_21)">
        <path d="M56.2191 42.7515C56.005 40.017 55.835 37.7888 55.7783 37.1495C55.7783 37.0925 55.7783 37.0419 55.7783 36.9849C55.3637 33.3792 54.5572 29.8302 53.3731 26.4012C53.1884 25.8801 53.2109 25.3073 53.4362 24.8025C53.6615 24.2976 54.072 23.8998 54.582 23.692C57.7995 22.3817 59.4113 19.1534 56.4709 16.1593C54.0091 13.6274 51.0498 15.6909 49.5449 17.1215C49.2231 17.4217 48.8168 17.6144 48.3817 17.6734C47.9466 17.7323 47.504 17.6545 47.1146 17.4506L41.6179 14.5515C41.5952 14.5408 41.576 14.5238 41.5625 14.5025C41.5491 14.4812 41.5419 14.4565 41.5419 14.4313C41.5419 14.4061 41.5491 14.3813 41.5625 14.36C41.576 14.3387 41.5952 14.3217 41.6179 14.311C42.4805 14.0135 44.829 13.045 42.9275 11.9499C41.3219 11.0194 39.2693 12.0702 38.18 12.7918C38.1543 12.8116 38.1222 12.8213 38.0898 12.8189C38.0574 12.8165 38.0271 12.8022 38.0045 12.7787C37.982 12.7552 37.9688 12.7243 37.9675 12.6917C37.9662 12.6591 37.9769 12.6271 37.9975 12.6019C38.7027 11.5764 39.5527 9.77872 37.4056 9.13939C34.8871 8.39878 32.2804 11.5131 31.4241 12.6589C31.4072 12.6825 31.3831 12.7 31.3554 12.7085C31.3277 12.7171 31.298 12.7163 31.2709 12.7062C31.2437 12.6962 31.2205 12.6774 31.205 12.6528C31.1894 12.6283 31.1824 12.5993 31.1848 12.5703C31.2415 11.817 31.1848 10.494 30.0074 10.5447C27.9926 10.6523 27.3881 12.7032 27.067 14.3426C26.9874 14.725 26.8248 15.085 26.5908 15.3968C26.3568 15.7087 26.0572 15.9647 25.7133 16.1467C24.9865 16.5513 24.2992 17.024 23.6607 17.5583C23.2346 17.8992 22.6939 18.0612 22.1518 18.0104C21.6096 17.9597 21.1079 17.7001 20.7518 17.2861C18.4662 14.6211 15.085 14.6085 13.5361 17.6152C11.9872 20.622 13.788 22.2487 16.4199 23.692C16.8741 23.9447 17.2196 24.3569 17.3904 24.8498C17.5612 25.3426 17.5451 25.8815 17.3454 26.3632C15.935 29.8954 15.4565 36.1304 15.3243 41.6691C15.3243 41.8337 15.3243 42.0046 15.3243 42.1691V42.2514C15.3243 42.7009 15.3243 43.144 15.3684 43.5871C15.5573 46.5305 15.7839 49.474 15.9036 52.449C15.9539 53.6391 16.0106 54.8418 16.0736 56.0318H57.1572C57.1572 55.9432 57.1572 55.8609 57.1572 55.7849C57.0124 53.3669 56.5654 47.3408 56.2191 42.7515ZM33.9552 32.3134C33.9552 32.5495 33.9089 32.7833 33.8191 33.0014C33.7292 33.2195 33.5975 33.4177 33.4315 33.5846C33.2654 33.7515 33.0683 33.8839 32.8513 33.9743C32.6344 34.0646 32.4019 34.1111 32.167 34.1111C31.9322 34.1111 31.6997 34.0646 31.4827 33.9743C31.2658 33.8839 31.0687 33.7515 30.9026 33.5846C30.7366 33.4177 30.6048 33.2195 30.515 33.0014C30.4251 32.7833 30.3789 32.5495 30.3789 32.3134V32.2564C30.3823 32.2355 30.3823 32.2141 30.3789 32.1932C30.4197 31.9678 30.4108 31.7362 30.3528 31.5147C30.2947 31.2932 30.189 31.0872 30.043 30.9113C29.8971 30.7354 29.7145 30.5939 29.5081 30.4968C29.3018 30.3997 29.0767 30.3494 28.8489 30.3494C28.621 30.3494 28.3959 30.3997 28.1896 30.4968C27.9832 30.5939 27.8006 30.7354 27.6547 30.9113C27.5087 31.0872 27.403 31.2932 27.3449 31.5147C27.2869 31.7362 27.278 31.9678 27.3188 32.1932V32.3134C27.3188 32.5495 27.2726 32.7833 27.1827 33.0014C27.0929 33.2195 26.9611 33.4177 26.7951 33.5846C26.629 33.7515 26.4319 33.8839 26.215 33.9743C25.998 34.0646 25.7655 34.1111 25.5307 34.1111C25.2958 34.1111 25.0633 34.0646 24.8464 33.9743C24.6294 33.8839 24.4323 33.7515 24.2662 33.5846C24.1002 33.4177 23.9685 33.2195 23.8786 33.0014C23.7888 32.7833 23.7425 32.5495 23.7425 32.3134V32.1932C23.789 30.862 24.3477 29.601 25.3008 28.6758C26.254 27.7506 27.5271 27.2336 28.852 27.2336C30.1769 27.2336 31.4501 27.7506 32.4032 28.6758C33.3563 29.601 33.915 30.862 33.9615 32.1932L33.9552 32.3134ZM47.2594 32.3134C47.2594 32.7902 47.071 33.2475 46.7356 33.5846C46.4003 33.9217 45.9455 34.1111 45.4712 34.1111C44.997 34.1111 44.5422 33.9217 44.2068 33.5846C43.8715 33.2475 43.683 32.7902 43.683 32.3134V32.1932C43.7239 31.9678 43.715 31.7362 43.657 31.5147C43.5989 31.2932 43.4932 31.0872 43.3472 30.9113C43.2013 30.7354 43.0187 30.5939 42.8123 30.4968C42.6059 30.3997 42.3809 30.3494 42.153 30.3494C41.9252 30.3494 41.7001 30.3997 41.4938 30.4968C41.2874 30.5939 41.1048 30.7354 40.9589 30.9113C40.8129 31.0872 40.7072 31.2932 40.6491 31.5147C40.5911 31.7362 40.5822 31.9678 40.623 32.1932C40.6199 32.2184 40.6199 32.2439 40.623 32.2691V32.3134C40.623 32.7891 40.4355 33.2454 40.1015 33.5824C39.7675 33.9193 39.3143 34.1094 38.8412 34.1111C38.6056 34.1128 38.372 34.0675 38.154 33.9778C37.9359 33.8882 37.7377 33.7559 37.5708 33.5887C37.4039 33.4215 37.2717 33.2227 37.1817 33.0038C37.0918 32.7849 37.0459 32.5503 37.0467 32.3134V32.1932C37.0932 30.862 37.6519 29.601 38.605 28.6758C39.5581 27.7506 40.8313 27.2336 42.1562 27.2336C43.4811 27.2336 44.7542 27.7506 45.7074 28.6758C46.6605 29.601 47.2192 30.862 47.2657 32.1932L47.2594 32.3134Z" fill="#FE7B01"/>
    </g>
</svg>
