<svg width="72" height="72" viewBox="0 0 72 72" fill="none" xmlns="http://www.w3.org/2000/svg">
        <g filter="url(#filter0_d_1_2)">
                <path d="M47.8261 17.5186L47.7836 17.561C47.4867 17.858 45.627 19.4773 40.7904 19.053C39.9863 18.9623 39.1899 18.8134 38.4074 18.6076C37.7661 18.4567 37.1169 18.341 36.4629 18.2611C33.3768 17.841 30.2351 18.1604 27.2968 19.1932C24.3584 20.2259 21.7076 21.9423 19.563 24.2008C17.2592 26.6158 15.6054 29.5755 14.7561 32.8032C13.9068 36.031 13.8898 39.4213 14.7066 42.6574C15.5235 45.8935 17.1475 48.8697 19.4269 51.3077C21.7063 53.7457 24.5667 55.566 27.7406 56.5983C30.9145 57.6307 34.2984 57.8414 37.5759 57.2108C40.8534 56.5802 43.9175 55.1289 46.4818 52.9925C49.046 50.8561 51.0267 48.1044 52.2387 44.9947C53.4507 41.8849 53.8545 38.5186 53.4122 35.2104C53.3274 34.5599 53.2072 33.9306 53.0657 33.2942C52.8732 32.5607 52.7361 31.8138 52.6556 31.0597C52.1536 25.6221 54.183 23.8755 54.183 23.8755C54.6477 23.4689 55.024 22.9711 55.2886 22.4131C55.5531 21.8551 55.7002 21.2486 55.7208 20.6314C55.7413 20.0142 55.6349 19.3994 55.4081 18.825C55.1813 18.2506 54.839 17.7289 54.4023 17.2922C53.9656 16.8556 53.4439 16.5132 52.8695 16.2864C52.2951 16.0596 51.6803 15.9532 51.0631 15.9738C50.4459 15.9943 49.8395 16.1415 49.2814 16.406C48.7234 16.6705 48.2257 17.0468 47.819 17.5116L47.8261 17.5186ZM47.9251 29.4687C49.9728 32.8962 50.6974 36.9539 49.9624 40.8782C49.2275 44.8025 47.0837 48.323 43.9344 50.7771C40.7852 53.2312 36.8476 54.4499 32.8626 54.2036C28.8776 53.9574 25.12 52.2633 22.2969 49.4401C19.4737 46.6169 17.7796 42.8593 17.5333 38.8744C17.2871 34.8894 18.5057 30.9518 20.9599 27.8025C23.414 24.6533 26.9344 22.5095 30.8588 21.7745C34.7831 21.0396 38.8408 21.7641 42.2682 23.8119C44.5927 25.2006 46.5363 27.1443 47.9251 29.4687Z" fill="white"/>
        </g>
        <path d="M45.4431 26.2797C46.3989 27.2317 47.2305 28.3009 47.918 29.4616C49.9658 32.8891 50.6903 36.9467 49.9554 40.8711C49.2204 44.7954 47.0766 48.3159 43.9274 50.77C40.7781 53.2241 36.8405 54.4428 32.8555 54.1965C28.8705 53.9503 25.113 52.2562 22.2898 49.433C19.4666 46.6098 17.7725 42.8522 17.5263 38.8673C17.28 34.8823 18.4986 30.9447 20.9528 27.7954C23.4069 24.6462 26.9274 22.5024 30.8517 21.7674C34.776 21.0325 38.8337 21.757 42.2611 23.8048C43.4209 24.4937 44.4899 25.3251 45.4431 26.2797Z" fill="#1F1E1D"/>
        <path d="M47.9251 29.4687L45.3512 26.3857L42.2682 23.8119C44.5927 25.2006 46.5363 27.1443 47.9251 29.4687Z" fill="#1F1E1D"/>
        <path d="M50.9998 38C51.0026 39.401 50.8281 40.7967 50.4807 42.1539C49.4677 46.1745 47.0204 49.6861 43.5993 52.0282C40.1783 54.3702 36.0195 55.3811 31.9053 54.8706C27.7911 54.3602 24.0052 52.3636 21.2601 49.2565C18.515 46.1495 16.9999 42.1462 16.9999 38C16.9999 33.8538 18.515 29.8505 21.2601 26.7435C24.0052 23.6364 27.7911 21.6398 31.9053 21.1294C36.0195 20.6189 40.1783 21.6298 43.5993 23.9718C47.0204 26.3139 49.4677 29.8255 50.4807 33.8461C50.8264 35.2036 51.0008 36.5991 50.9998 38Z" fill="#FFE8D3"/>
        <path d="M44.1193 43.5846C44.0148 42.2397 43.9311 41.149 43.9102 40.8313C43.9057 40.8033 43.9057 40.7747 43.9102 40.7466C43.702 38.9765 43.3094 37.2336 42.739 35.5472C42.6488 35.2912 42.6594 35.0099 42.7684 34.7615C42.8774 34.5131 43.0766 34.3167 43.3246 34.2129C44.8932 33.5775 45.6775 31.9891 44.2553 30.5172C43.0527 29.2782 41.6096 30.2842 40.8671 30.9937C40.7096 31.1389 40.512 31.2319 40.3008 31.2603C40.0897 31.2887 39.8749 31.2511 39.6854 31.1525L37.0188 29.7123C37.0076 29.7074 36.9981 29.6993 36.9915 29.6889C36.9848 29.6786 36.9812 29.6665 36.9812 29.6541C36.9812 29.6417 36.9848 29.6296 36.9915 29.6193C36.9981 29.609 37.0076 29.6008 37.0188 29.5958C37.4371 29.4476 38.5874 28.9817 37.6567 28.4416C37.2679 28.2987 36.8489 28.2616 36.4415 28.3341C36.0341 28.4066 35.6527 28.5861 35.3352 28.8546C35.3227 28.8658 35.3063 28.8716 35.2897 28.8706C35.273 28.8696 35.2574 28.8619 35.2463 28.8493C35.2352 28.8367 35.2296 28.8201 35.2305 28.8032C35.2315 28.7863 35.2391 28.7705 35.2515 28.7593C35.5966 28.251 36.0045 27.372 34.9588 27.0544C33.7353 26.6943 32.4594 28.2192 32.0411 28.7911C32.0411 28.7911 31.9261 28.791 31.9261 28.7381C31.9261 28.378 31.9261 27.6791 31.351 27.7427C30.368 27.8062 30.0752 28.8017 29.9183 29.6276C29.8801 29.8146 29.8011 29.9905 29.6872 30.1426C29.5732 30.2946 29.4271 30.419 29.2595 30.5066C28.891 30.7074 28.541 30.9413 28.2138 31.2055C28.0045 31.3664 27.7429 31.4415 27.4813 31.416C27.2197 31.3905 26.9772 31.2662 26.802 31.0678C25.6831 29.7653 24.0308 29.7547 23.2779 31.2266C22.525 32.6986 23.4034 33.5034 24.6897 34.2129C24.9084 34.34 25.0743 34.543 25.157 34.7843C25.2396 35.0256 25.2334 35.289 25.1393 35.526C24.4339 37.9665 24.1024 40.5022 24.1564 43.0445C24.1514 43.1256 24.1514 43.207 24.1564 43.2881C24.1564 43.5105 24.1564 43.7328 24.1564 43.9446C24.2505 45.3954 24.355 46.8356 24.4178 48.2863C24.4805 49.7371 24.5432 50.9337 24.6373 52.1939C27.6426 54.1753 31.1867 55.1503 34.7689 54.9812C38.3511 54.8121 41.7902 53.5073 44.6004 51.2514C44.6004 50.7219 44.6004 50.2666 44.5272 49.9277C44.5063 48.7946 44.3389 45.8296 44.1193 43.5846ZM33.2646 38.4487C33.2411 38.6665 33.1389 38.8679 32.9778 39.0141C32.8167 39.1604 32.6079 39.2413 32.3915 39.2413C32.1751 39.2413 31.9663 39.1604 31.8052 39.0141C31.644 38.8679 31.5419 38.6665 31.5183 38.4487V38.3957C31.5411 38.2834 31.539 38.1672 31.512 38.0558C31.485 37.9443 31.4339 37.8404 31.3623 37.7514C31.2907 37.6625 31.2005 37.5908 31.0981 37.5416C30.9958 37.4923 30.8839 37.4668 30.7706 37.4668C30.6573 37.4668 30.5454 37.4923 30.4431 37.5416C30.3407 37.5908 30.2505 37.6625 30.1789 37.7514C30.1073 37.8404 30.0561 37.9443 30.0291 38.0558C30.0022 38.1672 30 38.2834 30.0229 38.3957V38.4487C30.0229 38.6818 29.9314 38.9053 29.7687 39.0702C29.6059 39.235 29.3851 39.3276 29.1549 39.3276C28.9247 39.3276 28.704 39.235 28.5412 39.0702C28.3785 38.9053 28.287 38.6818 28.287 38.4487V38.3957C28.287 37.7273 28.5492 37.0863 29.016 36.6136C29.4827 36.141 30.1158 35.8754 30.7759 35.8754C31.4359 35.8754 32.0689 36.141 32.5357 36.6136C33.0024 37.0863 33.2646 37.7273 33.2646 38.3957V38.4487ZM39.7586 38.4487C39.7622 38.6257 39.7128 38.7996 39.617 38.9478C39.5212 39.0959 39.3836 39.2113 39.2219 39.2788C39.0603 39.3464 38.8823 39.3629 38.7113 39.3262C38.5402 39.2896 38.384 39.2015 38.2633 39.0735C38.1829 38.9912 38.1193 38.8936 38.0762 38.7864C38.0332 38.6792 38.0114 38.5644 38.0123 38.4487V38.3957C38.0351 38.2834 38.033 38.1672 38.006 38.0558C37.9791 37.9443 37.9279 37.8404 37.8563 37.7514C37.7847 37.6625 37.6945 37.5908 37.5921 37.5416C37.4898 37.4923 37.3779 37.4668 37.2646 37.4668C37.1513 37.4668 37.0394 37.4923 36.937 37.5416C36.8347 37.5908 36.7444 37.6625 36.6728 37.7514C36.6012 37.8404 36.5501 37.9443 36.5232 38.0558C36.4962 38.1672 36.4941 38.2834 36.5169 38.3957V38.4487C36.5169 38.6828 36.4258 38.9074 36.2633 39.0739C36.1008 39.2405 35.8801 39.3354 35.6489 39.3382C35.4136 39.3365 35.1884 39.2414 35.0215 39.0735C34.9411 38.9912 34.8775 38.8936 34.8344 38.7864C34.7914 38.6792 34.7696 38.5644 34.7705 38.4487V38.3957C34.8115 37.7542 35.0922 37.1525 35.5554 36.7128C36.0186 36.2731 36.6297 36.0285 37.2646 36.0285C37.8995 36.0285 38.5106 36.2731 38.9738 36.7128C39.437 37.1525 39.7176 37.7542 39.7586 38.3957V38.4487Z" fill="#FE7B01"/>
        <defs>
                <filter id="filter0_d_1_2" x="10.1063" y="13.9713" width="49.6169" height="49.5951" filterUnits="userSpaceOnUse" color-interpolation-filters="sRGB">
                        <feFlood flood-opacity="0" result="BackgroundImageFix"/>
                        <feColorMatrix in="SourceAlpha" type="matrix" values="0 0 0 0 0 0 0 0 0 0 0 0 0 0 0 0 0 0 127 0" result="hardAlpha"/>
                        <feOffset dy="2"/>
                        <feGaussianBlur stdDeviation="2"/>
                        <feComposite in2="hardAlpha" operator="out"/>
                        <feColorMatrix type="matrix" values="0 0 0 0 0 0 0 0 0 0 0 0 0 0 0 0 0 0 0.08 0"/>
                        <feBlend mode="normal" in2="BackgroundImageFix" result="effect1_dropShadow_1_2"/>
                        <feBlend mode="normal" in="SourceGraphic" in2="effect1_dropShadow_1_2" result="shape"/>
                </filter>
        </defs>
</svg>

