<svg width="79" height="48" viewBox="0 0 76 48" fill="none" xmlns="http://www.w3.org/2000/svg">

        <mask id="path-1-inside-1_2_1520" fill="white">
            <path d="M76.8671 8.92925L70.5861 41.8875C70.2587 43.6067 69.3424 45.1578 67.9952 46.2735C66.648 47.3893 64.9542 47.9998 63.2056 48H-13.4866C-14.5926 47.9997 -15.6849 47.7551 -16.6856 47.2836C-17.6863 46.8121 -18.5706 46.1253 -19.2756 45.2723C-19.9805 44.4193 -20.4887 43.4211 -20.7638 42.3489C-21.0389 41.2767 -21.0742 40.1569 -20.8671 39.0695L-14.5861 6.11121C-14.2584 4.39214 -13.3419 2.84127 -11.9946 1.72577C-10.6473 0.610264 -8.95349 -3.423e-05 -7.20496 1.43995e-09H69.4866C70.5926 0.000295695 71.685 0.244921 72.6856 0.716422C73.6863 1.18792 74.5706 1.87468 75.2756 2.72768C75.9805 3.58068 76.4887 4.5789 76.7638 5.65111C77.0389 6.72332 77.0742 7.84309 76.8671 8.93051"/>
        </mask>
        <path d="M70.5861 41.8875L69.1126 41.6067L69.1126 41.6069L70.5861 41.8875ZM63.2056 48V49.5H63.2057L63.2056 48ZM-13.4866 48L-13.487 49.5H-13.4866V48ZM-20.8671 39.0695L-22.3406 38.7887L-22.3406 38.7889L-20.8671 39.0695ZM-14.5861 6.11121L-16.0596 5.83031L-16.0596 5.8304L-14.5861 6.11121ZM-7.20496 1.43995e-09L-7.20499 1.5H-7.20496V1.43995e-09ZM69.4866 1.43995e-09L69.487 -1.5H69.4866V1.43995e-09ZM75.3936 8.64844L69.1126 41.6067L72.0596 42.1683L78.3406 9.21006L75.3936 8.64844ZM69.1126 41.6069C68.8504 42.9835 68.1167 44.2252 67.0384 45.1183L68.9519 47.4288C70.568 46.0904 71.6669 44.23 72.0596 42.1682L69.1126 41.6069ZM67.0384 45.1183C65.9601 46.0113 64.6046 46.4999 63.2054 46.5L63.2057 49.5C65.3038 49.4998 67.3358 48.7672 68.9519 47.4288L67.0384 45.1183ZM63.2056 46.5H-13.4866V49.5H63.2056V46.5ZM-13.4862 46.5C-14.3713 46.4998 -15.2454 46.304 -16.0462 45.9267L-17.325 48.6405C-16.1245 49.2062 -14.814 49.4996 -13.487 49.5L-13.4862 46.5ZM-16.0462 45.9267C-16.8471 45.5493 -17.555 44.9996 -18.1194 44.3168L-20.4318 46.2279C-19.5863 47.251 -18.5254 48.0748 -17.325 48.6405L-16.0462 45.9267ZM-18.1194 44.3168C-18.6837 43.6339 -19.0906 42.8347 -19.3109 41.9761L-22.2167 42.7217C-21.8868 44.0075 -21.2774 45.2048 -20.4318 46.2279L-18.1194 44.3168ZM-19.3109 41.9761C-19.5312 41.1175 -19.5594 40.2209 -19.3936 39.3501L-22.3406 38.7889C-22.589 40.093 -22.5467 41.4358 -22.2167 42.7217L-19.3109 41.9761ZM-19.3936 39.3503L-13.1126 6.39202L-16.0596 5.8304L-22.3406 38.7887L-19.3936 39.3503ZM-13.1126 6.39212C-12.8502 5.01559 -12.1164 3.77403 -11.038 2.88115L-12.9512 0.570383C-14.5674 1.90851 -15.6665 3.76868 -16.0596 5.83031L-13.1126 6.39212ZM-11.038 2.88115C-9.95961 1.9883 -8.60411 1.49997 -7.20499 1.5L-7.20493 -1.5C-9.30288 -1.50004 -11.335 -0.767775 -12.9512 0.570383L-11.038 2.88115ZM-7.20496 1.5H69.4866V-1.5H-7.20496V1.5ZM69.4862 1.5C70.3713 1.50024 71.2454 1.69599 72.0463 2.07334L73.325 -0.640494C72.1245 -1.20615 70.814 -1.49965 69.487 -1.5L69.4862 1.5ZM72.0463 2.07334C72.8471 2.45069 73.555 3.00036 74.1193 3.68324L76.4318 1.77212C75.5863 0.748994 74.5255 -0.0748398 73.325 -0.640494L72.0463 2.07334ZM74.1193 3.68324C74.6837 4.36611 75.0906 5.16533 75.3109 6.0239L78.2167 5.27832C77.8868 3.99247 77.2774 2.79525 76.4318 1.77212L74.1193 3.68324ZM75.3109 6.0239C75.5312 6.88247 75.5594 7.77915 75.3936 8.6499L78.3406 9.21112C78.589 7.90703 78.5466 6.56416 78.2167 5.27832L75.3109 6.0239Z" fill="#DEDEDE" mask="url(#path-1-inside-1_2_1520)"/>


</svg>
